<svg width="48" height="48" viewBox="0 0 48 48" fill="none" xmlns="http://www.w3.org/2000/svg">
<g id="_&#195;&#144;&#194;&#161;&#195;&#144;&#194;&#187;&#195;&#144;&#194;&#190;&#195;&#144;&#194;&#185;_2">
<path id="Vector" d="M43.5122 8H4.48778C2.01325 8 0 10.0133 0 12.4878V34.827C0 37.3015 2.01325 39.315 4.48778 39.315H43.5122C45.9867 39.315 48 37.3017 48 34.827V12.4878C48 10.0133 45.9867 8 43.5122 8ZM1.20542 16.4207H46.7946V21.3723H1.20542V16.4207ZM4.48778 9.20542H43.5122C45.3222 9.20542 46.7946 10.678 46.7946 12.4878V15.2152H1.20542V12.4878C1.20542 10.6778 2.67784 9.20542 4.48778 9.20542ZM43.5122 38.1096H4.48778C2.67784 38.1096 1.20542 36.6371 1.20542 34.827V22.5777H46.7946V34.827C46.7946 36.6371 45.3222 38.1096 43.5122 38.1096ZM24.065 28.1323C24.065 28.4652 23.7952 28.735 23.4623 28.735H6.9854C6.65251 28.735 6.3827 28.4652 6.3827 28.1323C6.3827 27.7994 6.65251 27.5296 6.9854 27.5296H23.4623C23.7952 27.5296 24.065 27.7994 24.065 28.1323ZM32.529 28.1323C32.529 28.4652 32.2592 28.735 31.9263 28.735H26.5843C26.2514 28.735 25.9816 28.4652 25.9816 28.1323C25.9816 27.7994 26.2514 27.5296 26.5843 27.5296H31.9263C32.2592 27.5296 32.529 27.7994 32.529 28.1323ZM15.8266 32.0174C15.8266 32.3503 15.5567 32.6201 15.2238 32.6201H6.9854C6.65251 32.6201 6.3827 32.3503 6.3827 32.0174C6.3827 31.6845 6.65251 31.4147 6.9854 31.4147H15.2238C15.5567 31.4147 15.8266 31.6845 15.8266 32.0174Z" fill="url(#paint0_linear_532_377)"/>
</g>
<defs>
<linearGradient id="paint0_linear_532_377" x1="31.5181" y1="7.99999" x2="6.0053" y2="18.2252" gradientUnits="userSpaceOnUse">
<stop stop-color="#CC675B"/>
<stop offset="0.0001" stop-color="#CC675B"/>
<stop offset="1" stop-color="#2C6890"/>
</linearGradient>
</defs>
</svg>
