<svg width="24" height="24" viewBox="0 0 24 24" fill="none" xmlns="http://www.w3.org/2000/svg">
<g id="tg">
<path id="Vector" d="M20.1341 2.16052C17.2317 3.36264 4.78634 8.51679 1.34814 9.92161C-0.957084 10.822 0.392739 11.6659 0.392739 11.6659C0.392739 11.6659 2.36169 12.3415 4.04779 12.8475C5.73546 13.3535 6.63429 12.791 6.63429 12.791L14.5651 7.44825C17.3779 5.53587 16.7022 7.1104 16.0281 7.78609C14.5651 9.24906 12.1467 11.5543 10.1228 13.4101C9.22237 14.1974 9.67336 14.8731 10.0662 15.2093C11.5292 16.4476 15.5221 18.9775 15.7468 19.1457C16.9347 19.9864 19.2714 21.1979 19.6281 18.6397L21.0345 9.81004C21.4839 6.82912 21.9349 4.0729 21.9899 3.28564C22.1596 1.37326 20.1341 2.16052 20.1341 2.16052Z" fill="#246893"/>
</g>
</svg>
