<svg width="94" height="90" viewBox="0 0 94 90" fill="none" xmlns="http://www.w3.org/2000/svg">
<g id="icon3" clip-path="url(#clip0_532_552)">
<path id="Vector" d="M1.69458 87.7099C2.09551 80.3702 2.91196 63.6722 12.2282 61.2208C21.5444 58.7693 35.5917 53.0736 35.5917 53.0736M92.3056 89.2659C91.9047 81.9262 91.0882 63.6722 81.772 61.2208C72.4557 58.7693 57.3733 52.5305 57.3733 52.5305M57.3733 54.7985C57.3733 60.8787 52.4776 65.8081 46.4388 65.8081C40.4882 65.8485 35.6325 61.0248 35.5917 55.0334C35.5917 54.9989 35.5917 54.9644 35.5917 54.9306L35.599 45.7486M54.749 87.7099L57.1692 56.8976M60.5444 32.7058C60.5444 43.0549 54.0492 51.4442 46.0306 51.4442C38.0119 51.4442 31.5168 42.064 31.5168 32.7058M61.3608 35.1133C63.504 35.1133 65.2462 32.8673 65.2462 30.1076C65.2462 27.3478 64.4298 25.278 62.3085 25.278C62.3085 25.278 60.5735 25.234 60.5735 26.3643M31.1012 34.9445C28.9872 34.9445 27.2742 32.7425 27.2742 30.0268C27.2742 27.3111 28.1416 25.1019 30.2556 25.1019C30.2556 25.1019 31.5168 25.322 31.5168 25.8358M31.5168 22.0999C31.5168 22.0999 27.9667 9.21864 30.8753 6.29742C33.7839 3.3762 36.8601 3.9487 36.8601 3.9487C36.8601 3.9487 37.3631 0.733887 42.998 0.733887C47.9478 0.733887 54.6616 0.851323 59.9393 6.29742C61.2959 7.73821 61.9425 9.71407 61.7034 11.6848L60.5444 22.0999M31.5168 22.0999L36.8601 11.4206C58.824 11.4206 60.5444 22.0999 60.5444 22.0999M31.5168 22.0999V29.5864M60.5444 22.0999V29.5864M65.9169 84.5979H76.1954M35.4824 50.7029C35.4824 50.7029 22.1568 53.0736 22.1568 68.6412M57.3733 49.5359C57.3733 49.5359 70.6916 51.8699 70.6916 67.4742M25.6923 80.5023H29.1112C29.1112 74.0433 26.1297 68.8027 21.9672 68.8027C17.8048 68.8027 15.1951 74.0433 15.1951 80.5023H18.9347M57.3733 44.4054V54.9306M38.5149 87.7099L35.7667 56.8976M70.6916 67.6504C72.6117 67.6504 74.1688 69.2181 74.1688 71.1514C74.1688 73.0847 72.6117 74.6525 70.6916 74.6525C68.7715 74.6525 67.2144 73.0847 67.2144 71.1514C67.2144 69.2181 68.7715 67.6504 70.6916 67.6504Z" stroke="url(#paint0_linear_532_552)" stroke-width="2" stroke-linecap="round" stroke-linejoin="round"/>
</g>
<defs>
<linearGradient id="paint0_linear_532_552" x1="61.1922" y1="0.733866" x2="9.03043" y2="14.693" gradientUnits="userSpaceOnUse">
<stop stop-color="#CC675B"/>
<stop offset="0.0001" stop-color="#CC675B"/>
<stop offset="1" stop-color="#2C6890"/>
</linearGradient>
<clipPath id="clip0_532_552">
<rect width="92.069" height="90" fill="white" transform="translate(0.965576)"/>
</clipPath>
</defs>
</svg>
