<svg width="91" height="90" viewBox="0 0 91 90" fill="none" xmlns="http://www.w3.org/2000/svg">
<g id="Layer_1" clip-path="url(#clip0_532_292)">
<path id="Vector" d="M34.3703 24.4024H39.5999M34.3703 30.7212H39.5999M34.3703 37.0326H71.5072M34.3703 43.3514H71.5072M34.3703 49.6702H71.5072M67.3743 55.989H71.5072M34.3703 55.989H61.8314M34.3703 66.7764H44.1133M48.9252 66.7764H47.5823M67.3743 4.60302V7.47521H38.5033V4.60302M33.8929 3.8943H19.8677V89.254H86.0099V3.8943H71.9847M80.5192 69.2308H67.3743V82.3757M80.5192 69.2308L67.3743 82.3757M80.5192 69.2308V7.54235H71.9847M67.3743 82.3757H25.3584V7.54235H33.8929M11.9524 15.9127V13.0256M9.40098 21.5079H14.5112M14.5411 24.8575H8.40877C6.89659 24.8575 5.67087 26.0832 5.67087 27.5954V42.4412C5.6746 43.8184 5.16656 45.147 4.24597 46.1713M9.40098 70.2529H14.5112M44.1133 24.4024H71.5072V30.572H44.1133V24.4024ZM33.8929 0.746094H71.9772V11.3321H33.8929V0.746094ZM9.40098 73.2444L11.9524 76.9745L14.5112 73.2444V18.4716C14.5157 17.0586 13.3728 15.9097 11.9598 15.9052C11.9576 15.9052 11.9546 15.9052 11.9524 15.9052C10.5424 15.9097 9.40098 17.0541 9.40098 18.4641V73.2444Z" stroke="url(#paint0_linear_532_292)" stroke-width="2" stroke-linecap="round" stroke-linejoin="round"/>
</g>
<defs>
<linearGradient id="paint0_linear_532_292" x1="57.9343" y1="0.746073" x2="10.2754" y2="12.258" gradientUnits="userSpaceOnUse">
<stop stop-color="#CC675B"/>
<stop offset="0.0001" stop-color="#CC675B"/>
<stop offset="1" stop-color="#2C6890"/>
</linearGradient>
<clipPath id="clip0_532_292">
<rect width="90" height="90" fill="white" transform="translate(0.5)"/>
</clipPath>
</defs>
</svg>
