<svg width="48" height="48" viewBox="0 0 48 48" fill="none" xmlns="http://www.w3.org/2000/svg">
<g id="_&#208;&#160;&#208;&#142;&#208;&#160;&#194;&#187;&#208;&#160;&#209;&#149;&#208;&#160;&#226;&#132;&#150;_6" clip-path="url(#clip0_532_389)">
<path id="Vector" d="M47.3661 9.92134L24.0949 0.0474387C23.9468 -0.0151619 23.7801 -0.0151619 23.632 0.0474387L0.36099 9.92134C0.142184 10.0142 0 10.229 0 10.4668V15.2886C0 15.6158 0.265213 15.881 0.592434 15.881H47.1347C47.4619 15.881 47.7271 15.6158 47.7271 15.2886V10.4668C47.7271 10.229 47.5849 10.0142 47.3661 9.92134ZM46.5422 14.6962H1.18487V10.8588L23.8634 1.23645L46.5422 10.859V14.6962ZM20.9441 8.85279C20.9441 10.5473 22.3227 11.9257 24.0171 11.9257C25.7114 11.9257 27.0902 10.5473 27.0902 8.85279C27.0902 7.15823 25.7118 5.77963 24.0171 5.77963C22.3223 5.77963 20.9441 7.15823 20.9441 8.85279ZM24.0171 6.9645C25.0582 6.9645 25.9054 7.81148 25.9054 8.85279C25.9054 9.89409 25.0584 10.7409 24.0171 10.7409C22.9758 10.7409 22.129 9.89389 22.129 8.85279C22.129 7.81168 22.9758 6.9645 24.0171 6.9645ZM3.7975 36.0749C3.47028 36.0749 3.20507 36.3401 3.20507 36.6674V40.1793C3.20507 40.5065 3.47028 40.7718 3.7975 40.7718C4.12472 40.7718 4.38994 40.5065 4.38994 40.1793V37.2598H11.8315V40.1793C11.8315 40.5065 12.0967 40.7718 12.4239 40.7718C12.7512 40.7718 13.0164 40.5065 13.0164 40.1793V36.6674C13.0164 36.3401 12.7512 36.0749 12.4239 36.0749H11.3457V20.9957H12.4239C12.7512 20.9957 13.0164 20.7305 13.0164 20.4033V16.8913C13.0164 16.5641 12.7512 16.2989 12.4239 16.2989C12.0967 16.2989 11.8315 16.5641 11.8315 16.8913V19.8108H4.38994V16.8913C4.38994 16.5641 4.12472 16.2989 3.7975 16.2989C3.47028 16.2989 3.20507 16.5641 3.20507 16.8913V20.4033C3.20507 20.7305 3.47028 20.9957 3.7975 20.9957H4.97803V36.0749H3.7975ZM6.16289 20.9957H10.1608V36.0749H6.16289V20.9957ZM19.5503 36.0749C19.2231 36.0749 18.9579 36.3401 18.9579 36.6674V40.1793C18.9579 40.5065 19.2231 40.7718 19.5503 40.7718C19.8775 40.7718 20.1428 40.5065 20.1428 40.1793V37.2598H27.5843V40.1793C27.5843 40.5065 27.8495 40.7718 28.1768 40.7718C28.504 40.7718 28.7692 40.5065 28.7692 40.1793V36.6674C28.7692 36.3401 28.504 36.0749 28.1768 36.0749H27.0985V20.9957H28.1768C28.504 20.9957 28.7692 20.7305 28.7692 20.4033V16.8913C28.7692 16.5641 28.504 16.2989 28.1768 16.2989C27.8495 16.2989 27.5843 16.5641 27.5843 16.8913V19.8108H20.1428V16.8913C20.1428 16.5641 19.8775 16.2989 19.5503 16.2989C19.2231 16.2989 18.9579 16.5641 18.9579 16.8913V20.4033C18.9579 20.7305 19.2231 20.9957 19.5503 20.9957H20.731V36.0749H19.5503ZM21.9159 20.9957H25.9137V36.0749H21.9159V20.9957ZM35.3373 36.0749C35.0101 36.0749 34.7449 36.3401 34.7449 36.6674V40.1793C34.7449 40.5065 35.0101 40.7718 35.3373 40.7718C35.6645 40.7718 35.9297 40.5065 35.9297 40.1793V37.2598H43.3713V40.1793C43.3713 40.5065 43.6365 40.7718 43.9637 40.7718C44.291 40.7718 44.5562 40.5065 44.5562 40.1793V36.6674C44.5562 36.3401 44.291 36.0749 43.9637 36.0749H42.8855V20.9957H43.9637C44.291 20.9957 44.5562 20.7305 44.5562 20.4033V16.8913C44.5562 16.5641 44.291 16.2989 43.9637 16.2989C43.6365 16.2989 43.3713 16.5641 43.3713 16.8913V19.8108H35.9297V16.8913C35.9297 16.5641 35.6645 16.2989 35.3373 16.2989C35.0101 16.2989 34.7449 16.5641 34.7449 16.8913V20.4033C34.7449 20.7305 35.0101 20.9957 35.3373 20.9957H36.5178V36.0749H35.3373ZM37.7027 20.9957H41.7006V36.0749H37.7027V20.9957ZM47.1348 42.0761H0.592434C0.265213 42.0761 0 42.3413 0 42.6685V47.408C0 47.7352 0.265213 48.0004 0.592434 48.0004H47.1347C47.4619 48.0004 47.7271 47.7352 47.7271 47.408V42.6685C47.7271 42.3413 47.4619 42.0761 47.1347 42.0761H47.1348ZM46.5424 46.8156H1.18487V43.261H46.5422V46.8156H46.5424Z" fill="url(#paint0_linear_532_389)"/>
</g>
<defs>
<linearGradient id="paint0_linear_532_389" x1="31.3389" y1="0.000477183" x2="3.76042" y2="7.17048" gradientUnits="userSpaceOnUse">
<stop stop-color="#CC675B"/>
<stop offset="0.0001" stop-color="#CC675B"/>
<stop offset="1" stop-color="#2C6890"/>
</linearGradient>
<clipPath id="clip0_532_389">
<rect width="48" height="48" fill="white"/>
</clipPath>
</defs>
</svg>
