<svg width="24" height="24" viewBox="0 0 24 24" fill="none" xmlns="http://www.w3.org/2000/svg">
<g id="yt" clip-path="url(#clip0_532_104)">
<path id="Vector" d="M23.5062 6.62858C23.2292 5.59977 22.4189 4.78944 21.3918 4.51246C19.5131 3.99805 12.0017 3.99805 12.0017 3.99805C12.0017 3.99805 4.49032 3.99805 2.61161 4.49181C1.60172 4.77052 0.770753 5.60149 0.493763 6.62858C0 8.50729 0 12.4006 0 12.4006C0 12.4006 0 16.3146 0.493763 18.1727C0.770753 19.2015 1.58108 20.0118 2.60989 20.2888C4.50753 20.8032 12 20.8032 12 20.8032C12 20.8032 19.5131 20.8032 21.3901 20.3094C22.4189 20.0325 23.2292 19.2221 23.5062 18.1933C24 16.3146 24 12.4213 24 12.4213C24 12.4213 24.0189 8.50729 23.5062 6.62858ZM9.6086 15.9998V8.80321L15.8555 12.4006L9.6086 15.9998Z" fill="#246893"/>
</g>
<defs>
<clipPath id="clip0_532_104">
<rect width="24" height="24" fill="white"/>
</clipPath>
</defs>
</svg>
