<svg width="24" height="24" viewBox="0 0 24 24" fill="none" xmlns="http://www.w3.org/2000/svg">
<g id="vk">
<path id="Vector" fill-rule="evenodd" clip-rule="evenodd" d="M20.6552 13.6349C21.4506 14.4114 22.2924 15.1434 23.0055 15.9989C23.3209 16.3794 23.6192 16.772 23.8472 17.2126C24.1712 17.84 23.8781 18.5309 23.3158 18.5669H19.8204C18.9186 18.6406 18.1986 18.2771 17.5935 17.66C17.1101 17.1663 16.6609 16.6417 16.1964 16.1326C16.0061 15.9234 15.8055 15.728 15.5672 15.5737C15.0889 15.2634 14.6758 15.3594 14.4032 15.8566C14.1255 16.3623 14.0621 16.9229 14.0346 17.4886C13.9969 18.3114 13.7484 18.5274 12.9204 18.5651C11.1529 18.6491 9.47636 18.3817 7.91807 17.4886C6.54493 16.7034 5.47864 15.5926 4.55122 14.336C2.74607 11.8931 1.36436 9.20514 0.121501 6.44343C-0.157927 5.81943 0.0460729 5.48514 0.733501 5.47314C1.8735 5.45086 3.01522 5.45257 4.15693 5.47314C4.61979 5.48 4.92664 5.74571 5.10664 6.18286C5.72379 7.7 6.47807 9.14343 7.42607 10.4823C7.67807 10.8389 7.93522 11.1954 8.30207 11.4457C8.70665 11.7234 9.01693 11.6309 9.20722 11.18C9.32893 10.8937 9.38207 10.5851 9.4095 10.2783C9.50036 9.22229 9.51236 8.16971 9.35293 7.11714C9.25522 6.46057 8.88664 6.03543 8.23179 5.912C7.8975 5.84857 7.94722 5.72514 8.10836 5.53314C8.3895 5.204 8.6535 5 9.17979 5H13.1312C13.7535 5.12343 13.8924 5.40286 13.9764 6.02857L13.9798 10.4171C13.9729 10.6589 14.1015 11.3789 14.5369 11.5383C14.8866 11.6531 15.1164 11.3737 15.3255 11.1509C16.2718 10.1463 16.9472 8.96 17.5506 7.73086C17.8181 7.19086 18.0478 6.63029 18.2724 6.06971C18.4369 5.65314 18.6975 5.44914 19.1655 5.45771L22.9678 5.46114C23.0809 5.46114 23.1941 5.46286 23.3038 5.48171C23.9449 5.59143 24.1198 5.86571 23.9226 6.49314C23.6106 7.47543 23.0038 8.29314 22.4106 9.11429C21.7764 9.992 21.0975 10.8389 20.4684 11.7217C19.8906 12.5274 19.9386 12.9337 20.6552 13.6349Z" fill="#246893"/>
</g>
</svg>
