<svg width="24" height="24" viewBox="0 0 24 24" fill="none" xmlns="http://www.w3.org/2000/svg">
<g id="ok">
<path id="Vector" d="M7.34726 10.0158C8.17887 10.8355 9.24059 11.3956 10.3944 11.6208C11.5481 11.8477 12.7448 11.7304 13.8335 11.2876C14.9206 10.8433 15.8506 10.0924 16.5045 9.12717C17.1583 8.16193 17.5075 7.02773 17.5075 5.8685C17.5075 4.31191 16.8806 2.82103 15.7649 1.71968C14.6492 0.619896 13.1352 0.00195312 11.5561 0.00195312C10.3785 0.00195312 9.2279 0.346124 8.25028 0.990662C7.27267 1.6352 6.5093 2.55195 6.05858 3.62357C5.60786 4.69519 5.49042 5.87476 5.72054 7.01365C5.95066 8.15098 6.51724 9.19757 7.34884 10.0173L7.34726 10.0158ZM9.87224 4.20866C10.3182 3.76906 10.9244 3.52188 11.5545 3.52032C12.0258 3.52032 12.4861 3.65799 12.8765 3.91611C13.2685 4.17424 13.5732 4.54032 13.7525 4.96897C13.9335 5.39761 13.9795 5.87007 13.8874 6.32531C13.7954 6.78056 13.5684 7.19825 13.2352 7.52678C12.9019 7.85531 12.4782 8.07902 12.0163 8.16975C11.5545 8.26049 11.0768 8.21356 10.6404 8.03678C10.2055 7.85844 9.83415 7.55807 9.57229 7.17322C9.31042 6.78681 9.17076 6.33313 9.17076 5.87007C9.17076 5.24743 9.4231 4.65139 9.86906 4.21179L9.87224 4.20866ZM17.4805 15.0485C16.3283 15.7587 15.0523 16.2265 13.7319 16.4846L17.4948 20.1938C17.7281 20.4238 17.8868 20.7163 17.9503 21.0355C18.0137 21.3546 17.982 21.6847 17.855 21.9851C17.7281 22.2855 17.5154 22.542 17.2409 22.7219C16.9663 22.9018 16.6441 22.9988 16.3156 22.9988C16.0966 22.9988 15.8792 22.9566 15.6776 22.8737C15.4745 22.7908 15.292 22.6703 15.1364 22.517L11.5545 18.9861L7.97255 22.517C7.81861 22.6703 7.63451 22.7923 7.43137 22.8752C7.22982 22.9581 7.01239 23.002 6.79338 23.002C6.57437 23.002 6.35695 22.9597 6.15539 22.8768C5.95225 22.7939 5.76974 22.6734 5.61421 22.5201C5.45868 22.3668 5.33648 22.1853 5.25237 21.9866C5.16825 21.7864 5.1254 21.5736 5.1254 21.3578C5.1254 21.1419 5.16825 20.9275 5.25237 20.7289C5.33648 20.5302 5.46027 20.3487 5.61421 20.1954L9.37708 16.4862C8.12332 16.2406 6.91082 15.8088 5.80466 15.1564C5.42694 14.9311 5.15397 14.5682 5.04764 14.1458C4.94131 13.7234 5.00796 13.276 5.2365 12.9037C5.46344 12.5298 5.83164 12.2607 6.26014 12.1559C6.68864 12.0495 7.14253 12.1168 7.52024 12.3389C8.76607 13.0554 10.1849 13.4277 11.6275 13.4152C13.0701 13.4011 14.481 13.0038 15.7125 12.2638C15.8982 12.1481 16.1045 12.0714 16.3204 12.0354C16.5362 11.9994 16.7584 12.0057 16.9711 12.0542C17.1853 12.1027 17.3869 12.1919 17.5646 12.317C17.7424 12.4422 17.8947 12.6017 18.0106 12.7848C18.1264 12.9678 18.2058 13.1727 18.2407 13.3855C18.2772 13.5983 18.2693 13.8173 18.2201 14.0269C18.1709 14.2381 18.0788 14.4368 17.9519 14.612C17.8233 14.7872 17.663 14.9374 17.4757 15.0516L17.4805 15.0485Z" fill="#246893"/>
</g>
</svg>
