<svg width="50" height="35" viewBox="0 0 50 35" fill="none" xmlns="http://www.w3.org/2000/svg">
<g id="_&#195;&#144;&#194;&#161;&#195;&#144;&#194;&#187;&#195;&#144;&#194;&#190;&#195;&#144;&#194;&#185;_2" clip-path="url(#clip0_506_3187)">
<path id="Vector" d="M32.2884 35C24.518 35 17.6305 29.9442 15.3582 22.6417H8.69967C8.22026 22.6417 7.83157 22.2577 7.83157 21.784C7.83157 21.3103 8.22026 20.9263 8.69967 20.9263H20.9156C21.395 20.9263 21.7837 21.3103 21.7837 21.784C21.7837 22.2577 21.395 22.6417 20.9156 22.6417H17.1843C19.2935 28.6869 24.9496 32.9121 31.4203 33.2612V29.5142C31.4203 29.0405 31.8089 28.6565 32.2884 28.6565C32.7678 28.6565 33.1565 29.0405 33.1565 29.5142V33.2614C41.2754 32.8295 47.8035 26.3795 48.2406 18.3576H44.1483C43.6689 18.3576 43.2803 17.9736 43.2803 17.4999C43.2803 17.0262 43.6689 16.6422 44.1483 16.6422H48.2406C47.8035 8.62032 41.2754 2.17025 33.1565 1.73839V5.48556C33.1565 5.95924 32.7678 6.34329 32.2884 6.34329C31.8089 6.34329 31.4203 5.95924 31.4203 5.48556V1.73903C25.191 2.07955 19.6143 6.05938 17.3681 11.8578C17.1966 12.3002 16.6949 12.5219 16.2469 12.3523C15.7992 12.1829 15.575 11.6869 15.7465 11.2445C18.3519 4.51891 24.9993 0 32.2884 0C36.9891 0 41.4286 1.82845 44.789 5.14869C48.1494 8.46894 50 12.8553 50 17.5001C50 22.1449 48.1494 26.5311 44.789 29.8513C41.4286 33.1716 36.9891 35 32.2884 35ZM14.433 27.4842H9.82408C9.34467 27.4842 8.95598 27.1002 8.95598 26.6265C8.95598 26.1528 9.34467 25.7688 9.82408 25.7688H14.433C14.9125 25.7688 15.3011 26.1528 15.3011 26.6265C15.3011 27.1002 14.9125 27.4842 14.433 27.4842ZM7.05093 27.4842H3.60349C3.12408 27.4842 2.73539 27.1002 2.73539 26.6265C2.73539 26.1528 3.12408 25.7688 3.60349 25.7688H7.05093C7.53034 25.7688 7.91903 26.1528 7.91903 26.6265C7.91903 27.1002 7.53034 27.4842 7.05093 27.4842ZM32.2884 19.8573C32.083 19.8573 31.8775 19.7859 31.7128 19.6416L26.298 14.9025C25.9391 14.5884 25.9059 14.0463 26.2238 13.6918C26.542 13.3374 27.0904 13.3046 27.4491 13.6185L32.2571 17.8265L39.942 10.354C40.2833 10.0218 40.8331 10.0259 41.1697 10.3636C41.5059 10.7014 41.5015 11.2443 41.1599 11.5767L32.8973 19.611C32.7289 19.7748 32.5086 19.8573 32.2884 19.8573ZM15.49 19.588C15.0396 19.588 14.659 19.2445 14.6251 18.7938C14.593 18.3653 14.5767 17.9303 14.5767 17.5003C14.5767 17.074 14.5928 16.6454 14.6245 16.2182H12.1473C11.6679 16.2182 11.2792 15.8342 11.2792 15.3605C11.2792 14.8868 11.6679 14.5028 12.1473 14.5028H15.5707C15.5794 14.5028 15.5878 14.5028 15.5965 14.5028H19.8667C20.3461 14.5028 20.7348 14.8868 20.7348 15.3605C20.7348 15.8342 20.3461 16.2182 19.8667 16.2182H16.3659C16.3307 16.6452 16.3129 17.074 16.3129 17.5003C16.3129 17.888 16.3277 18.2806 16.3568 18.6668C16.3921 19.1392 16.0334 19.5507 15.5553 19.5857C15.5334 19.5872 15.5114 19.588 15.49 19.588ZM9.03715 16.2182H5.77721C5.2978 16.2182 4.90911 15.8342 4.90911 15.3605C4.90911 14.8868 5.2978 14.5028 5.77721 14.5028H9.03715C9.51655 14.5028 9.90525 14.8868 9.90525 15.3605C9.90525 15.8342 9.51655 16.2182 9.03715 16.2182ZM2.77944 16.2182H0.868101C0.388692 16.2182 0 15.8342 0 15.3605C0 14.8868 0.388692 14.5028 0.868101 14.5028H2.77922C3.25863 14.5028 3.64733 14.8868 3.64733 15.3605C3.64733 15.8342 3.25863 16.2182 2.77922 16.2182H2.77944ZM13.8712 9.4907H5.77699C5.29758 9.4907 4.90889 9.10665 4.90889 8.63297C4.90889 8.1593 5.29758 7.77525 5.77699 7.77525H13.8709C14.3504 7.77525 14.739 8.1593 14.739 8.63297C14.739 9.10665 14.3506 9.4907 13.8712 9.4907Z" fill="url(#paint0_linear_506_3187)"/>
</g>
<defs>
<linearGradient id="paint0_linear_506_3187" x1="32.8313" y1="-8.09214e-06" x2="5.76332" y2="10.1107" gradientUnits="userSpaceOnUse">
<stop stop-color="#CC675B"/>
<stop offset="0.0001" stop-color="#CC675B"/>
<stop offset="1" stop-color="#2C6890"/>
</linearGradient>
<clipPath id="clip0_506_3187">
<rect width="50" height="35" fill="white"/>
</clipPath>
</defs>
</svg>
