<svg width="41" height="22" viewBox="0 0 41 22" fill="none" xmlns="http://www.w3.org/2000/svg">
<g id="_&#208;&#160;&#208;&#142;&#208;&#160;&#194;&#187;&#208;&#160;&#209;&#149;&#208;&#160;&#226;&#132;&#150;_2" clip-path="url(#clip0_532_736)">
<path id="Vector" d="M33.6723 21.0001C31.8047 21.0001 30.2851 19.5237 30.2851 17.7088C30.2851 15.8939 31.8045 14.4176 33.6723 14.4176C35.3633 14.4176 36.7688 15.6277 37.0199 17.2036H38.795C39.4208 17.2036 39.9299 16.7089 39.9299 16.1008V12.0811C37.7396 8.09621 34.431 4.84197 30.3544 2.66515C29.4774 2.19691 28.485 1.94935 27.4844 1.94935H9.23762C8.96785 1.94935 8.74921 1.7369 8.74921 1.47478C8.74921 1.21267 8.96785 1.00022 9.23762 1.00022H27.4842C28.6489 1.00022 29.8042 1.28828 30.8248 1.8334C35.1043 4.11874 38.5712 7.54493 40.8502 11.7415C40.8874 11.8097 40.9067 11.8858 40.9067 11.963V16.101C40.9067 17.2323 39.9594 18.1528 38.795 18.1528H37.029C36.8051 19.7584 35.3852 21.0001 33.6723 21.0001ZM33.6723 15.3667C32.3432 15.3667 31.2619 16.4174 31.2619 17.7088C31.2619 19.0003 32.3432 20.0509 33.6723 20.0509C35.0014 20.0509 36.0828 19.0003 36.0828 17.7088C36.0828 16.4174 35.0014 15.3667 33.6723 15.3667ZM16.5427 21.0001C14.8298 21.0001 13.4099 19.7583 13.1862 18.1527H10.956C9.73921 18.1527 8.74937 17.1907 8.74937 16.0086V14.1787H5.4852C5.21544 14.1787 4.9968 13.9662 4.9968 13.7041C4.9968 13.442 5.21544 13.2296 5.4852 13.2296H11.852C12.1218 13.2296 12.3405 13.442 12.3405 13.7041C12.3405 13.9662 12.1218 14.1787 11.852 14.1787H9.72618V16.0086C9.72618 16.6676 10.2779 17.2036 10.956 17.2036H13.1953C13.4464 15.6278 14.8518 14.4176 16.5427 14.4176C18.4103 14.4176 19.9299 15.8939 19.9299 17.7088C19.9299 19.5237 18.4105 21.0001 16.5427 21.0001ZM16.5427 15.3667C15.2136 15.3667 14.1322 16.4174 14.1322 17.7088C14.1322 19.0003 15.2136 20.0509 16.5427 20.0509C17.8718 20.0509 18.9531 19.0003 18.9531 17.7088C18.9531 16.4174 17.8718 15.3667 16.5427 15.3667ZM28.8231 18.1527H21.5498C21.28 18.1527 21.0614 17.9402 21.0614 17.6781C21.0614 17.416 21.28 17.2036 21.5498 17.2036H28.8231C29.0929 17.2036 29.3115 17.416 29.3115 17.6781C29.3115 17.9402 29.0929 18.1527 28.8231 18.1527ZM15.0775 11.0444H1.39514C1.12538 11.0444 0.906738 10.8319 0.906738 10.5698C0.906738 10.3077 1.12538 10.0952 1.39514 10.0952H15.0775C15.3472 10.0952 15.5659 10.3077 15.5659 10.5698C15.5659 10.8319 15.3472 11.0444 15.0775 11.0444ZM36.3073 10.4094H31.1948C29.6643 10.4094 28.4191 9.19941 28.4191 7.71229V4.50645C28.4191 4.24434 28.6377 4.03189 28.9075 4.03189C29.1772 4.03189 29.3959 4.24434 29.3959 4.50645V7.71229C29.3959 8.67613 30.2029 9.46026 31.1948 9.46026H36.3073C36.577 9.46026 36.7957 9.67271 36.7957 9.93483C36.7957 10.1969 36.577 10.4094 36.3073 10.4094ZM18.3874 8.1356H6.30719C6.03743 8.1356 5.81879 7.92315 5.81879 7.66104C5.81879 7.39892 6.03743 7.18647 6.30719 7.18647H18.3874C18.6571 7.18647 18.8758 7.39892 18.8758 7.66104C18.8758 7.92315 18.6571 8.1356 18.3874 8.1356ZM15.225 4.98102H4.19907C3.92931 4.98102 3.71067 4.76857 3.71067 4.50645C3.71067 4.24434 3.92931 4.03189 4.19907 4.03189H15.2251C15.4949 4.03189 15.7135 4.24434 15.7135 4.50645C15.7135 4.76857 15.4947 4.98102 15.225 4.98102Z" fill="url(#paint0_linear_532_736)"/>
</g>
<defs>
<linearGradient id="paint0_linear_532_736" x1="27.1718" y1="1.00022" x2="7.79503" y2="11.1332" gradientUnits="userSpaceOnUse">
<stop stop-color="#CC675B"/>
<stop offset="0.0001" stop-color="#CC675B"/>
<stop offset="1" stop-color="#2C6890"/>
</linearGradient>
<clipPath id="clip0_532_736">
<rect width="40" height="22" fill="white" transform="translate(0.906738)"/>
</clipPath>
</defs>
</svg>
