<svg width="15" height="22" viewBox="0 0 15 22" fill="none" xmlns="http://www.w3.org/2000/svg">
<g id="_&#208;&#160;&#208;&#142;&#208;&#160;&#194;&#187;&#208;&#160;&#209;&#149;&#208;&#160;&#226;&#132;&#150;_2" clip-path="url(#clip0_532_743)">
<path id="Vector" d="M7.95343 22C7.81084 22 7.6786 21.9258 7.60431 21.804C7.33084 21.3559 0.906738 10.7844 0.906738 7.04655C0.906738 3.16107 4.0678 0 7.95343 0C11.8391 0 15 3.16107 15 7.04655C15 10.7844 8.57588 21.3559 8.30255 21.804C8.22826 21.9257 8.09602 22 7.95343 22ZM7.95343 0.81794C4.5189 0.81794 1.72468 3.61216 1.72468 7.04655C1.72468 10.0811 6.59279 18.5011 7.95343 20.795C9.31394 18.5011 14.182 10.0811 14.182 7.04655C14.182 3.61202 11.3878 0.81794 7.95343 0.81794ZM11.4871 6.99366C11.4871 5.04519 9.9019 3.46002 7.95343 3.46002C7.41332 3.46002 6.87198 3.58653 6.38776 3.82578C6.18532 3.92584 6.10229 4.17109 6.20236 4.37366C6.30242 4.5761 6.54753 4.65899 6.75024 4.55906C7.12227 4.37516 7.53846 4.27796 7.95357 4.27796C9.45094 4.27796 10.6693 5.49628 10.6693 6.99366C10.6693 8.49104 9.45094 9.70922 7.95357 9.70922C6.45619 9.70922 5.23787 8.49104 5.23787 6.99366C5.23787 6.7082 5.28258 6.42574 5.37092 6.15418C5.44072 5.93934 5.32321 5.70868 5.10836 5.63888C4.89338 5.56895 4.66286 5.68673 4.59306 5.90144C4.47827 6.25479 4.41993 6.62232 4.41993 6.99366C4.41993 8.94199 6.0051 10.5272 7.95357 10.5272C9.90204 10.5272 11.4871 8.94199 11.4871 6.99366Z" fill="url(#paint0_linear_532_743)"/>
</g>
<defs>
<linearGradient id="paint0_linear_532_743" x1="10.1607" y1="-5.08649e-06" x2="1.70396" y2="1.4165" gradientUnits="userSpaceOnUse">
<stop stop-color="#CC675B"/>
<stop offset="0.0001" stop-color="#CC675B"/>
<stop offset="1" stop-color="#2C6890"/>
</linearGradient>
<clipPath id="clip0_532_743">
<rect width="14.0932" height="22" fill="white" transform="translate(0.906738)"/>
</clipPath>
</defs>
</svg>
