<svg width="20" height="20" viewBox="0 0 20 20" fill="none" xmlns="http://www.w3.org/2000/svg">
<g id="Layer_1">
<g id="Group">
<path id="Vector" fill-rule="evenodd" clip-rule="evenodd" d="M16.3619 3.77958C14.7211 2.13688 12.5391 1.23183 10.2142 1.23087C5.42403 1.23087 1.52531 5.12927 1.52345 9.92094C1.52277 11.4527 1.92297 12.9478 2.68352 14.2657L1.45056 18.7692L6.05766 17.5606C7.32702 18.253 8.75623 18.618 10.2108 18.6185H10.2143C10.214 18.6185 10.2146 18.6185 10.2143 18.6185C15.004 18.6185 18.903 14.7197 18.905 9.92789C18.9059 7.6057 18.0027 5.42222 16.3619 3.77958ZM10.2143 17.1507H10.2113C8.91522 17.1502 7.64392 16.802 6.53486 16.1439L6.27112 15.9873L3.5372 16.7045L4.26696 14.0389L4.09519 13.7656C3.37214 12.6156 2.99026 11.2863 2.99082 9.92143C2.99237 5.93879 6.23284 2.69867 10.2172 2.69867C12.1465 2.69927 13.9602 3.45164 15.324 4.81699C16.6878 6.18235 17.4384 7.99721 17.4376 9.92729C17.436 13.9103 14.1956 17.1507 10.2143 17.1507Z" fill="black"/>
<path id="Vector_2" fill-rule="evenodd" clip-rule="evenodd" d="M14.1765 11.7408C13.9593 11.6321 12.8917 11.1068 12.6927 11.0343C12.4936 10.9618 12.3488 10.9256 12.2041 11.143C12.0594 11.3603 11.6432 11.8495 11.5165 11.9945C11.3899 12.1393 11.2631 12.1576 11.046 12.0488C10.8289 11.9401 10.1292 11.7108 9.29979 10.971C8.65421 10.3951 8.21843 9.68409 8.09171 9.46664C7.96506 9.24929 8.07823 9.13178 8.18696 9.02348C8.28464 8.92615 8.40413 8.76987 8.51271 8.64304C8.62126 8.51629 8.65746 8.42563 8.72985 8.28081C8.80224 8.13585 8.76608 8.00903 8.71175 7.90038C8.65746 7.79169 8.22319 6.72284 8.04225 6.28797C7.86593 5.8646 7.68693 5.92197 7.55362 5.91523C7.42715 5.90891 7.28219 5.90761 7.13745 5.90761C6.9927 5.90761 6.7574 5.96197 6.5584 6.17932C6.35936 6.39673 5.79834 6.92212 5.79834 7.99086C5.79834 9.05974 6.57646 10.0923 6.68504 10.2372C6.79359 10.3822 8.21627 12.5755 10.3946 13.5161C10.9127 13.7399 11.3172 13.8735 11.6325 13.9735C12.1527 14.1388 12.6261 14.1155 13.0003 14.0595C13.4175 13.9972 14.2851 13.5343 14.466 13.0271C14.647 12.5198 14.647 12.0849 14.5927 11.9944C14.5384 11.9039 14.3936 11.8495 14.1765 11.7408Z" fill="black"/>
</g>
</g>
</svg>
