<svg width="38" height="40" viewBox="0 0 38 40" fill="none" xmlns="http://www.w3.org/2000/svg">
<g id="_&#195;&#144;&#194;&#161;&#195;&#144;&#194;&#187;&#195;&#144;&#194;&#190;&#195;&#144;&#194;&#185;_4" clip-path="url(#clip0_506_2171)">
<path id="Vector" d="M34.8205 40H24.8904C23.1373 40 21.7109 38.6225 21.7109 36.9294V31.3084C21.7109 29.6154 23.1371 28.2378 24.8904 28.2378H25.3653V25.3358C25.3653 22.9448 27.3797 20.9993 29.8555 20.9993C32.3312 20.9993 34.3454 22.9446 34.3454 25.3358V28.2378H34.8203C36.5734 28.2378 37.9998 29.6154 37.9998 31.3084V36.9294C37.9998 38.6225 36.5736 40 34.8203 40H34.8205ZM24.8904 29.9799C24.1319 29.9799 23.5148 30.5759 23.5148 31.3084V36.9294C23.5148 37.662 24.1317 38.258 24.8904 38.258H34.8205C35.579 38.258 36.1962 37.662 36.1962 36.9294V31.3084C36.1962 30.5759 35.5793 29.9799 34.8205 29.9799H24.8904ZM27.1691 28.2378H32.5416V25.3358C32.5416 23.9053 31.3366 22.7414 29.8555 22.7414C28.3743 22.7414 27.1691 23.9051 27.1691 25.3358V28.2378ZM17.9605 39.2747C17.9154 39.2747 17.8699 39.2714 17.8239 39.2647C12.8936 38.5406 8.35784 35.4513 5.05209 30.5654C1.79436 25.7499 0 19.5798 0 13.1914C0 10.8339 0.24239 8.48672 0.720631 6.21441C0.78354 5.91565 1.00338 5.67045 1.30034 5.56789L17.2492 0.0509827C17.4453 -0.0169579 17.6602 -0.0169579 17.8564 0.0507649L33.853 5.56745C34.1504 5.67001 34.3707 5.91543 34.4336 6.21441C34.9116 8.48628 35.154 10.8337 35.154 13.1914C35.154 14.6835 35.0557 16.1823 34.8618 17.6467C34.7989 18.1238 34.3497 18.4618 33.8525 18.4002C33.3587 18.3392 33.0092 17.9028 33.0724 17.4257C33.2566 16.0344 33.3499 14.6096 33.3499 13.1914C33.3499 11.1157 33.1524 9.0494 32.7628 7.04146L17.5536 1.7961L2.39121 7.0408C2.00135 9.04919 1.80406 11.1159 1.80406 13.1914C1.80406 19.2455 3.4938 25.0773 6.56257 29.6127C9.58331 34.0779 13.6791 36.8941 18.0954 37.5426C18.5878 37.6149 18.9265 38.0591 18.8514 38.5347C18.7835 38.9659 18.3991 39.2749 17.961 39.2749L17.9605 39.2747ZM29.8555 36.3315C29.3574 36.3315 28.9536 35.9414 28.9536 35.4604V32.8414C28.9536 32.3604 29.3574 31.9704 29.8555 31.9704C30.3536 31.9704 30.7574 32.3604 30.7574 32.8414V35.4604C30.7574 35.9414 30.3536 36.3315 29.8555 36.3315ZM15.7673 24.2587C15.5017 24.2587 15.2498 24.1457 15.0785 23.9499L10.3824 18.5844C10.0607 18.217 10.1085 17.6674 10.4891 17.3569C10.8694 17.0461 11.4386 17.0925 11.7601 17.4599L15.7648 22.0354L23.5096 13.1187C23.8298 12.7502 24.3986 12.7016 24.7802 13.0111C25.1617 13.3201 25.2117 13.8695 24.8915 14.2381L16.4586 23.9473C16.2877 24.1442 16.0354 24.2581 15.7693 24.2585H15.7675L15.7673 24.2587Z" fill="url(#paint0_linear_506_2171)"/>
</g>
<defs>
<linearGradient id="paint0_linear_506_2171" x1="24.9517" y1="-9.24817e-06" x2="2.87216" y2="5.48447" gradientUnits="userSpaceOnUse">
<stop stop-color="#CC675B"/>
<stop offset="0.0001" stop-color="#CC675B"/>
<stop offset="1" stop-color="#2C6890"/>
</linearGradient>
<clipPath id="clip0_506_2171">
<rect width="38" height="40" fill="white"/>
</clipPath>
</defs>
</svg>
