<svg style="display: none;" aria-hidden="true" xmlns="http://www.w3.org/2000/svg"
    xmlns:xlink="http://www.w3.org/1999/xlink">
    <symbol viewBox="0 0 41 22" fill="none" id="svg-icon_car">
        <g clip-path="url(#aclip0_532_736)">
            <path
                d="M33.6723 21.0001C31.8047 21.0001 30.2851 19.5237 30.2851 17.7088C30.2851 15.8939 31.8045 14.4176 33.6723 14.4176C35.3633 14.4176 36.7688 15.6277 37.0199 17.2036H38.795C39.4208 17.2036 39.9299 16.7089 39.9299 16.1008V12.0811C37.7396 8.09621 34.431 4.84197 30.3544 2.66515C29.4774 2.19691 28.485 1.94935 27.4844 1.94935H9.23762C8.96785 1.94935 8.74921 1.7369 8.74921 1.47478C8.74921 1.21267 8.96785 1.00022 9.23762 1.00022H27.4842C28.6489 1.00022 29.8042 1.28828 30.8248 1.8334C35.1043 4.11874 38.5712 7.54493 40.8502 11.7415C40.8874 11.8097 40.9067 11.8858 40.9067 11.963V16.101C40.9067 17.2323 39.9594 18.1528 38.795 18.1528H37.029C36.8051 19.7584 35.3852 21.0001 33.6723 21.0001ZM33.6723 15.3667C32.3432 15.3667 31.2619 16.4174 31.2619 17.7088C31.2619 19.0003 32.3432 20.0509 33.6723 20.0509C35.0014 20.0509 36.0828 19.0003 36.0828 17.7088C36.0828 16.4174 35.0014 15.3667 33.6723 15.3667ZM16.5427 21.0001C14.8298 21.0001 13.4099 19.7583 13.1862 18.1527H10.956C9.73921 18.1527 8.74937 17.1907 8.74937 16.0086V14.1787H5.4852C5.21544 14.1787 4.9968 13.9662 4.9968 13.7041C4.9968 13.442 5.21544 13.2296 5.4852 13.2296H11.852C12.1218 13.2296 12.3405 13.442 12.3405 13.7041C12.3405 13.9662 12.1218 14.1787 11.852 14.1787H9.72618V16.0086C9.72618 16.6676 10.2779 17.2036 10.956 17.2036H13.1953C13.4464 15.6278 14.8518 14.4176 16.5427 14.4176C18.4103 14.4176 19.9299 15.8939 19.9299 17.7088C19.9299 19.5237 18.4105 21.0001 16.5427 21.0001ZM16.5427 15.3667C15.2136 15.3667 14.1322 16.4174 14.1322 17.7088C14.1322 19.0003 15.2136 20.0509 16.5427 20.0509C17.8718 20.0509 18.9531 19.0003 18.9531 17.7088C18.9531 16.4174 17.8718 15.3667 16.5427 15.3667ZM28.8231 18.1527H21.5498C21.28 18.1527 21.0614 17.9402 21.0614 17.6781C21.0614 17.416 21.28 17.2036 21.5498 17.2036H28.8231C29.0929 17.2036 29.3115 17.416 29.3115 17.6781C29.3115 17.9402 29.0929 18.1527 28.8231 18.1527ZM15.0775 11.0444H1.39514C1.12538 11.0444 0.906738 10.8319 0.906738 10.5698C0.906738 10.3077 1.12538 10.0952 1.39514 10.0952H15.0775C15.3472 10.0952 15.5659 10.3077 15.5659 10.5698C15.5659 10.8319 15.3472 11.0444 15.0775 11.0444ZM36.3073 10.4094H31.1948C29.6643 10.4094 28.4191 9.19941 28.4191 7.71229V4.50645C28.4191 4.24434 28.6377 4.03189 28.9075 4.03189C29.1772 4.03189 29.3959 4.24434 29.3959 4.50645V7.71229C29.3959 8.67613 30.2029 9.46026 31.1948 9.46026H36.3073C36.577 9.46026 36.7957 9.67271 36.7957 9.93483C36.7957 10.1969 36.577 10.4094 36.3073 10.4094ZM18.3874 8.1356H6.30719C6.03743 8.1356 5.81879 7.92315 5.81879 7.66104C5.81879 7.39892 6.03743 7.18647 6.30719 7.18647H18.3874C18.6571 7.18647 18.8758 7.39892 18.8758 7.66104C18.8758 7.92315 18.6571 8.1356 18.3874 8.1356ZM15.225 4.98102H4.19907C3.92931 4.98102 3.71067 4.76857 3.71067 4.50645C3.71067 4.24434 3.92931 4.03189 4.19907 4.03189H15.2251C15.4949 4.03189 15.7135 4.24434 15.7135 4.50645C15.7135 4.76857 15.4947 4.98102 15.225 4.98102Z"
                fill="url(#apaint0_linear_532_736)" />
        </g>
        <defs>
            <linearGradient id="apaint0_linear_532_736" x1="27.172" y1="1" x2="7.795" y2="11.133"
                gradientUnits="userSpaceOnUse">
                <stop stop-color="#CC675B" />
                <stop offset="0" stop-color="#CC675B" />
                <stop offset="1" stop-color="#2C6890" />
            </linearGradient>
            <clipPath id="aclip0_532_736">
                <path fill="#fff" transform="translate(.907)" d="M0 0H40V22H0z" />
            </clipPath>
        </defs>
    </symbol>
    <symbol viewBox="0 0 15 22" fill="none" id="svg-icon_map">
        <g clip-path="url(#bclip0_532_743)">
            <path
                d="M7.95343 22C7.81084 22 7.6786 21.9258 7.60431 21.804C7.33084 21.3559 0.906738 10.7844 0.906738 7.04655C0.906738 3.16107 4.0678 0 7.95343 0C11.8391 0 15 3.16107 15 7.04655C15 10.7844 8.57588 21.3559 8.30255 21.804C8.22826 21.9257 8.09602 22 7.95343 22ZM7.95343 0.81794C4.5189 0.81794 1.72468 3.61216 1.72468 7.04655C1.72468 10.0811 6.59279 18.5011 7.95343 20.795C9.31394 18.5011 14.182 10.0811 14.182 7.04655C14.182 3.61202 11.3878 0.81794 7.95343 0.81794ZM11.4871 6.99366C11.4871 5.04519 9.9019 3.46002 7.95343 3.46002C7.41332 3.46002 6.87198 3.58653 6.38776 3.82578C6.18532 3.92584 6.10229 4.17109 6.20236 4.37366C6.30242 4.5761 6.54753 4.65899 6.75024 4.55906C7.12227 4.37516 7.53846 4.27796 7.95357 4.27796C9.45094 4.27796 10.6693 5.49628 10.6693 6.99366C10.6693 8.49104 9.45094 9.70922 7.95357 9.70922C6.45619 9.70922 5.23787 8.49104 5.23787 6.99366C5.23787 6.7082 5.28258 6.42574 5.37092 6.15418C5.44072 5.93934 5.32321 5.70868 5.10836 5.63888C4.89338 5.56895 4.66286 5.68673 4.59306 5.90144C4.47827 6.25479 4.41993 6.62232 4.41993 6.99366C4.41993 8.94199 6.0051 10.5272 7.95357 10.5272C9.90204 10.5272 11.4871 8.94199 11.4871 6.99366Z"
                fill="url(#bpaint0_linear_532_743)" />
        </g>
        <defs>
            <linearGradient id="bpaint0_linear_532_743" x1="10.161" y1="0" x2="1.704" y2="1.417"
                gradientUnits="userSpaceOnUse">
                <stop stop-color="#CC675B" />
                <stop offset="0" stop-color="#CC675B" />
                <stop offset="1" stop-color="#2C6890" />
            </linearGradient>
            <clipPath id="bclip0_532_743">
                <path fill="#fff" transform="translate(.907)" d="M0 0H14.093V22H0z" />
            </clipPath>
        </defs>
    </symbol>
    <symbol viewBox="0 0 20 20" fill="none" id="svg-icon_wh">
        <g fill-rule="evenodd" clip-rule="evenodd" fill="#000">
            <path
                d="M16.3619 3.77958C14.7211 2.13688 12.5391 1.23183 10.2142 1.23087C5.42403 1.23087 1.52531 5.12927 1.52345 9.92094C1.52277 11.4527 1.92297 12.9478 2.68352 14.2657L1.45056 18.7692L6.05766 17.5606C7.32702 18.253 8.75623 18.618 10.2108 18.6185H10.2143C10.214 18.6185 10.2146 18.6185 10.2143 18.6185C15.004 18.6185 18.903 14.7197 18.905 9.92789C18.9059 7.6057 18.0027 5.42222 16.3619 3.77958ZM10.2143 17.1507H10.2113C8.91522 17.1502 7.64392 16.802 6.53486 16.1439L6.27112 15.9873L3.5372 16.7045L4.26696 14.0389L4.09519 13.7656C3.37214 12.6156 2.99026 11.2863 2.99082 9.92143C2.99237 5.93879 6.23284 2.69867 10.2172 2.69867C12.1465 2.69927 13.9602 3.45164 15.324 4.81699C16.6878 6.18235 17.4384 7.99721 17.4376 9.92729C17.436 13.9103 14.1956 17.1507 10.2143 17.1507Z" />
            <path
                d="M14.1765 11.7408C13.9593 11.6321 12.8917 11.1068 12.6927 11.0343C12.4936 10.9618 12.3488 10.9256 12.2041 11.143C12.0594 11.3603 11.6432 11.8495 11.5165 11.9945C11.3899 12.1393 11.2631 12.1576 11.046 12.0488C10.8289 11.9401 10.1292 11.7108 9.29979 10.971C8.65421 10.3951 8.21843 9.68409 8.09171 9.46664C7.96506 9.24929 8.07823 9.13178 8.18696 9.02348C8.28464 8.92615 8.40413 8.76987 8.51271 8.64304C8.62126 8.51629 8.65746 8.42563 8.72985 8.28081C8.80224 8.13585 8.76608 8.00903 8.71175 7.90038C8.65746 7.79169 8.22319 6.72284 8.04225 6.28797C7.86593 5.8646 7.68693 5.92197 7.55362 5.91523C7.42715 5.90891 7.28219 5.90761 7.13745 5.90761C6.9927 5.90761 6.7574 5.96197 6.5584 6.17932C6.35936 6.39673 5.79834 6.92212 5.79834 7.99086C5.79834 9.05974 6.57646 10.0923 6.68504 10.2372C6.79359 10.3822 8.21627 12.5755 10.3946 13.5161C10.9127 13.7399 11.3172 13.8735 11.6325 13.9735C12.1527 14.1388 12.6261 14.1155 13.0003 14.0595C13.4175 13.9972 14.2851 13.5343 14.466 13.0271C14.647 12.5198 14.647 12.0849 14.5927 11.9944C14.5384 11.9039 14.3936 11.8495 14.1765 11.7408Z" />
        </g>
    </symbol>
</svg>