<svg width="183" height="86" viewBox="0 0 183 86" fill="none" xmlns="http://www.w3.org/2000/svg">
<g clip-path="url(#clip0_732_156)">
<path d="M117.528 28.1692V29.6164C117.528 42.4082 107.304 52.7802 94.6881 52.7802H93.2551V47.3716C103.327 46.5117 111.346 38.3812 112.194 28.1692H117.528ZM93.2546 0V5.40864C103.327 6.26857 111.346 14.399 112.194 24.6111H117.528V0H93.2551H93.2546ZM88.3179 0C75.7014 0 65.4715 10.372 65.4715 23.1638V24.6111H70.806C71.6542 14.399 79.6792 6.26857 89.7453 5.40864V0H88.3179ZM107.877 26.3899C107.877 26.9889 107.848 27.588 107.783 28.1692C106.97 35.9199 100.899 42.0757 93.2542 42.9002C92.675 42.9653 92.0901 42.995 91.4993 42.995C90.9084 42.995 90.3175 42.9653 89.7444 42.9002C82.0999 42.0757 76.0284 35.9203 75.2152 28.1692C75.151 27.588 75.1217 26.9889 75.1217 26.3899C75.1217 25.7908 75.151 25.1917 75.2152 24.6106C76.028 16.8599 82.0994 10.7041 89.7444 9.87952C90.3175 9.81442 90.9084 9.7847 91.4993 9.7847C92.0901 9.7847 92.675 9.81442 93.2542 9.87952C100.899 10.7041 106.97 16.8594 107.783 24.6106C107.848 25.1917 107.877 25.7908 107.877 26.3899ZM104.66 26.0932C104.66 25.5592 104.531 25.0554 104.303 24.6106C103.776 23.5549 102.694 22.8313 101.443 22.8313H95.0086V16.308C95.0086 15.0391 94.2949 13.9419 93.2537 13.4023C92.815 13.1711 92.3181 13.0466 91.7915 13.0466H91.2066C90.68 13.0466 90.1831 13.1772 89.7444 13.4023C88.7031 13.9419 87.9895 15.0391 87.9895 16.308V22.8313H81.5556C80.3096 22.8313 79.2275 23.5549 78.6952 24.6106C78.4673 25.0554 78.3384 25.5592 78.3384 26.0932V26.6861C78.3384 27.2201 78.4673 27.7239 78.6952 28.1687C79.2275 29.2244 80.3096 29.948 81.5556 29.948H87.9895V36.4713C87.9895 37.7402 88.7031 38.8374 89.7444 39.377C90.1831 39.6025 90.68 39.7327 91.2066 39.7327H91.7915C92.3181 39.7327 92.815 39.6082 93.2537 39.377C94.2949 38.8374 95.0086 37.7402 95.0086 36.4713V29.948H101.443C102.694 29.948 103.776 29.2244 104.303 28.1687C104.531 27.7239 104.66 27.2201 104.66 26.6861V26.0932ZM70.8056 28.1687H65.4711V52.7793H89.7444V47.3706C79.6783 46.5107 71.6533 38.3803 70.8051 28.1682L70.8056 28.1687Z" fill="url(#paint0_linear_732_156)"/>
<path d="M12.9713 79.8398H9.6364V70.9288H3.33464V79.8398H-0.000244141V59.2086H3.33464V67.7188H9.6364V59.2086H12.9713V79.8398Z" fill="black"/>
<path d="M28.2886 79.8399H25.264V78.2063C24.8867 78.837 24.3405 79.3337 23.624 79.6965C22.909 80.0592 22.1739 80.2408 21.4206 80.2408C19.3289 80.2408 17.7363 79.4295 16.6435 77.8054C15.72 76.4294 15.2589 74.6246 15.2589 72.3897C15.2589 70.1929 15.7302 68.3976 16.6756 67.0032C17.7522 65.38 19.3298 64.5677 21.409 64.5677C23.1467 64.5677 24.4322 65.2173 25.2636 66.5159V64.998H28.2881V79.8403L28.2886 79.8399ZM25.264 72.476C25.264 71.2344 24.943 70.1358 24.3028 69.1811C23.5864 68.0735 22.6447 67.5183 21.4774 67.5183C20.3273 67.5183 19.4708 68.0735 18.905 69.1811C18.4533 70.0405 18.2267 71.1109 18.2267 72.3897C18.2267 73.6685 18.4533 74.7496 18.905 75.6275C19.4708 76.7549 20.3278 77.3181 21.4774 77.3181C22.5884 77.3181 23.5115 76.7737 24.2465 75.6846C24.9249 74.711 25.264 73.6421 25.264 72.476Z" fill="black"/>
<path d="M43.8041 72.3618C43.8041 74.4439 43.3314 76.2105 42.3874 77.662C41.2718 79.3247 39.7416 80.155 37.7954 80.155C36.1522 80.155 34.8286 79.5252 33.8283 78.2639V86.4881H30.8037V64.9975H33.8283V66.6296C34.762 65.1791 36.0605 64.4526 37.7233 64.4526C39.7588 64.4526 41.3192 65.2828 42.4023 66.9456C43.3374 68.3787 43.8041 70.1839 43.8041 72.3618ZM40.8363 72.3047C40.8363 71.1387 40.6018 70.0882 40.1324 69.1518C39.5322 68.0056 38.7157 67.4334 37.6842 67.4334C36.4262 67.4334 35.4511 67.9395 34.7564 68.9513C34.1377 69.8306 33.8283 70.9288 33.8283 72.2462C33.8283 73.642 34.1181 74.7878 34.7001 75.6846C35.3948 76.7162 36.3988 77.2327 37.7131 77.2327C38.725 77.2327 39.5322 76.6402 40.1324 75.4558C40.6013 74.501 40.8363 73.451 40.8363 72.3047Z" fill="black"/>
<path d="M56.3797 79.8398H52.8759L48.8348 72.1891V79.8398H45.867V64.9974H48.8348V71.9311L53.0448 64.9974H56.2648L51.8305 72.1901L56.3797 79.8398Z" fill="black"/>
<path d="M69.8058 72.3325C69.8058 74.5293 69.2582 76.3633 68.1658 77.8346C66.9608 79.4389 65.3022 80.2412 63.1923 80.2412C61.0824 80.2412 59.4238 79.4389 58.2189 77.8346C57.1251 76.3633 56.5789 74.5293 56.5789 72.3325C56.5789 70.1745 57.1344 68.3697 58.2463 66.9168C59.4708 65.3309 61.1201 64.5385 63.1923 64.5385C65.2645 64.5385 66.9134 65.3314 68.1384 66.9168C69.2494 68.3697 69.8058 70.1745 69.8058 72.3325ZM66.6687 72.4189C66.6687 71.1386 66.4146 70.0495 65.9052 69.1518C65.2841 68.0824 64.3792 67.5475 63.1923 67.5475C62.0055 67.5475 61.1006 68.0829 60.4795 69.1518C59.97 70.0311 59.716 71.1198 59.716 72.4189C59.716 73.9849 60.0552 75.1798 60.7335 76.0006C61.4118 76.8213 62.2307 77.2331 63.1923 77.2331C63.9456 77.2331 64.6239 76.9742 65.2278 76.4591C65.774 75.9822 66.1606 75.3515 66.3858 74.568C66.5742 73.9571 66.6687 73.2401 66.6687 72.4193V72.4189Z" fill="black"/>
<path d="M82.0422 79.8398H78.9856L76.3234 69.5542L73.6497 79.8398H70.653L74.8077 64.9974H77.8597L82.0422 79.8398Z" fill="black"/>
<path d="M95.8061 72.3325C95.8061 74.5293 95.2585 76.3633 94.1661 77.8346C92.9611 79.4389 91.3025 80.2412 89.1926 80.2412C87.0827 80.2412 85.4241 79.4389 84.2191 77.8346C83.1253 76.3633 82.5791 74.5293 82.5791 72.3325C82.5791 70.1745 83.1346 68.3697 84.2465 66.9168C85.4711 65.3309 87.1204 64.5385 89.1926 64.5385C91.2648 64.5385 92.9136 65.3314 94.1386 66.9168C95.2496 68.3697 95.8061 70.1745 95.8061 72.3325ZM92.6689 72.4189C92.6689 71.1386 92.4149 70.0495 91.9054 69.1518C91.2843 68.0824 90.3794 67.5475 89.1926 67.5475C88.0057 67.5475 87.1008 68.0829 86.4797 69.1518C85.9703 70.0311 85.7163 71.1198 85.7163 72.4189C85.7163 73.9849 86.0554 75.1798 86.7337 76.0006C87.4121 76.8213 88.2309 77.2331 89.1926 77.2331C89.9458 77.2331 90.6241 76.9742 91.228 76.4591C91.7742 75.9822 92.1608 75.3515 92.386 74.568C92.5745 73.9571 92.6689 73.2401 92.6689 72.4193V72.4189Z" fill="black"/>
<path d="M104.991 67.6909H100.808V79.8398H97.7275V64.9974H104.991L104.991 67.6909Z" fill="black"/>
<path d="M117.849 79.8398H114.825V70.066L109.479 79.8398H106.629V64.9974H109.654V74.4812L114.966 64.9974H117.849V79.8398Z" fill="black"/>
<path d="M129.634 79.8398H126.611V73.4213L122.852 79.8398H119.498L123.2 73.8576C122.01 73.4939 121.149 72.968 120.62 72.2802C120.091 71.5924 119.827 70.6363 119.827 69.4131C119.827 66.4692 121.438 64.9979 124.661 64.9979H129.634V79.8403V79.8398ZM126.611 71.7599V67.4904H124.773C123.567 67.4904 122.964 68.1494 122.964 69.4669C122.964 70.3273 123.177 70.9245 123.6 71.258C124.025 71.5924 124.472 71.7604 124.944 71.7604H126.611V71.7599Z" fill="black"/>
<path d="M150.019 65.3989C150.019 67.4428 149.527 69.066 148.544 70.2703C147.486 71.5877 145.963 72.2467 143.978 72.2467H141.851V79.8403H138.517V59.2091H143.603C145.582 59.2091 147.145 59.7445 148.295 60.8148C149.443 61.8842 150.018 63.4125 150.018 65.3994L150.019 65.3989ZM146.684 65.6857C146.684 63.5078 145.582 62.4186 143.378 62.4186H141.851V69.0377H143.576C144.235 69.0377 144.837 68.8674 145.384 68.5259C145.932 68.1853 146.298 67.7216 146.487 67.1339C146.618 66.7178 146.684 66.2348 146.684 65.6857H146.684Z" fill="black"/>
<path d="M163.782 79.8398H159.979L155.191 71.0151V79.8398H151.912V59.2086H157.253C159.25 59.2086 160.838 59.7681 162.015 60.8851C163.193 62.0021 163.782 63.5738 163.782 65.5989C163.782 68.9612 162.18 70.9854 158.977 71.6736L163.782 79.8398ZM160.56 65.6843C160.56 63.5073 159.345 62.4186 156.914 62.4186H155.191V69.1518H157.48C158.252 69.1518 158.959 68.9037 159.599 68.407C160.239 67.9103 160.56 67.0027 160.56 65.6843Z" fill="black"/>
<path d="M183 69.4669C183 72.4472 182.283 74.9302 180.852 76.9171C179.23 79.1521 177.007 80.2705 174.182 80.2705C171.356 80.2705 169.133 79.1525 167.512 76.9171C166.061 74.9118 165.337 72.4283 165.337 69.4669C165.337 66.5635 166.081 64.1092 167.569 62.103C169.208 59.8879 171.412 58.7803 174.182 58.7803C176.97 58.7803 179.174 59.8879 180.796 62.103C182.266 64.0908 183 66.5451 183 69.4669H183ZM179.523 69.4391C179.523 67.5664 179.108 65.9342 178.279 64.5385C177.281 62.8771 175.915 62.0455 174.182 62.0455C172.429 62.0455 171.063 62.8766 170.084 64.5385C169.236 65.9342 168.812 67.5758 168.812 69.4669C168.812 71.3976 169.218 73.0684 170.027 74.4816C171.025 76.1628 172.411 77.0034 174.182 77.0034C175.971 77.0034 177.356 76.1534 178.337 74.4533C179.128 73.059 179.523 71.3872 179.523 69.4391Z" fill="black"/>
</g>
<defs>
<linearGradient id="paint0_linear_732_156" x1="60.7088" y1="44.4154" x2="122.715" y2="9.1073" gradientUnits="userSpaceOnUse">
<stop stop-color="#246893"/>
<stop offset="0.359" stop-color="#456888"/>
<stop offset="0.518" stop-color="#8C6770"/>
<stop offset="0.624" stop-color="#BE6760"/>
<stop offset="1" stop-color="#D0675A"/>
</linearGradient>
<clipPath id="clip0_732_156">
<rect width="183" height="86" fill="white"/>
</clipPath>
</defs>
</svg>
