<svg width="50" height="51" viewBox="0 0 50 51" fill="none" xmlns="http://www.w3.org/2000/svg">
<g id="logo" clip-path="url(#clip0_532_1305)">
<path id="Vector" d="M50.106 26.6856V28.0566C50.106 40.1747 40.2648 50.0004 28.1214 50.0004H26.7422V44.8767C36.4369 44.062 44.1554 36.3598 44.9718 26.6856H50.106ZM26.7422 0V5.12378C36.4369 5.93842 44.1554 13.6406 44.9718 23.3149H50.1064V0H26.7422ZM21.9904 0C9.84655 0 0 9.82572 0 21.9439V23.3149H5.13464C5.95101 13.6406 13.6749 5.93842 23.3638 5.12378V0H21.9904ZM40.8165 25C40.8165 25.5675 40.7883 26.135 40.7265 26.6856C39.9437 34.0281 34.1002 39.8597 26.7417 40.6408C26.1842 40.7025 25.6213 40.7306 25.0526 40.7306C24.4838 40.7306 23.9151 40.7025 23.3634 40.6408C16.0054 39.8597 10.1614 34.0285 9.37859 26.6856C9.31679 26.135 9.28858 25.5675 9.28858 25C9.28858 24.4325 9.31679 23.865 9.37859 23.3144C10.1609 15.9719 16.0049 10.1403 23.3634 9.35919C23.9151 9.29752 24.4838 9.26937 25.0526 9.26937C25.6213 9.26937 26.1842 9.29752 26.7417 9.35919C34.0998 10.1403 39.9437 15.9715 40.7265 23.3144C40.7883 23.865 40.8165 24.4325 40.8165 25ZM37.7199 24.7189C37.7199 24.2131 37.5958 23.7358 37.3764 23.3144C36.8695 22.3143 35.8283 21.6288 34.6233 21.6288H28.4304V15.4491C28.4304 14.247 27.7435 13.2076 26.7413 12.6964C26.319 12.4774 25.8407 12.3595 25.3338 12.3595H24.7709C24.264 12.3595 23.7857 12.4832 23.3634 12.6964C22.3612 13.2076 21.6742 14.247 21.6742 15.4491V21.6288H15.4814C14.2822 21.6288 13.2405 22.3143 12.7282 23.3144C12.5088 23.7358 12.3848 24.2131 12.3848 24.7189V25.2806C12.3848 25.7865 12.5088 26.2637 12.7282 26.6851C13.2405 27.6852 14.2822 28.3707 15.4814 28.3707H21.6742V34.5505C21.6742 35.7525 22.3612 36.7919 23.3634 37.3032C23.7857 37.5168 24.264 37.6401 24.7709 37.6401H25.3338C25.8407 37.6401 26.319 37.5221 26.7413 37.3032C27.7435 36.7919 28.4304 35.7525 28.4304 34.5505V28.3707H34.6233C35.8279 28.3707 36.8695 27.6852 37.3764 26.6851C37.5958 26.2637 37.7199 25.7865 37.7199 25.2806V24.7189ZM5.1342 26.6851H0V49.9996H23.3638V44.8758C13.6749 44.0611 5.95056 36.3594 5.1342 26.6851Z" fill="url(#paint0_linear_532_1305)"/>
</g>
<defs>
<linearGradient id="paint0_linear_532_1305" x1="-4.58428" y1="42.0761" x2="54.6288" y2="7.81704" gradientUnits="userSpaceOnUse">
<stop stop-color="#246893"/>
<stop offset="0.359" stop-color="#456888"/>
<stop offset="0.518" stop-color="#8C6770"/>
<stop offset="0.624" stop-color="#BE6760"/>
<stop offset="1" stop-color="#D0675A"/>
</linearGradient>
<clipPath id="clip0_532_1305">
<rect width="50" height="51" fill="white"/>
</clipPath>
</defs>
</svg>
