<svg width="238" height="51" viewBox="0 0 238 51" fill="none" xmlns="http://www.w3.org/2000/svg">
<g id="logo" clip-path="url(#clip0_532_716)">
<path id="Vector" d="M50.106 27.1856V28.5566C50.106 40.6747 40.2648 50.5004 28.1214 50.5004H26.7422V45.3767C36.4369 44.562 44.1554 36.8598 44.9718 27.1856H50.106ZM26.7422 0.5V5.62378C36.4369 6.43842 44.1554 14.1406 44.9718 23.8149H50.1064V0.5H26.7422ZM21.9904 0.5C9.84655 0.5 0 10.3257 0 22.4439V23.8149H5.13464C5.95101 14.1406 13.6749 6.43842 23.3638 5.62378V0.5H21.9904ZM40.8165 25.5C40.8165 26.0675 40.7883 26.635 40.7265 27.1856C39.9437 34.5281 34.1002 40.3597 26.7417 41.1408C26.1842 41.2025 25.6213 41.2306 25.0526 41.2306C24.4838 41.2306 23.9151 41.2025 23.3634 41.1408C16.0054 40.3597 10.1614 34.5285 9.37859 27.1856C9.31679 26.635 9.28858 26.0675 9.28858 25.5C9.28858 24.9325 9.31679 24.365 9.37859 23.8144C10.1609 16.4719 16.0049 10.6403 23.3634 9.85919C23.9151 9.79752 24.4838 9.76937 25.0526 9.76937C25.6213 9.76937 26.1842 9.79752 26.7417 9.85919C34.0998 10.6403 39.9437 16.4715 40.7265 23.8144C40.7883 24.365 40.8165 24.9325 40.8165 25.5ZM37.7199 25.2189C37.7199 24.7131 37.5958 24.2358 37.3764 23.8144C36.8695 22.8143 35.8283 22.1288 34.6233 22.1288H28.4304V15.9491C28.4304 14.747 27.7435 13.7076 26.7413 13.1964C26.319 12.9774 25.8407 12.8595 25.3338 12.8595H24.7709C24.264 12.8595 23.7857 12.9832 23.3634 13.1964C22.3612 13.7076 21.6742 14.747 21.6742 15.9491V22.1288H15.4814C14.2822 22.1288 13.2405 22.8143 12.7282 23.8144C12.5088 24.2358 12.3848 24.7131 12.3848 25.2189V25.7806C12.3848 26.2865 12.5088 26.7637 12.7282 27.1851C13.2405 28.1852 14.2822 28.8707 15.4814 28.8707H21.6742V35.0505C21.6742 36.2525 22.3612 37.2919 23.3634 37.8032C23.7857 38.0168 24.264 38.1401 24.7709 38.1401H25.3338C25.8407 38.1401 26.319 38.0221 26.7413 37.8032C27.7435 37.2919 28.4304 36.2525 28.4304 35.0505V28.8707H34.6233C35.8279 28.8707 36.8695 28.1852 37.3764 27.1851C37.5958 26.7637 37.7199 26.2865 37.7199 25.7806V25.2189ZM5.1342 27.1851H0V50.4996H23.3638V45.3758C13.6749 44.5611 5.95056 36.8594 5.1342 27.1851Z" fill="url(#paint0_linear_532_716)"/>
<g id="Group">
<path id="Vector_2" d="M73.6302 32.3263H70.4202V23.8846H64.3546V32.3263H61.1446V12.7817H64.3546V20.8436H70.4202V12.7817H73.6302V32.3263Z" fill="black"/>
<path id="Vector_3" d="M88.3736 32.3263H85.4623V30.7788C85.0991 31.3763 84.5734 31.8469 83.8838 32.1905C83.1955 32.5341 82.4879 32.7062 81.7629 32.7062C79.7495 32.7062 78.2167 31.9376 77.1648 30.399C76.2758 29.0955 75.8321 27.3858 75.8321 25.2685C75.8321 23.1875 76.2857 21.4867 77.1957 20.1657C78.2319 18.6281 79.7504 17.8586 81.7517 17.8586C83.4243 17.8586 84.6616 18.4739 85.4619 19.7041V18.2661H88.3731V32.3268L88.3736 32.3263ZM85.4623 25.3503C85.4623 24.1741 85.1533 23.1334 84.5371 22.2289C83.8475 21.1797 82.9411 20.6537 81.8176 20.6537C80.7106 20.6537 79.8861 21.1797 79.3416 22.2289C78.9068 23.0431 78.6887 24.0571 78.6887 25.2685C78.6887 26.48 78.9068 27.5042 79.3416 28.3358C79.8861 29.4038 80.711 29.9374 81.8176 29.9374C82.8869 29.9374 83.7754 29.4217 84.483 28.3899C85.1359 27.4676 85.4623 26.455 85.4623 25.3503Z" fill="black"/>
<path id="Vector_4" d="M103.308 25.2422C103.308 27.2146 102.853 28.8881 101.944 30.2632C100.87 31.8384 99.3974 32.6249 97.5242 32.6249C95.9425 32.6249 94.6685 32.0283 93.7057 30.8334V38.6245H90.7945V18.2657H93.7057V19.8118C94.6045 18.4377 95.8543 17.7495 97.4548 17.7495C99.414 17.7495 100.916 18.536 101.958 20.1112C102.859 21.4688 103.308 23.179 103.308 25.2422ZM100.451 25.1881C100.451 24.0834 100.225 23.0883 99.7736 22.2012C99.1959 21.1153 98.41 20.5733 97.4172 20.5733C96.2063 20.5733 95.2677 21.0528 94.5991 22.0113C94.0035 22.8443 93.7057 23.8846 93.7057 25.1327C93.7057 26.455 93.9847 27.5404 94.5449 28.3899C95.2135 29.3672 96.1799 29.8565 97.445 29.8565C98.419 29.8565 99.1959 29.2952 99.7736 28.1732C100.225 27.2687 100.451 26.2735 100.451 25.1876V25.1881Z" fill="black"/>
<path id="Vector_5" d="M115.412 32.3263H112.04L108.15 25.0786V32.3263H105.293V18.2657H108.15V24.8342L112.202 18.2657H115.302L111.033 25.0795L115.412 32.3263Z" fill="black"/>
<path id="Vector_6" d="M128.335 25.2144C128.335 27.2955 127.808 29.0329 126.757 30.4267C125.597 31.9465 124 32.7066 121.97 32.7066C119.939 32.7066 118.342 31.9465 117.182 30.4267C116.13 29.0329 115.604 27.2955 115.604 25.2144C115.604 23.17 116.139 21.4603 117.209 20.084C118.387 18.5816 119.975 17.8309 121.97 17.8309C123.964 17.8309 125.551 18.582 126.73 20.084C127.8 21.4603 128.335 23.17 128.335 25.2144ZM125.316 25.2962C125.316 24.0834 125.071 23.0516 124.581 22.2012C123.983 21.1882 123.112 20.6814 121.97 20.6814C120.827 20.6814 119.956 21.1886 119.358 22.2012C118.868 23.0342 118.623 24.0656 118.623 25.2962C118.623 26.7798 118.95 27.9117 119.603 28.6893C120.256 29.4668 121.044 29.857 121.97 29.857C122.695 29.857 123.347 29.6116 123.929 29.1236C124.454 28.6719 124.827 28.0744 125.043 27.3322C125.225 26.7535 125.316 26.0742 125.316 25.2967V25.2962Z" fill="black"/>
<path id="Vector_7" d="M140.113 32.3263H137.171L134.609 22.5824L132.035 32.3263H129.151L133.15 18.2657H136.087L140.113 32.3263Z" fill="black"/>
<path id="Vector_8" d="M153.361 25.2144C153.361 27.2955 152.834 29.0329 151.783 30.4267C150.623 31.9465 149.027 32.7066 146.996 32.7066C144.965 32.7066 143.368 31.9465 142.209 30.4267C141.156 29.0329 140.63 27.2955 140.63 25.2144C140.63 23.17 141.165 21.4603 142.235 20.084C143.414 18.5816 145.001 17.8309 146.996 17.8309C148.99 17.8309 150.577 18.582 151.756 20.084C152.826 21.4603 153.361 23.17 153.361 25.2144ZM150.342 25.2962C150.342 24.0834 150.097 23.0516 149.607 22.2012C149.009 21.1882 148.138 20.6814 146.996 20.6814C145.853 20.6814 144.982 21.1886 144.384 22.2012C143.894 23.0342 143.65 24.0656 143.65 25.2962C143.65 26.7798 143.976 27.9117 144.629 28.6893C145.282 29.4668 146.07 29.857 146.996 29.857C147.721 29.857 148.374 29.6116 148.955 29.1236C149.481 28.6719 149.853 28.0744 150.069 27.3322C150.251 26.7535 150.342 26.0742 150.342 25.2967V25.2962Z" fill="black"/>
<path id="Vector_9" d="M162.202 20.8173H158.176V32.3263H155.211V18.2657H162.202V20.8173H162.202Z" fill="black"/>
<path id="Vector_10" d="M174.579 32.3263H171.668V23.0672L166.522 32.3263H163.779V18.2657H166.69V27.2499L171.804 18.2657H174.579V32.3263Z" fill="black"/>
<path id="Vector_11" d="M185.922 32.3263H183.013V26.2458L179.394 32.3263H176.166L179.729 26.6592C178.584 26.3146 177.756 25.8164 177.246 25.1648C176.737 24.5133 176.483 23.6075 176.483 22.4488C176.483 19.6599 178.034 18.2661 181.135 18.2661H185.922V32.3263ZM183.013 24.672V20.6274H181.244C180.082 20.6274 179.503 21.2516 179.503 22.4997C179.503 23.3148 179.707 23.8805 180.115 24.1965C180.523 24.5133 180.954 24.6724 181.408 24.6724L183.013 24.672Z" fill="black"/>
<path id="Vector_12" d="M205.543 18.6459C205.543 20.5822 205.069 22.1199 204.123 23.2607C203.105 24.5088 201.639 25.1331 199.729 25.1331H197.681V32.3268H194.472V12.7817H199.367C201.272 12.7817 202.776 13.2889 203.883 14.3028C204.989 15.3159 205.543 16.7637 205.543 18.6459H205.543ZM202.333 18.9176C202.333 16.8545 201.273 15.8226 199.151 15.8226H197.681V22.0931H199.342C199.976 22.0931 200.556 21.9318 201.082 21.6082C201.609 21.2856 201.962 20.8463 202.143 20.2895C202.269 19.8954 202.334 19.4378 202.334 18.9176H202.333Z" fill="black"/>
<path id="Vector_13" d="M218.79 32.3263H215.13L210.521 23.9663V32.3263H207.365V12.7817H212.506C214.428 12.7817 215.956 13.3117 217.09 14.3699C218.223 15.428 218.79 16.917 218.79 18.8354C218.79 22.0207 217.248 23.9382 214.166 24.5902L218.79 32.3263ZM215.689 18.9163C215.689 16.854 214.52 15.8226 212.18 15.8226H210.521V22.2012H212.725C213.468 22.2012 214.148 21.9662 214.764 21.4956C215.381 21.0251 215.689 20.1653 215.689 18.9163Z" fill="black"/>
<path id="Vector_14" d="M237.288 22.4997C237.288 25.323 236.598 27.6753 235.221 29.5576C233.66 31.6748 231.52 32.7343 228.801 32.7343C226.081 32.7343 223.941 31.6753 222.381 29.5576C220.984 27.6579 220.287 25.3052 220.287 22.4997C220.287 19.7493 221.003 17.4242 222.435 15.5237C224.013 13.4252 226.134 12.3759 228.801 12.3759C231.484 12.3759 233.606 13.4252 235.167 15.5237C236.581 17.4068 237.288 19.7318 237.288 22.4997ZM233.942 22.4734C233.942 20.6993 233.543 19.1531 232.745 17.8309C231.784 16.257 230.469 15.4692 228.801 15.4692C227.114 15.4692 225.799 16.2565 224.856 17.8309C224.04 19.1531 223.632 20.7082 223.632 22.4997C223.632 24.3288 224.023 25.9116 224.802 27.2504C225.762 28.843 227.096 29.6393 228.801 29.6393C230.523 29.6393 231.856 28.8341 232.8 27.2236C233.561 25.9026 233.942 24.3189 233.942 22.4734Z" fill="black"/>
</g>
</g>
<defs>
<linearGradient id="paint0_linear_532_716" x1="-4.58428" y1="42.5761" x2="54.6288" y2="8.31704" gradientUnits="userSpaceOnUse">
<stop stop-color="#246893"/>
<stop offset="0.359" stop-color="#456888"/>
<stop offset="0.518" stop-color="#8C6770"/>
<stop offset="0.624" stop-color="#BE6760"/>
<stop offset="1" stop-color="#D0675A"/>
</linearGradient>
<clipPath id="clip0_532_716">
<rect width="237.288" height="50" fill="white" transform="translate(0 0.5)"/>
</clipPath>
</defs>
</svg>
