<svg width="40" height="40" viewBox="0 0 40 40" fill="none" xmlns="http://www.w3.org/2000/svg">
<g id="_&#195;&#144;&#194;&#161;&#195;&#144;&#194;&#187;&#195;&#144;&#194;&#190;&#195;&#144;&#194;&#185;_2" clip-path="url(#clip0_506_2167)">
<path id="Vector" d="M31.0019 40C30.5701 40 30.22 39.6433 30.22 39.2032V37.1741C30.22 36.0021 30.6043 34.8434 31.3022 33.9118L37.9994 24.9724C38.2813 24.5961 38.4366 24.1282 38.4366 23.6546V7.36163C38.4366 6.5222 37.7663 5.83918 36.9426 5.83918C36.1189 5.83918 35.4487 6.5222 35.4487 7.36163V16.2457C35.4487 16.6858 35.0986 17.0425 34.6668 17.0425C34.2349 17.0425 33.8848 16.6858 33.8848 16.2457V7.36163C33.8848 5.64338 35.2566 4.24546 36.9426 4.24546C38.6287 4.24546 40.0004 5.64338 40.0004 7.36163V23.6546C40.0004 24.4754 39.7312 25.2868 39.2424 25.9394L32.5452 34.8787C32.0544 35.534 31.7839 36.3493 31.7839 37.1739V39.2029C31.7839 39.643 31.4338 39.9998 31.0019 39.9998V40ZM22.0142 40C21.5823 40 21.2322 39.6433 21.2322 39.2032V32.791C21.2322 30.5033 22.1643 28.2862 23.7894 26.7082L31.8042 18.925C32.6471 17.8039 34.1167 17.4187 35.4053 17.9906C36.0106 18.2592 36.5152 18.736 36.8265 19.3329C37.3624 20.3618 37.2927 21.5887 36.6448 22.5352C36.6296 22.5575 36.6133 22.5787 36.5961 22.5992L31.8259 28.2443C31.5439 28.5781 31.05 28.615 30.7231 28.3283C30.3958 28.041 30.359 27.5381 30.6407 27.2045L35.3821 21.5933C35.6741 21.1436 35.6989 20.5674 35.4451 20.0802C35.2992 19.8004 35.0633 19.5772 34.7809 19.4518C34.146 19.1699 33.4235 19.3646 33.0231 19.9249C32.9954 19.9636 32.9644 19.9998 32.9304 20.0328L24.8682 27.8621C23.5512 29.1409 22.7961 30.9375 22.7961 32.7912V39.2034C22.7961 39.6435 22.446 40 22.0142 40ZM17.9863 40C17.5544 40 17.2044 39.6433 17.2044 39.2032V32.791C17.2044 30.9372 16.449 29.1407 15.1322 27.8618L7.06981 20.0326C7.03585 19.9996 7.0048 19.9634 6.97709 19.9247C6.57674 19.3644 5.85401 19.1699 5.21953 19.4516C4.93714 19.5768 4.70122 19.8001 4.55533 20.0802C4.30154 20.5672 4.32633 21.1434 4.61833 21.5933L9.35976 27.2045C9.64148 27.5381 9.60462 28.041 9.27732 28.3283C8.95047 28.6154 8.45652 28.5781 8.17457 28.2443L3.40432 22.5992C3.3869 22.5787 3.37081 22.5573 3.35562 22.5352C2.70773 21.5885 2.63825 20.3613 3.17421 19.3329C3.48542 18.736 3.98988 18.2592 4.59532 17.9906C5.88373 17.4184 7.35332 17.8037 8.19624 18.925L16.2113 26.7082C17.8364 28.2864 18.7685 30.5035 18.7685 32.791V39.2032C18.7685 39.6433 18.4181 40 17.9863 40ZM8.99851 40C8.56666 40 8.21657 39.6433 8.21657 39.2032V37.1741C8.21657 36.3495 7.94625 35.5342 7.45519 34.879L0.75803 25.9398C0.269209 25.2871 0 24.4756 0 23.6549V7.36163C0 5.64338 1.37174 4.24546 3.05781 4.24546C4.74389 4.24546 6.11563 5.64338 6.11563 7.36163V16.2457C6.11563 16.6858 5.76554 17.0425 5.33369 17.0425C4.90184 17.0425 4.55176 16.6858 4.55176 16.2457V7.36163C4.55176 6.5222 3.88153 5.83918 3.05781 5.83918C2.2341 5.83918 1.56387 6.5222 1.56387 7.36163V23.6546C1.56387 24.128 1.71914 24.5961 2.00108 24.9724L8.6978 33.9116C9.39573 34.8432 9.78022 36.0019 9.78022 37.1739V39.2029C9.78022 39.643 9.43014 39.9998 8.99828 39.9998L8.99851 40ZM19.9762 18.6945C19.4983 18.6945 19.0522 18.5017 18.72 18.1515L10.5414 9.52954C10.5108 9.49721 10.4828 9.4626 10.458 9.42527C9.78312 8.4194 9.42634 7.24347 9.42634 6.02473C9.42634 2.70252 12.0787 -0.000427246 15.3387 -0.000427246C17.1599 -0.000427246 18.8683 0.867693 19.976 2.28997C21.0836 0.86792 22.7918 -0.000427246 24.6133 -0.000427246C27.8733 -0.000427246 30.5256 2.70252 30.5256 6.02473C30.5256 7.24347 30.1688 8.41918 29.4939 9.42527C29.4691 9.46238 29.4412 9.49721 29.4106 9.52954L21.232 18.1515C20.8998 18.5017 20.4539 18.6945 19.9758 18.6945H19.9762ZM11.7138 8.47245L19.8446 17.0439C19.8893 17.091 19.9409 17.1008 19.9762 17.1008C20.0115 17.1008 20.0633 17.091 20.1078 17.0439L28.2386 8.47245C28.712 7.74458 28.9618 6.89991 28.9618 6.02496C28.9618 3.58156 27.0112 1.59352 24.6133 1.59352C22.9411 1.59352 21.3982 2.58891 20.6829 4.12912C20.5535 4.40756 20.2783 4.58515 19.976 4.58515C19.6737 4.58515 19.3985 4.40756 19.2691 4.12912C18.5538 2.58868 17.0109 1.59352 15.3387 1.59352C12.941 1.59352 10.9902 3.58134 10.9902 6.02496C10.9902 6.89968 11.24 7.74435 11.7134 8.47245H11.7138Z" fill="url(#paint0_linear_506_2167)"/>
</g>
<defs>
<linearGradient id="paint0_linear_506_2167" x1="26.2654" y1="-0.000436494" x2="3.16839" y2="6.03874" gradientUnits="userSpaceOnUse">
<stop stop-color="#CC675B"/>
<stop offset="0.0001" stop-color="#CC675B"/>
<stop offset="1" stop-color="#2C6890"/>
</linearGradient>
<clipPath id="clip0_506_2167">
<rect width="40" height="40" fill="white"/>
</clipPath>
</defs>
</svg>
