<svg width="40" height="40" viewBox="0 0 40 40" fill="none" xmlns="http://www.w3.org/2000/svg">
<g id="_&#195;&#144;&#194;&#161;&#195;&#144;&#194;&#187;&#195;&#144;&#194;&#190;&#195;&#144;&#194;&#185;_5" clip-path="url(#clip0_506_2175)">
<path id="Vector" d="M33.2011 39.5C33.036 39.5 32.8713 39.4541 32.7266 39.3631L28.9884 37.0079L25.1972 39.3658C24.9228 39.5365 24.5771 39.5454 24.2946 39.388C24.012 39.2311 23.8368 38.933 23.8368 38.6097V32.1488H2.01433C0.903668 32.1488 0 31.2449 0 30.134V2.51478C0 1.40387 0.903668 0.5 2.01433 0.5H37.9854C39.0963 0.5 40 1.40387 40 2.51478V30.1336C40 31.2445 39.0963 32.1484 37.9854 32.1484H34.0912V38.6093C34.0912 38.9336 33.9149 39.2322 33.6311 39.3889C33.4969 39.463 33.3487 39.4998 33.2009 39.4998L33.2011 39.5ZM25.6174 31.2581V37.0072L28.5212 35.2013C28.8108 35.0212 29.1774 35.0223 29.4658 35.2039L32.3108 36.9963V28.5685C31.3286 29.1206 30.1961 29.4357 28.9913 29.4357C27.7642 29.4357 26.6121 29.1088 25.6172 28.5376V31.2583L25.6174 31.2581ZM34.0914 30.3676H37.9857C38.1148 30.3676 38.2196 30.2627 38.2196 30.1338V2.51478C38.2196 2.38588 38.1148 2.28103 37.9857 2.28103H2.01433C1.88546 2.28103 1.78063 2.38588 1.78063 2.51478V30.1336C1.78063 30.2625 1.88546 30.3673 2.01433 30.3673H23.8366V27.064C22.8129 25.8736 22.1937 24.3261 22.1937 22.6364C22.1937 18.8873 25.2431 15.8373 28.9913 15.8373C32.7395 15.8373 35.7888 18.8873 35.7888 22.6364C35.7888 24.3557 35.1473 25.9281 34.0914 27.1266V30.3676ZM28.9913 17.6185C26.2251 17.6185 23.9744 19.8695 23.9744 22.6366C23.9744 25.4036 26.2248 27.6546 28.9913 27.6546C31.7577 27.6546 34.0082 25.4036 34.0082 22.6366C34.0082 19.8695 31.7577 17.6185 28.9913 17.6185ZM13.9761 26.9017H5.15625C4.66457 26.9017 4.26594 26.503 4.26594 26.0112C4.26594 25.5194 4.66457 25.1207 5.15625 25.1207H13.9761C14.4678 25.1207 14.8665 25.5194 14.8665 26.0112C14.8665 26.503 14.4678 26.9017 13.9761 26.9017ZM26.4276 12.141H13.3418C12.8501 12.141 12.4515 11.7423 12.4515 11.2505C12.4515 10.7587 12.8501 10.36 13.3418 10.36H26.4276C26.9193 10.36 27.3179 10.7587 27.3179 11.2505C27.3179 11.7423 26.9193 12.141 26.4276 12.141ZM30.578 7.06709H9.31045C8.81878 7.06709 8.42014 6.66836 8.42014 6.17657C8.42014 5.68479 8.81878 5.28606 9.31045 5.28606H30.5783C31.0699 5.28606 31.4686 5.68479 31.4686 6.17657C31.4686 6.66836 31.0699 7.06709 30.5783 7.06709H30.578Z" fill="url(#paint0_linear_506_2175)"/>
</g>
<defs>
<linearGradient id="paint0_linear_506_2175" x1="26.2651" y1="0.499991" x2="3.24487" y2="6.67343" gradientUnits="userSpaceOnUse">
<stop stop-color="#CC675B"/>
<stop offset="0.0001" stop-color="#CC675B"/>
<stop offset="1" stop-color="#2C6890"/>
</linearGradient>
<clipPath id="clip0_506_2175">
<rect width="40" height="39" fill="white" transform="translate(0 0.5)"/>
</clipPath>
</defs>
</svg>
