<svg width="49" height="48" viewBox="0 0 49 48" fill="none" xmlns="http://www.w3.org/2000/svg">
<g id="_&#195;&#144;&#194;&#161;&#195;&#144;&#194;&#187;&#195;&#144;&#194;&#190;&#195;&#144;&#194;&#185;_2" clip-path="url(#clip0_532_381)">
<path id="Vector" d="M43.8455 39.315H4.82103C2.3465 39.315 0.333252 37.3017 0.333252 34.827V12.4878C0.333252 10.0133 2.3465 8 4.82103 8H43.8455C46.32 8 48.3333 10.0133 48.3333 12.4878V34.827C48.3333 37.3015 46.32 39.315 43.8455 39.315ZM4.82103 9.20542C3.01109 9.20542 1.53867 10.678 1.53867 12.4878V34.827C1.53867 36.6371 3.01109 38.1096 4.82103 38.1096H43.8455C45.6554 38.1096 47.1278 36.6371 47.1278 34.827V12.4878C47.1278 10.6778 45.6554 9.20542 43.8455 9.20542H4.82103ZM14.0308 25.8906H8.58475C7.74558 25.8906 7.06291 25.208 7.06291 24.3686V20.0325C7.06291 19.1933 7.74558 18.5107 8.58475 18.5107H14.0308C14.87 18.5107 15.5529 19.1933 15.5529 20.0325V24.3686C15.5529 25.208 14.8702 25.8906 14.0308 25.8906ZM8.58475 19.7161C8.41016 19.7161 8.26833 19.8581 8.26833 20.0325V24.3686C8.26833 24.5432 8.41037 24.6852 8.58475 24.6852H14.0308C14.2054 24.6852 14.3475 24.5432 14.3475 24.3686V20.0325C14.3475 19.8579 14.2054 19.7161 14.0308 19.7161H8.58475ZM31.7619 24.9321C32.3231 24.0956 32.6196 23.121 32.6196 22.1139C32.6196 21.1202 32.3305 20.1567 31.7832 19.3271C31.6 19.0493 31.2261 18.9725 30.9481 19.156C30.6702 19.3392 30.5937 19.7131 30.7769 19.9909C31.1938 20.6227 31.414 21.3566 31.414 22.1137C31.414 22.8809 31.188 23.6234 30.7608 24.2607C30.5754 24.5371 30.6493 24.9114 30.9258 25.0969C31.0289 25.1662 31.1456 25.1991 31.2609 25.1991C31.4552 25.1991 31.6458 25.1055 31.7619 24.9321ZM34.489 26.2653C35.2402 25.0113 35.6374 23.5758 35.6374 22.1139C35.6374 20.6384 35.2334 19.1917 34.4695 17.9298C34.2971 17.6452 33.9263 17.554 33.6418 17.7265C33.3569 17.8989 33.2659 18.2696 33.4383 18.5542C34.0884 19.6277 34.432 20.8586 34.432 22.1139C34.432 23.3576 34.094 24.5791 33.4552 25.6457C33.284 25.9314 33.3768 26.3015 33.6623 26.4724C33.7593 26.5307 33.8662 26.5582 33.9715 26.5582C34.1764 26.5582 34.3763 26.4538 34.489 26.2653ZM37.2938 27.7227C38.2752 26.0194 38.794 24.0801 38.794 22.1139C38.794 20.1287 38.2658 18.1731 37.2665 16.4582C37.0991 16.1707 36.7303 16.0733 36.4422 16.2408C36.1547 16.4084 36.0575 16.7775 36.225 17.0652C37.1168 18.596 37.5883 20.3419 37.5883 22.1139C37.5883 23.8691 37.1253 25.6003 36.2491 27.1208C36.083 27.4093 36.182 27.7779 36.4705 27.9441C36.5653 27.9985 36.6688 28.0246 36.7709 28.0246C36.9794 28.0246 37.1821 27.9163 37.2938 27.7227ZM40.2379 29.2118C41.4491 27.048 42.0894 24.5936 42.0894 22.1139C42.0894 19.6122 41.4385 17.1387 40.2069 14.9611C40.0432 14.6714 39.6751 14.5691 39.3856 14.7331C39.0959 14.8968 38.9939 15.2647 39.1576 15.5544C40.2869 17.5513 40.884 19.8195 40.884 22.1137C40.884 24.3877 40.2967 26.6384 39.1859 28.6225C39.0234 28.913 39.1271 29.2803 39.4174 29.443C39.5106 29.495 39.6116 29.5199 39.7113 29.5199C39.9224 29.5199 40.1274 29.4088 40.2379 29.2118ZM24.3982 32.1212C24.3982 31.7883 24.1284 31.5185 23.7955 31.5185H7.31866C6.98576 31.5185 6.71595 31.7883 6.71595 32.1212C6.71595 32.4541 6.98576 32.724 7.31866 32.724H23.7955C24.1284 32.724 24.3982 32.4541 24.3982 32.1212ZM32.8623 32.1212C32.8623 31.7883 32.5925 31.5185 32.2596 31.5185H26.9176C26.5847 31.5185 26.3149 31.7883 26.3149 32.1212C26.3149 32.4541 26.5847 32.724 26.9176 32.724H32.2596C32.5925 32.724 32.8623 32.4541 32.8623 32.1212Z" fill="url(#paint0_linear_532_381)"/>
</g>
<defs>
<linearGradient id="paint0_linear_532_381" x1="31.8513" y1="7.99999" x2="6.33856" y2="18.2252" gradientUnits="userSpaceOnUse">
<stop stop-color="#CC675B"/>
<stop offset="0.0001" stop-color="#CC675B"/>
<stop offset="1" stop-color="#2C6890"/>
</linearGradient>
<clipPath id="clip0_532_381">
<rect width="48" height="48" fill="white" transform="translate(0.333252)"/>
</clipPath>
</defs>
</svg>
