<svg width="91" height="90" viewBox="0 0 91 90" fill="none" xmlns="http://www.w3.org/2000/svg">
<g id="Layer_1" clip-path="url(#clip0_532_298)">
<path id="Vector" d="M42.4731 23.5352H83.4958C85.8029 23.5352 87.673 25.4053 87.673 27.7124C87.673 27.7146 87.673 27.7174 87.673 27.7196V85.1014C87.673 87.4092 85.8036 89.2815 83.4958 89.2858H42.4731M75.2984 30.0046V35.5814M75.2984 41.8151V47.3919M75.2984 53.6185V59.1953M75.2984 65.429V71.0058M75.2984 77.2324V82.8164M49.8921 30.0046V35.5814M49.8921 41.8151V47.3919M49.8921 53.6185V59.1953M49.8921 65.429V71.0058M49.8921 77.2324V82.8164M62.5953 30.2474V31.6755M62.5953 35.3386V36.7667M62.5953 40.4298V41.8579M62.5953 45.5211V46.942M62.5953 50.6052V52.0333M62.5953 55.6964V57.1245M62.5953 60.7877V62.2158M62.5953 65.8718V67.2999M62.5953 70.963V72.3911M62.5953 76.0542V77.4824M62.5953 81.1383V82.5665M33.9115 23.5352H38.5172M38.5172 23.5352V84.7301C38.5093 87.2407 36.4721 89.2715 33.9615 89.2715H7.76267C5.24918 89.2672 3.21411 87.2293 3.21411 84.7158V23.5352M38.5172 23.5352L30.7268 13.01M3.21411 23.5352H28.3061M3.21411 23.5352L11.0045 13.01M11.0045 13.01H30.7268M11.0045 13.01V9.89667M30.7268 13.01V9.89667M12.6397 0.713867V9.89667M29.0916 0.713867V9.89667M20.8656 0.713867V9.89667M7.81979 37.7164V33.4963H33.9115V72.8553H17.5167M7.81979 43.1575V41.2796M13.2466 72.8553H7.81979V46.7635M79.6184 35.5814H70.9855C69.4474 35.5857 68.1978 34.3418 68.1935 32.8037C68.1935 32.8015 68.1935 32.7987 68.1935 32.7965C68.1935 31.2549 69.4438 30.0046 70.9855 30.0046H79.6184C81.1601 30.0046 82.4104 31.2549 82.4104 32.7965C82.4104 34.3346 81.1636 35.5814 79.6256 35.5814C79.6234 35.5814 79.6206 35.5814 79.6184 35.5814ZM70.7498 41.8151H79.8541C81.2658 41.8151 82.4104 42.9597 82.4104 44.3714V44.8356C82.4104 46.2473 81.2658 47.3919 79.8541 47.3919H70.7498C69.3381 47.3919 68.1935 46.2473 68.1935 44.8356V44.3714C68.1935 42.9597 69.3381 41.8151 70.7498 41.8151ZM79.6184 59.1953H70.9855C69.4502 59.1996 68.2013 57.96 68.1935 56.4248C68.1935 54.8831 69.4438 53.6328 70.9855 53.6328H79.6184C81.1601 53.6328 82.4104 54.8831 82.4104 56.4248C82.4025 57.96 81.1537 59.1996 79.6184 59.1953ZM70.7498 65.429H79.8541C81.2658 65.429 82.4104 66.5737 82.4104 67.9854V68.4495C82.4104 69.8612 81.2658 71.0058 79.8541 71.0058H70.7498C69.3381 71.0058 68.1935 69.8612 68.1935 68.4495V67.9854C68.1935 66.5737 69.3381 65.429 70.7498 65.429ZM79.6184 82.8449H70.9855C69.4438 82.8449 68.1935 81.5946 68.1935 80.053C68.1935 78.5113 69.4438 77.261 70.9855 77.261H79.6184C81.1601 77.261 82.4104 78.5113 82.4104 80.053C82.4104 81.5946 81.1601 82.8449 79.6184 82.8449ZM54.2051 35.5814H45.5721C44.034 35.5857 42.7844 34.3418 42.7801 32.8037C42.7801 32.8015 42.7801 32.7987 42.7801 32.7965C42.7801 31.2549 44.0304 30.0046 45.5721 30.0046H54.2051C55.7467 30.0046 56.997 31.2549 56.997 32.7965C56.997 34.3346 55.7503 35.5814 54.2122 35.5814C54.2101 35.5814 54.2072 35.5814 54.2051 35.5814ZM45.3365 41.8151H54.4407C55.8524 41.8151 56.997 42.9597 56.997 44.3714V44.8356C56.997 46.2473 55.8524 47.3919 54.4407 47.3919H45.3365C43.9248 47.3919 42.7801 46.2473 42.7801 44.8356V44.3714C42.7801 42.9597 43.9248 41.8151 45.3365 41.8151ZM54.2051 59.1953H45.5721C44.0369 59.1996 42.788 57.96 42.7801 56.4248C42.7801 54.8831 44.0304 53.6328 45.5721 53.6328H54.2051C55.7467 53.6328 56.997 54.8831 56.997 56.4248C56.9892 57.96 55.7403 59.1996 54.2051 59.1953ZM45.3365 65.429H54.4407C55.8524 65.429 56.997 66.5737 56.997 67.9854V68.4495C56.997 69.8612 55.8524 71.0058 54.4407 71.0058H45.3365C43.9248 71.0058 42.7801 69.8612 42.7801 68.4495V67.9854C42.7801 66.5737 43.9248 65.429 45.3365 65.429ZM54.2051 82.8449H45.5721C44.0304 82.8449 42.7801 81.5946 42.7801 80.053C42.7801 78.5113 44.0304 77.261 45.5721 77.261H54.2051C55.7467 77.261 56.997 78.5113 56.997 80.053C56.997 81.5946 55.7467 82.8449 54.2051 82.8449ZM7.81979 0.713867H33.9115V9.88953H7.81979V0.713867ZM29.0916 50.4552H23.2935V44.6571H18.4378V50.4552H12.6397V55.318H18.4378V61.1161H23.2935V55.318H29.0916V50.4552Z" stroke="url(#paint0_linear_532_298)" stroke-width="2" stroke-linecap="round" stroke-linejoin="round"/>
</g>
<defs>
<linearGradient id="paint0_linear_532_298" x1="58.6721" y1="0.713847" x2="9.61928" y2="12.9442" gradientUnits="userSpaceOnUse">
<stop stop-color="#CC675B"/>
<stop offset="0.0001" stop-color="#CC675B"/>
<stop offset="1" stop-color="#2C6890"/>
</linearGradient>
<clipPath id="clip0_532_298">
<rect width="90" height="90" fill="white" transform="translate(0.5)"/>
</clipPath>
</defs>
</svg>
