<svg width="52" height="90" viewBox="0 0 52 90" fill="none" xmlns="http://www.w3.org/2000/svg">
<g id="icon2" clip-path="url(#clip0_532_548)">
<path id="Vector" d="M4.13165 68.299C2.41201 66.7709 1.42414 64.5584 1.42273 62.2311V31.7188C1.43047 30.3243 2.54007 29.1983 3.90649 29.1983H29.2366C30.6087 29.1983 31.7204 30.3329 31.7204 31.7332V62.2311C31.7127 66.6848 28.1686 70.2889 23.8047 70.281C23.7998 70.281 23.7956 70.281 23.7907 70.281H9.32433M8.60664 70.281C8.61086 73.2698 10.9835 75.6912 13.9119 75.6955H19.2031C22.1315 75.6912 24.5041 73.2698 24.5083 70.281M1.74639 57.8435H8.31112M1.74639 48.106H8.31112M1.74639 39.5892H8.31112M1.74639 52.7736H4.13868M1.74639 43.6465H4.13868M27.3721 59.4161V41.88M8.55739 89.2821C12.9761 89.2153 16.5202 85.5343 16.5082 81.0239V75.6955M5.03228 26.1679H27.3721M20.5329 26.1679V20.7318C20.5329 18.8561 19.0427 17.3352 17.2048 17.3352H16.262C14.4241 17.3352 12.9339 18.8561 12.9339 20.7318V22.8143M20.5329 21.213H45.3917M45.3917 89.2821V19.985C45.3917 18.5244 46.5498 17.3395 47.981 17.3352C49.4149 17.3352 50.5773 18.5215 50.5773 19.985V89.2821M16.079 17.2849C16.0826 8.13125 23.3565 0.713955 32.3255 0.718264C41.2889 0.721854 48.5544 8.137 48.5579 17.2849M16.1987 65.6923H30.9112M27.3721 34.225V37.2339M15.8609 45.2694L13.2927 50.3393C12.4962 51.9148 13.1013 53.8508 14.6451 54.6637C15.0968 54.9014 15.5985 55.0242 16.1072 55.0213C17.8444 55.0184 19.2502 53.5793 19.2474 51.8063C19.2467 51.2232 19.0898 50.6516 18.795 50.1526L15.8609 45.2694Z" stroke="url(#paint0_linear_532_548)" stroke-width="2" stroke-linecap="round" stroke-linejoin="round"/>
</g>
<defs>
<linearGradient id="paint0_linear_532_548" x1="33.6989" y1="0.718241" x2="4.00122" y2="5.02803" gradientUnits="userSpaceOnUse">
<stop stop-color="#CC675B"/>
<stop offset="0.0001" stop-color="#CC675B"/>
<stop offset="1" stop-color="#2C6890"/>
</linearGradient>
<clipPath id="clip0_532_548">
<rect width="50.5618" height="90" fill="white" transform="translate(0.719116)"/>
</clipPath>
</defs>
</svg>
