<svg width="104" height="90" viewBox="0 0 104 90" fill="none" xmlns="http://www.w3.org/2000/svg">
<g id="icon" clip-path="url(#clip0_532_544)">
<path id="Vector" d="M41.6684 47.1126H1.47516M51.7044 47.1126H46.4564M14.5581 14.8129V22.6114M18.4674 14.8212H21.9085V18.7163H18.4674V22.6114H21.9085M21.9085 31.0618H18.4674M40.2229 16.5376H45.1752M40.2229 20.4905H45.1752M40.2229 29.0812H45.1752M40.2229 33.0341H45.1752M72.2609 19.8468C70.5748 30.9124 70.5748 42.1702 72.2609 53.2358M60.4263 47.8883H71.2179M60.4263 25.1944H71.2179M102.237 47.8883H75.932C75.1658 40.3432 75.1658 32.7395 75.932 25.1944H89.713M94.23 25.1944H102.237M26.5898 67.5453V79.0986C26.6037 84.6673 31.1002 89.1747 36.6422 89.1747H71.0454C76.5972 89.1747 81.0978 84.6524 81.0978 79.0739V53.2523M7.37192 0.825195H45.8076C49.064 0.825195 51.7044 3.47832 51.7044 6.75037V61.6202C51.7044 64.8922 49.064 67.5453 45.8076 67.5453H7.37192C4.11556 67.5453 1.47516 64.8922 1.47516 61.6202V6.75037C1.47516 3.47832 4.11556 0.825195 7.37192 0.825195ZM31.4681 57.0484C31.4681 59.7419 29.2951 61.9255 26.6144 61.9255C23.9338 61.9255 21.7607 59.7419 21.7607 57.0484C21.7607 54.3548 23.9338 52.1712 26.6144 52.1712C26.6169 52.1712 26.6202 52.1712 26.6226 52.1712C29.3 52.1762 31.4681 54.3581 31.4681 57.0484ZM9.86038 8.75569H31.8706C32.9004 8.75569 33.7349 9.59413 33.7349 10.629V38.2165C33.7349 39.2514 32.9004 40.0898 31.8706 40.0898H9.86038C8.8305 40.0898 7.99609 39.2514 7.99609 38.2165V10.629C7.99609 9.59413 8.8305 8.75569 9.86038 8.75569ZM25.2511 14.8129H28.6922V22.6031H25.2511V14.8129ZM18.4674 27.1667H21.9085V34.9569H18.4674V27.1667ZM25.2511 27.1667H28.6922V34.9569H25.2511V27.1667ZM60.451 19.8468H102.525V53.2358H60.451V19.8468Z" stroke="url(#paint0_linear_532_544)" stroke-width="2" stroke-linecap="round" stroke-linejoin="round"/>
</g>
<defs>
<linearGradient id="paint0_linear_532_544" x1="67.8271" y1="0.825175" x2="10.6076" y2="17.9372" gradientUnits="userSpaceOnUse">
<stop stop-color="#CC675B"/>
<stop offset="0.0001" stop-color="#CC675B"/>
<stop offset="1" stop-color="#2C6890"/>
</linearGradient>
<clipPath id="clip0_532_544">
<rect width="102.692" height="90" fill="white" transform="translate(0.65387)"/>
</clipPath>
</defs>
</svg>
