<svg width="49" height="48" viewBox="0 0 49 48" fill="none" xmlns="http://www.w3.org/2000/svg">
<g id="_&#208;&#160;&#208;&#142;&#208;&#160;&#194;&#187;&#208;&#160;&#209;&#149;&#208;&#160;&#226;&#132;&#150;_4" clip-path="url(#clip0_532_385)">
<path id="Vector" d="M26.2558 35.5389C26.2558 35.8613 25.9945 36.1226 25.6721 36.1226H1.2503C0.927916 36.1226 0.666626 35.8613 0.666626 35.5389V11.9234C0.666626 11.601 0.927916 11.3397 1.2503 11.3397H5.14709C5.46947 11.3397 5.73076 11.601 5.73076 11.9234C5.73076 12.2458 5.46947 12.507 5.14709 12.507H1.83397V34.9553H25.6721C25.9945 34.9553 26.2558 35.2166 26.2558 35.5389ZM48.6478 13.718L45.4541 25.8945C45.3724 26.2066 45.0531 26.393 44.7414 26.3113C44.4296 26.2294 44.243 25.9103 44.3249 25.5986L47.3703 13.9865L40.8256 12.2701L39.6419 17.036C39.5759 17.3015 39.338 17.479 39.0759 17.479C39.0294 17.479 38.9822 17.4733 38.9349 17.4616C38.622 17.384 38.4314 17.0673 38.5092 16.7544L39.6964 11.9738L22.8829 7.56413L17.4396 28.345L25.3861 30.4291C25.698 30.511 25.8846 30.8301 25.8026 31.1417C25.734 31.404 25.4976 31.5775 25.2386 31.5775C25.1896 31.5775 25.1398 31.5713 25.0902 31.5581L16.5812 29.3265L16.5793 29.3263L16.5769 29.3256L4.11418 26.057C3.80231 25.9753 3.61592 25.6562 3.69763 25.3445L9.44369 3.43582C9.5256 3.12414 9.84448 2.93736 10.1564 3.01927L48.231 13.0051C48.3808 13.0444 48.5088 13.1415 48.5869 13.2752C48.6649 13.4088 48.6871 13.5682 48.6478 13.718ZM21.7537 7.26782L10.4246 4.29654L4.9749 25.0756L16.3106 28.0487L21.7537 7.26782ZM15.4384 8.35384L18.8311 9.29452C18.8834 9.30892 18.9357 9.31592 18.9873 9.31592C19.2431 9.31592 19.4778 9.14646 19.5496 8.88809C19.6356 8.57738 19.4537 8.25578 19.143 8.16959L15.7503 7.22891C15.4386 7.14272 15.118 7.32482 15.0318 7.63534C14.9458 7.94604 15.1277 8.26765 15.4384 8.35384ZM7.17009 23.2935C7.08624 23.6048 7.27048 23.925 7.58178 24.0091L14.4347 25.8566C14.4854 25.8702 14.5366 25.8768 14.587 25.8768C14.8444 25.8768 15.08 25.7052 15.1502 25.4449C15.2341 25.1336 15.0499 24.8134 14.7386 24.7293L7.88567 22.8818C7.57555 22.7982 7.25395 22.9824 7.17009 23.2935ZM11.6303 33.2C11.9527 33.2 12.214 32.9387 12.214 32.6163C12.214 32.2939 11.9527 32.0326 11.6303 32.0326H4.44162C4.11924 32.0326 3.85795 32.2939 3.85795 32.6163C3.85795 32.9387 4.11924 33.2 4.44162 33.2H11.6303ZM43.0184 22.2026V41.276C43.0184 43.3364 39.6635 44.9502 35.3803 44.9502C31.1378 44.9502 27.8552 43.4158 27.7451 41.3809C27.7445 41.3704 27.7441 41.3601 27.7441 41.3494V22.2415C27.7439 22.2285 27.7422 22.2158 27.7422 22.2028C27.7422 20.1082 31.0259 18.5286 35.3803 18.5286C39.7347 18.5286 43.0184 20.108 43.0184 22.2026ZM41.8511 35.6236C40.511 36.6506 38.1389 37.3207 35.3803 37.3207C32.6217 37.3207 30.2467 36.6654 28.9115 35.6436V37.5106C28.986 38.6746 31.6547 39.968 35.3803 39.968C39.0837 39.968 41.8511 38.6445 41.8511 37.4612V35.6236ZM41.8511 31.8089C40.511 32.8359 38.1389 33.5062 35.3803 33.5062C32.6217 33.5062 30.2467 32.8509 28.9115 31.8291V33.6961C28.986 34.8599 31.6547 36.1533 35.3803 36.1533C39.0837 36.1533 41.8511 34.8298 41.8511 33.6465V31.8089ZM41.8511 27.9942C40.511 29.0213 38.1389 29.6913 35.3803 29.6913C32.6217 29.6913 30.2467 29.0361 28.9115 28.0142V29.8812C28.986 31.0452 31.6547 32.3387 35.3803 32.3387C39.0837 32.3387 41.8511 31.0151 41.8511 29.8316V27.9942ZM41.8511 24.2079C40.5229 25.2262 38.1728 25.8764 35.3803 25.8764C32.5878 25.8764 30.2399 25.2268 28.9115 24.2093V26.0665C28.986 27.2304 31.6547 28.5238 35.3803 28.5238C39.0837 28.5238 41.8511 27.2002 41.8511 26.0169V24.2079ZM28.9103 22.1913C28.9103 22.1952 28.9115 22.1987 28.9115 22.2024V22.2299C28.9518 23.4085 31.5964 24.7093 35.3803 24.7093C39.1936 24.7093 41.8511 23.3882 41.8511 22.2026C41.8511 21.017 39.1936 19.6957 35.3803 19.6957C31.567 19.6957 28.9268 21.0084 28.9103 22.1913ZM41.8511 41.2758V39.4382C40.511 40.4653 38.1389 41.1354 35.3803 41.1354C32.6217 41.1354 30.2467 40.4801 28.9115 39.4583V41.3311C28.9947 42.4936 31.661 43.7827 35.3803 43.7827C39.0997 43.7827 41.8511 42.4591 41.8511 41.2758Z" fill="url(#paint0_linear_532_385)"/>
</g>
<defs>
<linearGradient id="paint0_linear_532_385" x1="32.1847" y1="2.99999" x2="5.00648" y2="11.1312" gradientUnits="userSpaceOnUse">
<stop stop-color="#CC675B"/>
<stop offset="0.0001" stop-color="#CC675B"/>
<stop offset="1" stop-color="#2C6890"/>
</linearGradient>
<clipPath id="clip0_532_385">
<rect width="48" height="48" fill="white" transform="translate(0.666626)"/>
</clipPath>
</defs>
</svg>
