<svg width="53" height="53" viewBox="0 0 53 53" fill="none" xmlns="http://www.w3.org/2000/svg">
<path id="Vector" d="M52.5282 28.1692V29.6164C52.5282 42.4082 42.3039 52.7802 29.6878 52.7802H28.2549V47.3716C38.327 46.5117 46.346 38.3812 47.1941 28.1692H52.5282ZM28.2544 0V5.40864C38.3265 6.26857 46.3455 14.399 47.1937 24.6111H52.5282V0H28.2549H28.2544ZM23.3177 0C10.7011 0 0.471287 10.372 0.471287 23.1638V24.6111H5.8058C6.65395 14.399 14.679 6.26857 24.745 5.40864V0H23.3177ZM42.8766 26.3899C42.8766 26.9889 42.8473 27.588 42.7831 28.1692C41.9699 35.9199 35.8989 42.0757 28.2539 42.9002C27.6747 42.9653 27.0899 42.995 26.499 42.995C25.9082 42.995 25.3173 42.9653 24.7441 42.9002C17.0997 42.0757 11.0282 35.9203 10.2149 28.1692C10.1507 27.588 10.1214 26.9889 10.1214 26.3899C10.1214 25.7908 10.1507 25.1917 10.2149 24.6106C11.0277 16.8599 17.0992 10.7041 24.7441 9.87952C25.3173 9.81442 25.9082 9.7847 26.499 9.7847C27.0899 9.7847 27.6747 9.81442 28.2539 9.87952C35.8984 10.7041 41.9699 16.8594 42.7831 24.6106C42.8473 25.1917 42.8766 25.7908 42.8766 26.3899ZM39.6595 26.0932C39.6595 25.5592 39.5306 25.0554 39.3026 24.6106C38.776 23.5549 37.6943 22.8313 36.4423 22.8313H30.0084V16.308C30.0084 15.0391 29.2947 13.9419 28.2535 13.4023C27.8147 13.1711 27.3179 13.0466 26.7912 13.0466H26.2064C25.6797 13.0466 25.1828 13.1772 24.7441 13.4023C23.7029 13.9419 22.9892 15.0391 22.9892 16.308V22.8313H16.5553C15.3094 22.8313 14.2272 23.5549 13.695 24.6106C13.467 25.0554 13.3381 25.5592 13.3381 26.0932V26.6861C13.3381 27.2201 13.467 27.7239 13.695 28.1687C14.2272 29.2244 15.3094 29.948 16.5553 29.948H22.9892V36.4713C22.9892 37.7402 23.7029 38.8374 24.7441 39.377C25.1828 39.6025 25.6797 39.7327 26.2064 39.7327H26.7912C27.3179 39.7327 27.8147 39.6082 28.2535 39.377C29.2947 38.8374 30.0084 37.7402 30.0084 36.4713V29.948H36.4423C37.6938 29.948 38.776 29.2244 39.3026 28.1687C39.5306 27.7239 39.6595 27.2201 39.6595 26.6861V26.0932ZM5.80533 28.1687H0.470825V52.7793H24.7441V47.3706C14.678 46.5107 6.65302 38.3803 5.80487 28.1682L5.80533 28.1687Z" fill="url(#paint0_linear_532_629)"/>
<defs>
<linearGradient id="paint0_linear_532_629" x1="-4.29144" y1="44.4154" x2="57.7143" y2="9.1073" gradientUnits="userSpaceOnUse">
<stop stop-color="#246893"/>
<stop offset="0.359" stop-color="#456888"/>
<stop offset="0.518" stop-color="#8C6770"/>
<stop offset="0.624" stop-color="#BE6760"/>
<stop offset="1" stop-color="#D0675A"/>
</linearGradient>
</defs>
</svg>
