<svg width="421" height="421" viewBox="0 0 421 421" fill="none" xmlns="http://www.w3.org/2000/svg">
<path d="M420.601 224.267V235.789C420.601 337.63 338.07 420.206 236.233 420.206H224.666V377.146C305.968 370.299 370.698 305.57 377.544 224.267H420.601ZM224.666 0V43.0605C305.968 49.9068 370.698 114.637 377.544 195.939H420.605V0H224.666ZM184.816 0C82.9746 0 0.398743 82.5758 0.398743 184.417V195.939H43.4593C50.3055 114.637 115.08 49.9068 196.334 43.0605V0H184.816ZM342.697 210.101C342.697 214.871 342.461 219.64 341.942 224.267C335.378 285.974 286.372 334.983 224.662 341.547C219.986 342.066 215.266 342.302 210.496 342.302C205.727 342.302 200.957 342.066 196.33 341.547C134.624 334.983 85.6147 285.977 79.0501 224.267C78.5318 219.64 78.2952 214.871 78.2952 210.101C78.2952 205.332 78.5318 200.562 79.0501 195.936C85.6109 134.229 134.62 85.2197 196.33 78.6551C200.957 78.1368 205.727 77.9003 210.496 77.9003C215.266 77.9003 219.986 78.1368 224.662 78.6551C286.368 85.2197 335.378 134.225 341.942 195.936C342.461 200.562 342.697 205.332 342.697 210.101ZM316.728 207.739C316.728 203.488 315.688 199.477 313.847 195.936C309.596 187.531 300.865 181.77 290.759 181.77H238.824V129.835C238.824 119.733 233.063 110.997 224.658 106.701C221.117 104.861 217.106 103.87 212.855 103.87H208.134C203.883 103.87 199.872 104.91 196.33 106.701C187.926 110.997 182.165 119.733 182.165 129.835V181.77H130.23C120.173 181.77 111.437 187.531 107.141 195.936C105.301 199.477 104.261 203.488 104.261 207.739V212.46C104.261 216.711 105.301 220.722 107.141 224.263C111.437 232.668 120.173 238.429 130.23 238.429H182.165V290.364C182.165 300.466 187.926 309.201 196.33 313.498C199.872 315.293 203.883 316.329 208.134 316.329H212.855C217.106 316.329 221.117 315.338 224.658 313.498C233.063 309.201 238.824 300.466 238.824 290.364V238.429H290.759C300.861 238.429 309.596 232.668 313.847 224.263C315.688 220.722 316.728 216.711 316.728 212.46V207.739ZM43.4555 224.263H0.398743V420.199H196.334V377.138C115.08 370.292 50.3018 305.566 43.4555 224.263Z" fill="url(#paint0_linear_532_323)"/>
<defs>
<linearGradient id="paint0_linear_532_323" x1="-38.0463" y1="353.61" x2="459.057" y2="66.6075" gradientUnits="userSpaceOnUse">
<stop stop-color="#246893"/>
<stop offset="0.359" stop-color="#456888"/>
<stop offset="0.518" stop-color="#8C6770"/>
<stop offset="0.624" stop-color="#BE6760"/>
<stop offset="1" stop-color="#D0675A"/>
</linearGradient>
</defs>
</svg>
