<svg width="168" height="199" viewBox="0 0 168 199" fill="none" xmlns="http://www.w3.org/2000/svg">
<g id="qr-code" clip-path="url(#clip0_532_120)">
<g id="#26282aff">
<path id="Vector" d="M12.175 0H155.939C157.807 0.17465 159.659 0.675089 161.298 1.6004C162.543 2.25701 163.605 3.19072 164.613 4.15969L164.606 4.2722L164.763 4.29235L164.706 4.35449C164.894 4.55265 165.084 4.74913 165.278 4.94393C165.351 5.10347 165.425 5.26468 165.498 5.4259L165.712 5.31842L165.623 5.48803C165.685 5.58543 165.811 5.78192 165.873 5.881L166.019 5.81718L165.917 6.10435L166.187 6.07076L166.08 6.17152C166.527 6.81974 166.8 7.56032 167.173 8.24884L167.081 8.40838L167.34 8.39998L167.197 8.51754C167.456 9.07003 167.578 9.66787 167.746 10.2506C167.834 10.8417 167.921 11.4312 168 12.024V186.825C167.829 189.267 166.999 191.67 165.542 193.643C165.393 193.834 165.248 194.031 165.107 194.231C164.766 194.622 164.41 195.002 164.049 195.378C163.857 195.566 163.644 195.734 163.402 195.856L163.498 195.964C163.335 196.038 163.172 196.113 163.012 196.192L163.031 196.293C162.048 196.973 161.035 197.621 159.918 198.06C159.22 198.347 158.498 198.562 157.762 198.725C157.166 198.827 156.571 198.935 155.971 199H12.054C11.4895 198.948 10.9334 198.84 10.3757 198.741L10.2295 198.859L10.1791 198.673C9.08712 198.523 8.06568 198.07 7.07616 197.606C6.98208 197.566 6.7956 197.484 6.70152 197.443L6.7956 197.346C6.58056 197.282 6.36384 197.222 6.1488 197.163L6.20928 197.055C5.92872 196.916 5.64984 196.778 5.38944 196.609L5.42976 196.441L5.12232 196.538L5.20296 196.261L4.96104 196.394L5.06016 196.112L4.82664 196.33L4.91232 196.127C4.6536 195.964 4.39824 195.803 4.14456 195.638L4.24368 195.448L4.08912 195.522C3.90768 195.322 3.71952 195.133 3.5112 194.965L3.51624 194.802L3.36336 194.813C3.23568 194.646 3.10464 194.478 2.97528 194.315L3.0072 194.31C2.8056 194.075 2.604 193.844 2.40408 193.613C2.24952 193.352 2.09496 193.095 1.9404 192.84L1.86312 192.823C1.51032 192.079 1.05672 191.379 0.83664 190.578L0.63336 190.592L0.8232 190.484C0.65352 190.128 0.50904 189.76 0.38472 189.388L0.5628 189.277L0.34608 189.29C0.23856 188.467 0.0588 187.656 0 186.828V12.0508C0.0924 11.4345 0.09912 10.793 0.33768 10.2069L0.13776 10.1079L0.34104 10.123C0.36288 10.0172 0.40824 9.80726 0.43008 9.70314L0.27888 9.6091L0.48048 9.58223C0.504 9.35552 0.52752 9.12713 0.55104 8.90042L0.64848 8.96927C0.69216 8.85508 0.77616 8.62837 0.81816 8.51418L0.65352 8.38655L0.93744 8.41006L0.8064 8.25724C0.93072 8.06916 1.05336 7.87939 1.17432 7.68963L1.0584 7.70474C1.24488 7.37056 1.43472 7.03973 1.60272 6.69715C1.8144 6.32098 2.03952 5.95489 2.28144 5.59887C2.49984 5.26636 2.75016 4.95737 3.02568 4.67188L2.97192 4.48212L3.2676 4.5728L3.10464 4.30075L3.2928 4.3864C3.68592 3.82886 4.18992 3.35529 4.75608 2.97408L4.68384 2.90355C5.1156 2.64494 5.52384 2.35105 5.9304 2.05549C7.79352 0.851418 9.96408 0.156177 12.175 0ZM17.8786 10.3463C15.8239 10.4723 13.8432 11.4379 12.4606 12.9577C11.0897 14.4388 10.3118 16.449 10.332 18.4675C10.3303 62.0762 10.332 105.687 10.332 149.295C10.3018 151.124 10.9116 152.953 12.0456 154.39C13.5542 156.347 15.9953 157.543 18.4699 157.511C62.0978 157.512 105.724 157.512 149.352 157.512C150.321 157.519 151.294 157.373 152.206 157.042C154.958 156.083 157.077 153.537 157.493 150.652C157.67 149.252 157.547 147.836 157.584 146.429V19.6548C157.577 19.0351 157.602 18.4138 157.56 17.7958C157.426 15.8646 156.546 14.0039 155.163 12.652C153.683 11.1826 151.615 10.3245 149.528 10.3278C132.441 10.3262 115.354 10.3278 98.2666 10.3278C71.4706 10.3396 44.6729 10.3027 17.8786 10.3463ZM33.5496 171.659C33.5429 175.253 33.5479 178.846 33.5462 182.44C34.1023 182.44 34.6567 182.44 35.2128 182.442C35.196 179.433 35.2514 176.423 35.1758 173.417C35.3455 174.324 35.7521 175.159 36.0864 176.013C36.9499 178.156 37.8168 180.296 38.677 182.44C39.102 182.445 39.527 182.442 39.9521 182.425C41.0743 179.411 42.4166 176.475 43.4515 173.429C43.2432 176.427 43.3978 179.438 43.3507 182.442C43.9488 182.442 44.5469 182.447 45.145 182.428C45.1231 178.84 45.1416 175.251 45.1366 171.661C44.3234 171.659 43.5103 171.661 42.6972 171.661C41.5918 174.47 40.3754 177.238 39.354 180.079C38.341 177.244 37.1599 174.47 36.078 171.661C35.2346 171.659 34.393 171.662 33.5496 171.659ZM47.7926 171.662C47.7943 175.256 47.791 178.848 47.7943 182.442C48.9989 182.44 50.2051 182.442 51.4097 182.442C52.369 182.445 53.3736 182.18 54.0859 181.51C55.4635 180.222 55.4417 177.511 53.7197 176.524C52.4698 175.79 50.9662 176.039 49.5869 175.993C49.5869 174.547 49.5886 173.105 49.5869 171.661C48.9871 171.659 48.389 171.659 47.7926 171.662ZM56.2061 171.657C56.1943 175.251 56.2044 178.846 56.201 182.442C56.7991 182.44 57.3955 182.442 57.9936 182.442C57.9936 178.848 57.9953 175.254 57.9919 171.661C57.3955 171.661 56.8008 171.661 56.2061 171.657ZM64.895 171.661V182.44C65.4948 182.442 66.0946 182.442 66.696 182.442V177.773C68.3827 177.773 70.0694 177.772 71.7578 177.773C71.7578 179.328 71.7578 180.885 71.7562 182.44C72.361 182.442 72.9658 182.442 73.5706 182.442V171.661C72.9658 171.659 72.3626 171.659 71.7578 171.661C71.7562 173.172 71.7595 174.683 71.7578 176.195H66.696C66.6943 174.682 66.6977 173.17 66.6943 171.661C66.0946 171.659 65.4948 171.659 64.895 171.661ZM79.049 171.664C77.7101 175.258 76.3577 178.848 75.0154 182.442C75.6706 182.442 76.3274 182.44 76.9843 182.442C77.2951 181.53 77.6042 180.618 77.9134 179.708H82.1436C82.4678 180.618 82.7854 181.532 83.113 182.442C83.7715 182.44 84.4301 182.442 85.0886 182.442C83.7547 178.848 82.4158 175.256 81.0818 171.662C80.4048 171.659 79.7261 171.657 79.049 171.664ZM90.767 171.661C90.7721 175.256 90.757 178.851 90.7754 182.447C91.3718 182.439 91.9699 182.44 92.568 182.442C92.573 180.675 92.5579 178.909 92.5764 177.144C93.8918 178.925 95.2543 180.674 96.5899 182.442H98.9386C97.4249 180.569 95.9028 178.705 94.3874 176.836C95.7953 175.108 97.2115 173.387 98.621 171.661C97.9003 171.659 97.1813 171.661 96.4622 171.659C95.1619 173.35 93.8498 175.031 92.5663 176.732C92.5697 175.041 92.568 173.35 92.5663 171.661C91.9666 171.659 91.3668 171.659 90.767 171.661ZM103.011 171.661C101.664 175.253 100.318 178.846 98.9722 182.442C99.629 182.44 100.286 182.442 100.944 182.44C101.249 181.528 101.564 180.62 101.868 179.71C103.281 179.708 104.694 179.703 106.107 179.713C106.418 180.623 106.751 181.527 107.061 182.437C107.717 182.444 108.372 182.439 109.029 182.447C107.733 178.84 106.362 175.258 105.037 171.661C104.362 171.659 103.686 171.661 103.011 171.661ZM110.526 171.661C110.524 175.254 110.524 178.848 110.524 182.442C111.122 182.442 111.718 182.44 112.316 182.442C112.321 181.14 112.316 179.839 112.32 178.539C113.612 178.534 115.026 178.673 116.159 177.918C117.729 176.962 118.159 174.697 117.24 173.155C116.609 172.148 115.381 171.718 114.242 171.672C113.002 171.644 111.764 171.669 110.526 171.661ZM118.474 171.661C118.472 172.169 118.474 172.68 118.474 173.19C119.503 173.194 120.533 173.19 121.565 173.192C121.565 176.275 121.563 179.359 121.565 182.442H123.366V173.192C124.392 173.194 125.42 173.185 126.447 173.197C126.459 172.683 126.459 172.171 126.457 171.661H118.474ZM128.029 171.661C128.028 175.254 128.031 178.846 128.028 182.44C130.049 182.444 132.07 182.442 134.091 182.442C134.089 181.94 134.089 181.441 134.098 180.942C132.675 180.914 131.253 180.939 129.83 180.93C129.827 179.872 129.835 178.818 129.825 177.762C131.062 177.738 132.3 177.758 133.538 177.75C133.538 177.241 133.538 176.734 133.536 176.227C132.3 176.228 131.065 176.228 129.83 176.228C129.825 175.221 129.839 174.213 129.822 173.207C131.166 173.17 132.512 173.204 133.857 173.189C133.854 172.678 133.854 172.169 133.856 171.661H128.029Z" fill="#26282A"/>
<path id="Vector_2" d="M112.318 173.138C113.303 173.18 114.442 172.955 115.272 173.623C116.194 174.5 115.954 176.367 114.719 176.848C113.961 177.167 113.118 177.044 112.32 177.066C112.318 175.756 112.318 174.448 112.318 173.138Z" fill="#26282A"/>
<path id="Vector_3" d="M80.0268 173.258C80.4166 174.959 81.1373 176.568 81.6631 178.232H78.3871C78.918 176.568 79.6034 174.951 80.0268 173.258Z" fill="#26282A"/>
<path id="Vector_4" d="M103.979 173.293C104.402 174.976 105.087 176.581 105.62 178.232H102.344C102.875 176.581 103.542 174.971 103.979 173.293Z" fill="#26282A"/>
<path id="Vector_5" d="M49.5869 177.46C50.4487 177.492 51.3425 177.347 52.1791 177.618C53.4811 178.054 53.4912 180.169 52.2917 180.74C51.4466 181.132 50.4874 180.928 49.5886 180.978C49.5852 179.804 49.5886 178.632 49.5869 177.46Z" fill="#26282A"/>
</g>
<g id="#ffffffff">
<path id="Vector_6" d="M17.8786 10.3462C44.6729 10.3025 71.4706 10.3395 98.2666 10.3277C115.354 10.3277 132.441 10.326 149.528 10.3277C151.615 10.3244 153.683 11.1825 155.163 12.6519C156.546 14.0038 157.426 15.8645 157.56 17.7957C157.602 18.4137 157.577 19.035 157.584 19.6547V146.429C157.547 147.836 157.67 149.252 157.493 150.652C157.077 153.537 154.958 156.083 152.206 157.042C151.294 157.373 150.321 157.519 149.352 157.512C105.724 157.512 62.0978 157.512 18.4699 157.51C15.9953 157.542 13.5542 156.347 12.0456 154.39C10.9116 152.953 10.3018 151.124 10.332 149.295C10.332 105.687 10.3303 62.0761 10.332 18.4674C10.3118 16.4489 11.0897 14.4387 12.4606 12.9575C13.8432 11.4378 15.8239 10.4721 17.8786 10.3462ZM22.0097 21.863C22.0063 29.7122 22.008 37.5597 22.008 45.4088H45.5616C45.5616 37.5597 45.5633 29.7122 45.5599 21.8647C37.7093 21.8647 29.8603 21.8664 22.0097 21.863ZM52.2984 21.8647V25.2317H48.93C48.9367 31.9591 48.9166 38.6882 48.9401 45.4155C50.0606 45.4021 51.1795 45.4105 52.2984 45.4105V48.7759C47.8061 48.7759 43.3121 48.7792 38.8198 48.7742C38.8147 49.8993 38.8147 51.0262 38.8198 52.153C42.1898 52.1496 45.5599 52.1513 48.93 52.1513V55.4764C46.6822 55.4764 44.4343 55.4764 42.1865 55.4747C42.1831 56.5998 42.1882 57.725 42.1831 58.8501C44.4343 58.8552 46.6855 58.8501 48.9384 58.8518C48.9384 57.7283 48.9367 56.6066 48.9384 55.4848C50.059 55.4848 51.1795 55.4831 52.3001 55.4848C52.2967 57.7283 52.3018 59.9719 52.2967 62.2155C53.4089 62.2256 54.5227 62.2088 55.6366 62.2239C55.6315 64.4624 55.6298 66.6993 55.6366 68.9378C54.5261 68.953 53.4173 68.9395 52.3068 68.9446V65.5792C51.1846 65.5775 50.0623 65.5775 48.9401 65.5792C48.935 64.4557 48.9384 63.3339 48.9384 62.2121C45.5666 62.2071 42.1949 62.2155 38.8231 62.2071C38.8231 59.9635 38.8298 57.7183 38.8198 55.4747C37.711 55.4797 36.6038 55.4713 35.4967 55.4797C35.4816 54.368 35.4934 53.2563 35.49 52.1446C34.3678 52.1412 33.2438 52.1446 32.1216 52.1429C32.1233 51.0211 32.1199 49.901 32.1233 48.7809C30.9994 48.7692 29.8754 48.7826 28.7498 48.7725C28.7381 51.006 28.7482 53.2412 28.7448 55.4764H25.3848C25.3882 54.368 25.3764 53.2613 25.3915 52.1547C24.2642 52.1278 23.1386 52.153 22.013 52.1412C22.003 55.4999 22.0114 58.8585 22.008 62.2189C23.1252 62.2155 24.2424 62.2273 25.3596 62.2105C25.3949 66.6909 25.3747 71.1747 25.3697 75.6551C24.2491 75.6518 23.1286 75.6535 22.008 75.6535C22.0097 77.9021 22.0046 80.149 22.0097 82.3976C23.1286 82.3976 24.2474 82.3892 25.3663 82.4027C25.405 81.2792 25.3747 80.154 25.3831 79.0306C28.7532 79.0272 32.1216 79.0323 35.49 79.0272C35.4934 75.6686 35.4833 72.3099 35.495 68.9513C36.6022 68.9563 37.7093 68.9513 38.8181 68.953C38.8164 70.0764 38.8147 71.1982 38.8181 72.3217C41.0659 72.3183 43.3138 72.32 45.5616 72.32C45.5616 73.4317 45.5599 74.5417 45.5616 75.6518C43.3138 75.6551 41.0642 75.6518 38.8164 75.6535C38.808 77.9004 38.8349 80.1473 38.803 82.3926C35.4497 82.3808 32.0981 82.3909 28.7448 82.3876C28.7414 83.511 28.7549 84.6345 28.7364 85.758C27.6175 85.7512 26.497 85.7563 25.3764 85.7546C25.3764 86.8764 25.3781 87.9999 25.3764 89.1216H22.008C22.0097 90.2367 22.003 91.3518 22.013 92.4669C23.1336 92.4601 24.2542 92.4635 25.3764 92.4635C25.3781 93.587 25.373 94.7088 25.3781 95.8322C27.6276 95.8238 29.8754 95.8406 32.125 95.8238C32.1166 94.7037 32.1233 93.5836 32.1216 92.4635H45.5616V95.8221C43.3138 95.8238 41.0642 95.8205 38.8164 95.8221V99.1875C37.7042 99.1909 36.5938 99.1875 35.4816 99.1909C35.4866 100.309 35.4698 101.428 35.4917 102.546C34.3694 102.586 33.2455 102.555 32.1216 102.565V99.1892C30.996 99.1892 29.8704 99.1875 28.7448 99.1909C28.7448 102.56 28.7465 105.93 28.7448 109.299H22.008C22.008 110.412 22.0063 111.527 22.0097 112.641C24.2542 112.639 26.4986 112.641 28.7448 112.641C28.7398 113.761 28.7599 114.881 28.733 116.003C26.4919 115.994 24.2491 116.001 22.008 115.999V119.375H28.7515C28.7549 118.25 28.7532 117.126 28.7515 116.001C29.8721 116.014 30.9926 116.004 32.1132 116.008C32.1132 117.129 32.1115 118.251 32.1132 119.375H38.8231C38.8248 118.253 38.8231 117.129 38.8248 116.008C39.9454 116.006 41.0642 116.008 42.1848 116.008V119.375H45.5616V115.999C44.4377 115.999 43.3154 115.998 42.1932 115.999V112.641C43.3154 112.639 44.4377 112.641 45.5599 112.641C45.5582 111.537 45.5717 110.434 45.5515 109.332C47.7994 109.274 50.0489 109.322 52.2984 109.307C52.3018 110.412 52.29 111.515 52.3051 112.62C51.1812 112.647 50.0556 112.625 48.93 112.634V129.442C50.0522 129.442 51.1762 129.441 52.2984 129.442C52.2984 130.567 52.3001 131.691 52.2984 132.818C53.4089 132.818 54.521 132.816 55.6332 132.818V142.91C54.521 142.91 53.4089 142.909 52.2984 142.912C52.3001 144.036 52.2984 145.161 52.2984 146.284C54.5362 146.286 56.7722 146.286 59.01 146.286V142.92C60.1322 142.917 61.2545 142.919 62.3784 142.919C62.3784 141.797 62.3784 140.675 62.3767 139.553C63.5006 139.55 64.6229 139.552 65.7468 139.552C65.7451 137.31 65.7502 135.066 65.7434 132.824C67.9879 132.808 70.2307 132.821 72.4752 132.818V142.91C70.229 142.91 67.9829 142.909 65.7384 142.912C65.7401 144.036 65.7384 145.161 65.7384 146.286H72.4836C72.487 145.162 72.4786 144.039 72.487 142.917C73.5974 142.922 74.7079 142.917 75.8184 142.919V146.286H79.1952V142.91C78.0679 142.902 76.9423 142.927 75.8167 142.895C75.8369 141.782 75.8234 140.669 75.8251 139.553C76.9474 139.548 78.0713 139.553 79.1952 139.552V136.176C78.0713 136.175 76.949 136.178 75.8251 136.175C75.8268 135.056 75.8268 133.938 75.8268 132.819C76.949 132.816 78.0713 132.818 79.1952 132.818C79.1969 131.691 79.1902 130.566 79.1986 129.441C80.3174 129.444 81.4363 129.441 82.5552 129.442C82.5552 130.566 82.5552 131.691 82.5535 132.816C83.6774 132.818 84.7997 132.816 85.9236 132.818V136.176C84.7997 136.181 83.6741 136.165 82.5518 136.186C82.5586 137.307 82.5552 138.428 82.5535 139.548C83.6758 139.555 84.7997 139.55 85.9236 139.552V142.91C84.798 142.915 83.6741 142.899 82.5485 142.919C82.5602 144.039 82.5535 145.159 82.5535 146.279C83.6758 146.296 84.798 146.274 85.9202 146.293C85.9454 145.167 85.9236 144.042 85.932 142.919H92.6268C92.6251 144.039 92.6285 145.159 92.6251 146.281C97.1242 146.286 101.622 146.293 106.121 146.277C106.114 145.156 106.117 144.034 106.119 142.912C102.747 142.904 99.3737 142.917 96.0002 142.907C96.0086 140.665 95.9986 138.425 96.007 136.183C96.9377 136.19 97.8701 136.173 98.8025 136.196C99.0091 136.23 99.2191 136.17 99.4006 136.069C99.3485 135.004 99.3686 133.936 99.3804 132.871C100.467 132.742 101.632 132.855 102.75 132.816C102.747 131.691 102.749 130.567 102.749 129.442C103.866 129.439 104.983 129.447 106.102 129.439C106.117 130.564 106.102 131.691 106.11 132.819C107.231 132.814 108.352 132.819 109.472 132.816C109.484 133.938 109.474 135.061 109.477 136.185C110.593 136.183 111.707 136.188 112.822 136.181C112.817 135.06 112.82 133.938 112.82 132.818C117.309 132.821 121.798 132.811 126.287 132.823C126.284 133.939 126.286 135.058 126.287 136.175C122.917 136.178 119.549 136.175 116.18 136.176V142.919H119.547C119.55 144.041 119.547 145.162 119.549 146.286C120.676 146.281 121.802 146.294 122.929 146.277C122.922 145.156 122.926 144.034 122.927 142.912C121.803 142.907 120.679 142.91 119.557 142.91V139.552C121.803 139.55 124.05 139.553 126.296 139.55C126.292 138.428 126.294 137.307 126.294 136.185C128.528 136.185 130.763 136.183 132.997 136.186C132.997 137.305 132.996 138.423 132.999 139.542C131.875 139.545 130.751 139.542 129.629 139.543C129.629 140.665 129.627 141.785 129.63 142.907C128.515 142.914 127.401 142.909 126.286 142.91V146.286C130.771 146.286 135.257 146.286 139.742 146.284C139.742 145.162 139.741 144.041 139.742 142.919H143.102V146.286C144.228 146.286 145.354 146.284 146.479 146.286V136.176H143.111V132.818C144.233 132.816 145.355 132.818 146.479 132.818V126.1H143.111V119.375H146.479V109.299C145.357 109.299 144.236 109.297 143.116 109.3C143.106 108.18 143.112 107.06 143.111 105.94H146.479C146.479 101.446 146.476 96.9523 146.481 92.4568C145.357 92.4517 144.233 92.4568 143.111 92.4534C143.111 91.3451 143.109 90.2384 143.111 89.13H146.479V82.3876H143.102C143.101 84.6328 143.104 86.8781 143.101 89.1233C141.98 89.12 140.86 89.125 139.741 89.12C139.744 87.9982 139.741 86.8764 139.742 85.7563C138.617 85.7462 137.491 85.7697 136.367 85.7428C136.384 83.5026 136.367 81.2624 136.376 79.0222C135.252 79.0171 134.128 79.0222 133.006 79.0188C133.004 77.897 133.007 76.7736 133.002 75.6518C131.878 75.6551 130.753 75.6518 129.629 75.6535C129.627 76.7786 129.63 77.9038 129.627 79.0289C130.749 79.0272 131.872 79.0306 132.996 79.0272C132.999 82.3926 132.996 85.7563 132.997 89.1216C131.873 89.1216 130.751 89.125 129.627 89.12C129.622 85.7512 129.644 82.3825 129.617 79.0138C128.507 79.0289 127.396 79.0155 126.286 79.0205V82.3876H119.549C119.547 83.5093 119.549 84.6328 119.549 85.7546C118.428 85.7529 117.308 85.7563 116.189 85.7529C116.189 83.511 116.187 81.2708 116.189 79.0289H122.926C122.926 77.9071 122.924 76.7836 122.926 75.6618C124.048 75.6602 125.17 75.6618 126.292 75.6618C126.294 74.5485 126.292 73.4334 126.294 72.32C127.406 72.3183 128.517 72.3217 129.629 72.32C129.629 71.1965 129.627 70.0747 129.629 68.953C130.751 68.9513 131.873 68.9546 132.996 68.953C132.999 70.0731 132.997 71.1949 132.996 72.3183C134.121 72.3234 135.247 72.3183 136.374 72.32C136.372 71.1932 136.377 70.068 136.371 68.9429C135.248 68.9462 134.126 68.9446 133.006 68.9429C133.006 67.8244 133.004 66.7043 133.006 65.5859C134.128 65.5842 135.25 65.5859 136.374 65.5859V62.2105C134.124 62.2121 131.877 62.2088 129.629 62.2121V65.5775C128.582 65.5641 127.537 65.6077 126.494 65.5523C126.365 65.7236 126.207 65.9134 126.281 66.1518C126.289 67.0822 126.286 68.0125 126.286 68.9446C125.162 68.9446 124.039 68.9429 122.917 68.9446C122.916 70.0663 122.917 71.1898 122.917 72.3116C121.797 72.3116 120.676 72.3133 119.557 72.3099C119.557 71.1881 119.559 70.0663 119.556 68.9429C118.433 68.9446 117.311 68.9446 116.189 68.9429C116.189 67.8211 116.19 66.6993 116.187 65.5775C113.951 65.5792 111.713 65.5775 109.477 65.5775V72.3116C106.24 72.3099 103.002 72.3133 99.7668 72.3099C99.6912 72.3318 99.5417 72.3737 99.4678 72.3956C99.4409 72.4678 99.3888 72.6122 99.3619 72.6861C99.3602 73.6735 99.367 74.6643 99.3636 75.6535H92.6285C92.6251 76.7786 92.6268 77.9038 92.6268 79.0289H95.9952C95.9952 80.1507 95.9935 81.2725 95.9952 82.396C97.1208 82.396 98.2464 82.3976 99.372 82.3943C99.3703 81.2725 99.3703 80.1507 99.372 79.0289H102.749V75.6618C104.993 75.6602 107.239 75.6618 109.486 75.6618C109.486 74.5485 109.484 73.4334 109.486 72.32H116.179C116.18 73.4317 116.18 74.5417 116.179 75.6535H112.812V79.0205C111.7 79.0205 110.589 79.0188 109.477 79.0205V82.3876H102.74C102.739 83.5093 102.74 84.6311 102.74 85.7546H99.3653C99.3619 87.9898 99.3636 90.2266 99.3636 92.4635H102.749C102.749 91.3518 102.747 90.2401 102.749 89.13C104.988 89.1267 107.229 89.1351 109.469 89.125C109.487 90.235 109.472 91.3451 109.477 92.4551H106.109C106.107 93.5802 106.109 94.7037 106.109 95.8289C107.233 95.8322 108.358 95.8289 109.486 95.8306C109.486 94.7088 109.484 93.5853 109.486 92.4635H112.812C112.814 96.9557 112.81 101.448 112.814 105.94C113.938 105.938 115.063 105.942 116.189 105.938C116.187 104.817 116.189 103.695 116.189 102.573C117.311 102.571 118.435 102.573 119.557 102.573C119.556 101.445 119.559 100.316 119.556 99.1892C118.433 99.1892 117.309 99.1909 116.189 99.1875C116.19 95.8356 116.187 92.482 116.189 89.13C117.311 89.1284 118.435 89.13 119.557 89.13V85.763C120.676 85.7613 121.795 85.763 122.916 85.7613C122.921 86.8848 122.912 88.0083 122.921 89.1334C124.039 89.1233 125.157 89.1367 126.276 89.125C126.297 90.2334 126.281 91.3451 126.286 92.4551H119.549C119.547 93.5802 119.549 94.7037 119.549 95.8289C122.909 95.8322 126.269 95.8306 129.629 95.8306C129.629 94.7071 129.627 93.5853 129.629 92.4635H132.996C132.999 93.5853 132.997 94.7071 132.997 95.8289C134.121 95.8322 135.247 95.8289 136.374 95.8306C136.374 93.597 136.372 91.3635 136.374 89.13C137.495 89.13 138.613 89.1284 139.734 89.13C139.732 90.2401 139.734 91.3501 139.732 92.4601C140.856 92.4669 141.978 92.4618 143.102 92.4635V99.1892H139.734C139.734 100.318 139.731 101.446 139.736 102.575C140.858 102.573 141.98 102.571 143.102 102.575C143.101 103.693 143.102 104.812 143.102 105.932H139.734C139.726 108.162 139.747 110.394 139.724 112.624C140.85 112.662 141.977 112.625 143.106 112.646C143.099 114.886 143.104 117.126 143.102 119.366H139.742C139.744 118.244 139.739 117.124 139.744 116.004C138.618 115.994 137.491 116.001 136.366 115.999V119.366C135.247 119.368 134.128 119.363 133.009 119.368C132.997 118.244 133.012 117.121 133.001 115.998C131.878 116.003 130.756 115.994 129.634 116.003C129.624 114.881 129.63 113.761 129.629 112.641C130.754 112.639 131.88 112.641 133.006 112.641C133.007 111.529 133.001 110.417 133.009 109.307C129.646 109.289 126.282 109.304 122.917 109.299C122.916 110.41 122.917 111.52 122.917 112.632H119.549V115.999H112.814C112.809 117.121 112.817 118.244 112.809 119.368C111.698 119.363 110.588 119.366 109.477 119.366V122.742C111.713 122.748 113.949 122.727 116.185 122.753C116.175 124.982 116.182 127.212 116.18 129.441C115.06 129.442 113.938 129.444 112.817 129.441C112.805 130.562 112.815 131.686 112.812 132.809H109.486V126.102C108.362 126.099 107.239 126.1 106.117 126.1V116.008C107.239 116.006 108.363 116.008 109.486 116.008C109.484 114.884 109.484 113.762 109.486 112.641C111.72 112.639 113.954 112.641 116.189 112.641C116.184 111.526 116.196 110.41 116.182 109.295C113.948 109.304 111.713 109.295 109.477 109.299V112.632C108.357 112.631 107.236 112.637 106.116 112.629C106.121 110.399 106.116 108.17 106.117 105.94C107.239 105.938 108.363 105.94 109.486 105.94C109.481 103.688 109.492 101.438 109.481 99.1858C107.236 99.1909 104.992 99.1909 102.747 99.1875C102.749 98.064 102.749 96.9439 102.747 95.8221H95.9969C95.9952 96.9423 95.9918 98.0607 95.9986 99.1808C94.8746 99.1976 93.7524 99.1858 92.6285 99.1892C92.6184 100.314 92.6386 101.441 92.6167 102.57C91.513 102.561 90.4092 102.563 89.3071 102.568C89.2903 100.319 89.3054 98.0708 89.2987 95.8221C88.1765 95.8221 87.0542 95.8238 85.9303 95.8205C85.932 94.702 85.9303 93.5819 85.932 92.4635C88.1664 92.4618 90.4008 92.4652 92.6352 92.4618C92.6352 91.3518 92.6335 90.2401 92.6369 89.13C93.7574 89.13 94.8797 89.1284 96.0019 89.13C96.0053 88.0049 96.0036 86.8797 96.0036 85.7546H92.6352V82.3876C91.523 82.3859 90.4109 82.3892 89.3004 82.3859C89.3004 80.1423 89.3021 77.897 89.2987 75.6535H85.932C85.9303 74.5401 85.932 73.425 85.932 72.3116C82.5619 72.3099 79.1918 72.3133 75.8218 72.3099C75.815 73.4233 75.8201 74.5384 75.8184 75.6518C72.4618 75.6551 69.1051 75.6518 65.7468 75.6535C65.7451 74.5401 65.7468 73.425 65.7468 72.3116C63.5006 72.3116 61.2562 72.3099 59.0117 72.3133C59.0083 70.0714 59.0117 67.8295 59.01 65.5876C60.1289 65.5842 61.2494 65.5859 62.37 65.5859V68.953C65.7418 68.9513 69.1135 68.9546 72.4836 68.9513V58.8451C70.2391 58.8417 67.993 58.8434 65.7485 58.8434C65.7451 57.7216 65.7468 56.5998 65.7468 55.4781C64.6246 55.4747 63.504 55.4747 62.3818 55.4781C62.375 54.5578 62.375 53.6392 62.3834 52.7189C62.4523 52.4821 62.2994 52.2907 62.1718 52.1177C61.115 52.1748 60.055 52.1244 58.9982 52.148C59.005 53.2563 58.9999 54.3663 59.0016 55.4764C56.7706 55.4781 54.5412 55.473 52.3118 55.4781C52.3018 54.368 52.3068 53.2597 52.3085 52.1496C53.419 52.1513 54.5311 52.153 55.6416 52.1496C55.6399 51.0278 55.6433 49.9061 55.6399 48.7859C56.7638 48.7809 57.8878 48.7859 59.01 48.7826V35.3346C57.8844 35.3295 56.7588 35.3346 55.6332 35.3329C55.6315 38.6915 55.6332 42.0502 55.6332 45.4088C54.5244 45.4105 53.4173 45.4071 52.3085 45.4105C52.3034 38.6865 52.3085 31.9641 52.3068 25.2401C53.4173 25.2385 54.5294 25.2401 55.6416 25.2401C55.6416 24.1133 55.6433 22.9882 55.6399 21.8647C54.5261 21.8664 53.4122 21.8647 52.2984 21.8647ZM65.7384 21.8647C65.7418 22.9898 65.7334 24.1167 65.7434 25.2418C66.864 25.2368 67.9846 25.2418 69.1051 25.2401C69.1085 29.7172 69.1034 34.196 69.1085 38.6747C70.2341 38.673 71.358 38.6747 72.4836 38.6747V35.3413H75.8268C75.8268 34.2161 75.8251 33.0927 75.8268 31.9675C74.713 31.9641 73.5991 31.9658 72.4853 31.9658C72.4819 29.7239 72.4853 27.482 72.4836 25.2401C73.5974 25.2385 74.7113 25.2401 75.8268 25.2401C75.8268 24.115 75.8268 22.9898 75.8251 21.8647C74.7079 21.8647 73.5924 21.863 72.4752 21.8664V25.2317H69.1169C69.1118 24.1083 69.1202 22.9848 69.1102 21.8613C67.9862 21.868 66.8623 21.863 65.7384 21.8647ZM82.5552 21.8647V25.2317H79.1868C79.1868 28.6021 79.1851 31.9725 79.1885 35.3413H82.5636V31.9742C83.6842 31.9742 84.803 31.9725 85.9236 31.9759C85.9236 33.0977 85.9219 34.2195 85.9253 35.3413H89.2987C89.3004 33.0977 89.3021 30.8541 89.2987 28.6105C90.4109 28.6038 91.523 28.6089 92.6352 28.6072V25.2401C93.7541 25.2385 94.8746 25.2401 95.9952 25.2384V35.3329H92.6268C92.6251 36.4446 92.6268 37.5546 92.6268 38.6663C90.389 38.673 88.153 38.6529 85.9169 38.6764C85.9186 39.726 85.9488 40.7772 85.9001 41.8268C86.0815 41.9545 86.273 42.1257 86.5234 42.0468C87.4457 42.0384 88.3697 42.0401 89.2937 42.0435C89.292 43.1652 89.292 44.287 89.2937 45.4088H92.6352V42.0418C93.7558 42.0418 94.8746 42.0401 95.9952 42.0435C95.9952 43.1652 95.9935 44.287 95.9969 45.4088C97.1191 45.4088 98.2414 45.4071 99.3653 45.4105C99.3636 47.6574 99.3636 49.9044 99.3636 52.1513H109.476C109.481 54.3798 109.472 56.6082 109.481 58.8367C108.36 58.8501 107.238 58.8401 106.117 58.8434V55.4764H96.0053C96.0019 53.2429 96.0036 51.0094 96.0036 48.7775C93.7658 48.7759 91.5281 48.7742 89.292 48.7775V52.1496C90.4025 52.153 91.5146 52.1496 92.6268 52.1513C92.6268 53.263 92.6234 54.3747 92.6285 55.4848C93.7507 55.4831 94.873 55.4848 95.9952 55.4848C95.9952 56.6066 95.9935 57.73 95.9969 58.8518H102.74C102.74 59.9719 102.74 61.092 102.739 62.2121C99.3686 62.2088 95.9986 62.2121 92.6268 62.2105C92.6251 63.3323 92.6268 64.454 92.6268 65.5775C91.5146 65.5792 90.4042 65.5775 89.292 65.5775C89.292 67.8244 89.2937 70.0714 89.292 72.3183C90.4058 72.32 91.5214 72.3217 92.6352 72.3183C92.6352 71.1965 92.6335 70.0747 92.6369 68.953H95.9952V72.32C97.0519 72.3301 98.1087 72.2965 99.1654 72.3435C99.2057 72.3133 99.2863 72.2545 99.3266 72.226C99.4241 71.1394 99.3468 70.0428 99.372 68.953H102.749V62.2189C104.993 62.2172 107.238 62.2172 109.484 62.2189C109.486 61.0971 109.486 59.9736 109.484 58.8518H112.812V62.2172C116.18 62.2189 119.547 62.2189 122.916 62.2172C122.919 63.3406 122.916 64.4624 122.917 65.5859C124.019 65.5993 125.123 65.5557 126.225 65.6111C126.272 65.4919 126.297 65.371 126.304 65.245C126.281 63.1139 126.301 60.9846 126.294 58.8535C129.656 58.8417 133.019 58.8686 136.382 58.8401C136.362 56.6116 136.379 54.3815 136.374 52.1513H143.109C143.111 51.0262 143.111 49.901 143.109 48.7759C137.501 48.7775 131.893 48.7742 126.286 48.7775V52.1496C128.522 52.1513 130.759 52.1513 132.996 52.1496C132.997 53.2597 132.999 54.368 132.996 55.4764C129.636 55.4764 126.276 55.4747 122.917 55.4781C122.917 56.5998 122.919 57.7216 122.916 58.8434C121.797 58.8417 120.676 58.8434 119.557 58.8434V52.1513H122.926V48.7759H116.189C116.187 47.6541 116.189 46.5323 116.189 45.4105C117.309 45.4071 118.432 45.4088 119.556 45.4105C119.561 42.0502 119.557 38.6915 119.557 35.3329C118.43 35.3329 117.304 35.3312 116.18 35.3346C116.179 36.4446 116.182 37.5563 116.179 38.668C115.055 38.6663 113.934 38.6663 112.812 38.6663C112.814 39.7898 112.812 40.9116 112.812 42.0351C111.703 42.03 110.593 42.0384 109.482 42.03C109.469 44.2786 109.482 46.5273 109.476 48.7775C108.357 48.7742 107.236 48.7775 106.117 48.7759V42.0334C104.992 42.0334 103.864 42.0317 102.739 42.0351C102.74 43.1602 102.74 44.2837 102.739 45.4088H99.372C99.3703 43.1636 99.372 40.92 99.372 38.6747C102.74 38.6764 106.109 38.6697 109.477 38.6781C109.494 37.5664 109.482 36.4547 109.484 35.3413H112.819C112.82 34.2161 112.819 33.091 112.82 31.9658C111.708 31.9641 110.596 31.9658 109.486 31.9658C109.484 30.8457 109.486 29.7273 109.484 28.6089C110.596 28.6055 111.708 28.6072 112.82 28.6072C112.834 27.5055 112.79 26.4022 112.846 25.3006C111.747 25.1259 110.601 25.2872 109.486 25.2317C109.484 24.1099 109.484 22.9865 109.486 21.8647C108.363 21.8596 107.241 21.8748 106.119 21.8563C106.097 22.9848 106.114 24.1116 106.109 25.2401H109.477C109.476 26.3602 109.479 27.4804 109.476 28.5988H99.3737C99.3838 27.5005 99.3401 26.4005 99.3989 25.3023C99.2141 25.225 99.0091 25.1998 98.8109 25.2233C97.8751 25.2418 96.9394 25.2267 96.0053 25.2317C96.0002 24.1099 96.007 22.9865 96.0019 21.863C91.5197 21.8664 87.0374 21.863 82.5552 21.8647ZM99.3519 21.8815C99.3619 22.9378 99.3871 23.9957 99.3384 25.0504C99.5198 25.1545 99.7013 25.3023 99.9314 25.2452C100.871 25.2385 101.808 25.2401 102.747 25.2401C102.75 24.115 102.747 22.9898 102.749 21.8647C101.616 21.8731 100.484 21.8462 99.3519 21.8815ZM112.814 21.863C112.797 22.9176 112.842 23.9739 112.787 25.0285C112.958 25.1646 113.153 25.3191 113.398 25.2452C114.326 25.2351 115.253 25.2401 116.18 25.2401C116.179 26.3619 116.18 27.4837 116.18 28.6072C117.306 28.6072 118.43 28.6055 119.556 28.6072C119.559 27.482 119.556 26.3569 119.557 25.2317H116.189V21.8647C115.063 21.863 113.938 21.8664 112.814 21.863ZM122.919 21.863C122.916 29.7122 122.919 37.5597 122.917 45.4088C130.771 45.4088 138.625 45.4105 146.479 45.4071C146.478 37.5597 146.479 29.7122 146.479 21.8647C138.625 21.8647 130.773 21.8664 122.919 21.863ZM59.0016 25.2317V28.6055C60.1272 28.6072 61.2528 28.6072 62.3784 28.6072C62.3767 27.4804 62.3834 26.3552 62.3734 25.2284C61.2494 25.2351 60.1255 25.2301 59.0016 25.2317ZM62.37 35.3329C62.3683 36.4446 62.3717 37.558 62.3683 38.6714C63.4939 38.6781 64.6195 38.673 65.7468 38.6747C65.7468 37.5613 65.7451 36.4479 65.7468 35.3346C64.6212 35.3312 63.4956 35.3346 62.37 35.3329ZM79.1868 38.6663V42.0334H75.8184V45.4088H72.4836C72.4819 44.2837 72.487 43.1568 72.4802 42.0317C71.3563 42.0351 70.2307 42.0317 69.1068 42.0334C69.095 43.0914 69.1303 44.151 69.0833 45.209C69.1118 45.2493 69.1723 45.3316 69.2009 45.3719C70.2895 45.4542 71.3849 45.3853 72.4769 45.4105C72.4702 46.4534 72.4819 47.4962 72.4735 48.5391L72.2736 48.7608C73.3807 48.7893 74.4929 48.7641 75.6017 48.8095C75.7411 48.6415 75.9108 48.4484 75.8318 48.2066C75.8218 47.2746 75.8268 46.3408 75.8268 45.4088H79.1885C79.1834 46.5138 79.1902 47.6205 79.1801 48.7272C80.2906 48.8598 81.438 48.7456 82.5636 48.7843C82.5636 47.8556 82.5619 46.9269 82.567 45.9983C82.6375 45.7531 82.4561 45.5751 82.3486 45.3836C81.3002 45.4407 80.2502 45.3904 79.2019 45.4122C79.1868 44.2887 79.1986 43.1652 79.1952 42.0418C80.3124 42.0401 81.4313 42.0451 82.5485 42.0384C82.5518 43.0695 82.572 44.1023 82.5434 45.1351L82.4191 45.34C83.5834 45.476 84.761 45.3803 85.932 45.4088C85.9454 44.3038 85.9001 43.1972 85.9589 42.0938C84.8467 41.9377 83.6926 42.0838 82.5636 42.0351C82.5619 40.9116 82.5653 39.7881 82.5619 38.6663C81.4363 38.668 80.3107 38.6647 79.1868 38.6663ZM62.37 42.0334C62.3683 45.0377 62.3717 48.0403 62.37 51.0446C62.3868 51.4208 62.291 51.8154 62.4389 52.1765C65.7048 52.1328 68.9741 52.1362 72.24 52.1748C72.3761 52.0019 72.576 51.8205 72.4886 51.5686C72.4819 50.8347 72.4802 50.1025 72.4886 49.3703C72.6029 49.0345 72.2534 48.6634 71.9124 48.7725C70.98 48.7775 70.0476 48.7759 69.1152 48.7759C69.0665 47.6927 69.2126 46.5877 69.0396 45.5213C68.9875 45.4928 68.88 45.4391 68.8279 45.4122C67.8014 45.4004 66.775 45.4139 65.7485 45.4088C65.7451 44.2854 65.7451 43.1602 65.7485 42.0367C64.6229 42.03 63.4956 42.0351 62.37 42.0334ZM75.8318 52.1597C76.9524 52.1412 78.073 52.1563 79.1952 52.1513C79.1633 51.0446 79.2574 49.9262 79.1482 48.8296C78.0713 48.6919 76.9642 48.8397 75.8772 48.7524C75.731 49.8691 75.8537 51.0262 75.8318 52.1597ZM72.4534 52.3864C72.5004 53.4175 72.4634 54.452 72.4752 55.4848C73.5017 55.4831 74.5282 55.4848 75.5546 55.4898C75.7798 55.421 75.894 55.1573 75.8335 54.9339C75.8218 54.0036 75.8268 53.0733 75.8285 52.1429C74.9045 52.1429 73.9822 52.1446 73.0598 52.1396C72.8028 52.0489 72.6348 52.2621 72.4534 52.3864ZM82.5569 55.4848H85.932V52.1429H82.5569C82.5535 53.2563 82.5535 54.3714 82.5569 55.4848ZM139.732 55.4814C139.736 57.7267 139.732 59.9719 139.734 62.2172C140.856 62.2205 141.98 62.2155 143.104 62.2205C143.101 63.1475 143.106 64.0745 143.097 65.0032C143.04 65.2265 143.166 65.4247 143.269 65.6111C144.337 65.5557 145.409 65.5993 146.479 65.5842C146.478 62.2155 146.481 58.8451 146.478 55.4764C144.23 55.4797 141.98 55.4697 139.732 55.4814ZM75.7999 55.74C75.8402 56.7762 75.8083 57.814 75.8201 58.8518H79.1952V55.4764C78.2712 55.4764 77.3489 55.4764 76.4266 55.473C76.151 55.3689 75.9914 55.6141 75.7999 55.74ZM79.1868 62.2105C79.1851 63.3323 79.1868 64.454 79.1868 65.5775C78.0646 65.5775 76.9423 65.5792 75.8201 65.5775C75.8167 66.7027 75.8184 67.8278 75.8184 68.953C76.944 68.9513 78.0696 68.9546 79.1952 68.9513C79.1952 67.8295 79.1935 66.706 79.1969 65.5842C80.3191 65.5859 81.4414 65.5859 82.5636 65.5842V62.2121C81.438 62.2088 80.3124 62.2105 79.1868 62.2105ZM139.734 65.5775C139.731 67.8228 139.739 70.068 139.731 72.3133C140.853 72.3301 141.978 72.315 143.102 72.32C143.101 74.5552 143.104 76.7904 143.101 79.0255C144.226 79.0339 145.352 79.0255 146.478 79.0306C146.481 75.6686 146.476 72.3082 146.481 68.9462C145.355 68.9395 144.231 68.9513 143.109 68.9395C143.116 68.1267 143.102 67.3139 143.114 66.5011C143.102 66.1821 143.188 65.8378 143.013 65.549C141.921 65.6111 140.826 65.5624 139.734 65.5775ZM22.008 99.1892C22.008 100.318 22.0063 101.445 22.008 102.573C23.1336 102.571 24.2592 102.573 25.3831 102.573C25.3848 101.445 25.3848 100.318 25.3848 99.1892H22.008ZM122.917 99.1892C122.919 100.318 122.914 101.446 122.921 102.575C125.157 102.568 127.393 102.578 129.629 102.57C129.63 103.693 129.624 104.818 129.632 105.943C130.756 105.937 131.882 105.942 133.006 105.94C133.006 104.817 133.001 103.693 133.009 102.57C131.883 102.558 130.759 102.565 129.636 102.566C129.62 101.441 129.632 100.314 129.627 99.1892C127.391 99.1909 125.155 99.1875 122.917 99.1892ZM22.008 122.733V146.286H45.5616V122.733H22.008ZM48.93 136.176V139.55C50.0556 139.552 51.1812 139.552 52.3068 139.552V136.176H48.93ZM99.3367 136.321C99.3938 137.396 99.3502 138.474 99.3636 139.552C100.493 139.548 101.622 139.557 102.752 139.547C102.747 138.427 102.745 137.307 102.752 136.188C101.815 136.163 100.876 136.185 99.9382 136.171C99.7198 136.128 99.5198 136.222 99.3367 136.321ZM109.477 142.91V146.286C110.588 146.288 111.698 146.279 112.81 146.291C112.834 145.166 112.812 144.039 112.822 142.914C111.707 142.905 110.593 142.912 109.477 142.91Z" fill="white"/>
<path id="Vector_7" d="M25.3848 25.2402H42.1848C42.1865 30.8374 42.1848 36.4363 42.1848 42.0335C36.5837 42.0335 30.9842 42.0352 25.3831 42.0318C25.3865 36.4346 25.3831 30.8374 25.3848 25.2402ZM28.7448 28.5989V38.6748H38.8248C38.8231 35.3162 38.8282 31.9575 38.8214 28.5989C35.4631 28.5989 32.1048 28.6006 28.7448 28.5989Z" fill="white"/>
<path id="Vector_8" d="M85.9354 25.2363C87.0542 25.243 88.1731 25.2346 89.2937 25.2414C89.2903 26.3598 89.2937 27.4799 89.292 28.5983C88.1714 28.5983 87.0526 28.6 85.932 28.5983C85.9337 27.4782 85.927 26.3564 85.9354 25.2363Z" fill="white"/>
<path id="Vector_9" d="M126.289 25.2501C131.892 25.2265 137.498 25.2467 143.102 25.24V42.0332C137.5 42.0349 131.897 42.0332 126.294 42.0332C126.289 36.4394 126.302 30.8439 126.289 25.2501ZM129.627 28.602C129.631 31.959 129.627 35.3159 129.629 38.6746H139.742V28.5986C136.371 28.6003 132.999 28.5953 129.627 28.602Z" fill="white"/>
<path id="Vector_10" d="M102.749 31.9763C104.992 31.9729 107.234 31.9763 109.477 31.9746C109.479 33.093 109.476 34.2115 109.479 35.3299C107.236 35.3383 104.992 35.3316 102.749 35.3333V31.9763Z" fill="white"/>
<path id="Vector_11" d="M96.0036 35.3412C97.1242 35.3412 98.243 35.3396 99.3636 35.3429C99.3619 36.4496 99.3636 37.5579 99.3636 38.6663H96.0053C96.0019 37.5579 96.0036 36.4496 96.0036 35.3412Z" fill="white"/>
<path id="Vector_12" d="M112.81 42.057C113.933 42.0234 115.056 42.0486 116.18 42.0419C116.179 43.1654 116.18 44.2871 116.179 45.4089H112.82C112.814 44.2922 112.83 43.1737 112.81 42.057Z" fill="white"/>
<path id="Vector_13" d="M112.82 52.1511C113.939 52.1495 115.06 52.1511 116.179 52.1511C116.18 54.3813 116.18 56.6131 116.179 58.8432H112.82V52.1511Z" fill="white"/>
<path id="Vector_14" d="M32.1216 58.8518C33.2422 58.8535 34.3627 58.8485 35.4833 58.8552C35.4799 59.9736 35.4816 61.092 35.4816 62.2105C34.3611 62.2105 33.2405 62.2121 32.1199 62.2088C32.1233 61.0887 32.1199 59.9702 32.1216 58.8518Z" fill="white"/>
<path id="Vector_15" d="M28.7532 62.2185C29.8738 62.2168 30.9926 62.2185 32.1132 62.2185C32.1149 65.5805 32.1082 68.9425 32.1166 72.3045C30.996 72.3197 29.8754 72.3062 28.7549 72.3113C28.7515 68.9476 28.7549 65.5839 28.7532 62.2185Z" fill="white"/>
<path id="Vector_16" d="M38.8231 65.588C41.0693 65.5847 43.3154 65.5864 45.5616 65.5864V68.9433C43.3154 68.9433 41.0693 68.95 38.8214 68.94C38.8265 67.8232 38.8231 66.7048 38.8231 65.588Z" fill="white"/>
<path id="Vector_17" d="M96.0036 68.9446C96.0036 67.8245 96.0019 66.7044 96.0053 65.5859H99.3636C99.3636 66.7044 99.3619 67.8245 99.3636 68.9429C98.243 68.9446 97.1242 68.9429 96.0036 68.9446Z" fill="white"/>
<path id="Vector_18" d="M48.9333 68.9594C50.0556 68.9459 51.1761 68.956 52.2984 68.9527V75.6532C51.1795 75.6548 50.059 75.6515 48.9401 75.6548C48.9334 73.423 48.9451 71.1912 48.9333 68.9594Z" fill="white"/>
<path id="Vector_19" d="M55.6416 72.322C56.7605 72.3203 57.881 72.3203 59.0016 72.3203C59.0016 73.4337 58.9999 74.5488 59.0016 75.6622H65.7384V79.0292H75.8184C75.8184 81.2745 75.8201 83.5181 75.8184 85.7616C76.9406 85.7633 78.0629 85.7616 79.1868 85.7633C79.1868 87.9935 79.1851 90.2236 79.1868 92.4537C78.0662 92.4571 76.9474 92.4537 75.8268 92.4554C75.8251 91.3437 75.8268 90.2337 75.8268 89.122C74.7113 89.122 73.5974 89.1236 72.4819 89.122C72.4853 87.9985 72.4836 86.8767 72.4836 85.7549H65.7468V82.3879H59.01V79.0208H55.6433C55.6399 76.7873 55.6416 74.5538 55.6416 72.322Z" fill="white"/>
<path id="Vector_20" d="M42.1915 79.0304C43.3154 79.0271 44.4377 79.0287 45.5616 79.0287C45.5633 80.1472 45.5582 81.2639 45.565 82.3824C44.441 82.3941 43.3171 82.384 42.1949 82.3874C42.1915 81.269 42.1949 80.1488 42.1915 79.0304Z" fill="white"/>
<path id="Vector_21" d="M79.1952 82.3879C79.1952 81.2678 79.1935 80.1477 79.1969 79.0293H85.9236C85.9253 81.2712 85.9219 83.5114 85.9253 85.7533C84.8047 85.7567 83.6841 85.755 82.5636 85.755V82.3879H79.1952Z" fill="white"/>
<path id="Vector_22" d="M109.486 82.3955H112.812C112.812 83.5139 112.81 84.6341 112.814 85.7525C111.703 85.7542 110.593 85.7558 109.484 85.7525C109.486 84.6324 109.484 83.5139 109.486 82.3955Z" fill="white"/>
<path id="Vector_23" d="M32.1216 85.763C33.2405 85.7613 34.3611 85.7613 35.4816 85.763C35.485 86.878 35.4732 87.9948 35.4883 89.1099C34.3661 89.1367 33.2439 89.1149 32.1216 89.1216V85.763Z" fill="white"/>
<path id="Vector_24" d="M42.1915 85.7648C45.5616 85.7614 48.93 85.7631 52.2984 85.7631C52.2984 86.8832 52.3001 88.0033 52.2984 89.1218C51.1745 89.1218 50.0522 89.1184 48.9283 89.1251C48.9317 90.2335 48.9283 91.3435 48.93 92.4535C47.8078 92.4569 46.6855 92.4519 45.5616 92.4569C45.5599 91.3452 45.5616 90.2335 45.5616 89.1218H42.1932C42.1915 88.0033 42.1932 86.8832 42.1915 85.7648Z" fill="white"/>
<path id="Vector_25" d="M55.6416 85.7634C56.7605 85.7618 57.881 85.7634 59.0016 85.7634C59.0033 86.8802 58.9982 87.9986 59.0033 89.117C57.8827 89.1288 56.7622 89.1187 55.6416 89.1221V85.7634Z" fill="white"/>
<path id="Vector_26" d="M85.932 85.7634C88.163 85.7634 90.3941 85.7618 92.6268 85.7634V89.1221C90.3941 89.1204 88.163 89.1254 85.9303 89.1204C85.9337 88.0003 85.9303 86.8819 85.932 85.7634Z" fill="white"/>
<path id="Vector_27" d="M59.01 89.1279C61.2528 89.1313 63.4956 89.1279 65.7384 89.1296C65.7401 90.238 65.7384 91.3446 65.7384 92.453C64.6178 92.4547 63.4956 92.4563 62.3734 92.453C62.3666 93.5748 62.37 94.6966 62.3717 95.82C61.2461 95.8268 60.1222 95.8133 58.9966 95.8284C59.01 96.9452 58.9932 98.0619 59.0066 99.1804C57.8844 99.2005 56.7638 99.182 55.6433 99.1904C55.6382 96.9485 55.6466 94.7083 55.6382 92.4681C56.7622 92.4564 57.8861 92.4664 59.01 92.4614V89.1279Z" fill="white"/>
<path id="Vector_28" d="M69.1152 92.4547C69.1152 91.3464 69.1118 90.2363 69.1169 89.1297C70.2358 89.1297 71.3546 89.128 72.4752 89.1297C72.4752 90.238 72.4735 91.3447 72.4752 92.453C71.3546 92.4564 70.2358 92.453 69.1152 92.4547Z" fill="white"/>
<path id="Vector_29" d="M82.5636 92.4547C82.5636 91.3464 82.5619 90.238 82.5653 89.1297C83.6841 89.1297 84.803 89.128 85.9236 89.1297C85.9236 90.238 85.9219 91.3447 85.9236 92.453C84.8047 92.4547 83.6842 92.4547 82.5636 92.4547Z" fill="white"/>
<path id="Vector_30" d="M45.5616 95.8301H48.93V99.1971C51.1644 99.1971 53.3988 99.1954 55.6332 99.1971C55.6332 100.322 55.6315 101.447 55.6332 102.573H62.37V105.94C63.4922 105.94 64.6145 105.938 65.7384 105.94V112.64C66.8623 112.64 67.9879 112.637 69.1118 112.642C69.1202 108.16 69.1118 103.678 69.1169 99.1971C70.2358 99.1971 71.3546 99.1954 72.4752 99.1971C72.4685 104.801 72.4903 110.403 72.4634 116.007C70.224 115.985 67.9846 116.009 65.7468 115.994C65.7266 119.364 65.7451 122.736 65.7367 126.107C66.8606 126.11 67.9829 126.107 69.1068 126.108C69.1068 127.22 69.1085 128.332 69.1051 129.443C66.8606 129.44 64.6145 129.442 62.37 129.442C62.37 131.687 62.3717 133.931 62.37 136.176H59.01C59.005 132.826 59.0234 129.477 58.9999 126.128C60.1255 126.085 61.2528 126.118 62.3784 126.108C62.3767 124.983 62.3784 123.858 62.3767 122.733C61.2511 122.733 60.1272 122.731 59.0016 122.735C59.0033 123.856 58.9966 124.978 59.005 126.1C57.881 126.102 56.7554 126.095 55.6315 126.105C55.6349 127.217 55.6332 128.328 55.6332 129.442H52.3068C52.3051 127.21 52.3102 124.98 52.3034 122.75C53.4156 122.731 54.5278 122.745 55.6416 122.741C55.6382 121.625 55.6466 120.508 55.6366 119.393C56.7605 119.351 57.8844 119.384 59.01 119.374V115.999C57.8861 115.997 56.7638 115.997 55.6416 115.999C55.6399 113.772 55.645 111.545 55.6382 109.318C56.7588 109.293 57.881 109.312 59.0016 109.307V112.64C60.1255 112.64 61.2494 112.637 62.3734 112.643C62.3818 111.528 62.3767 110.413 62.3784 109.298C61.2545 109.297 60.1322 109.298 59.01 109.298V105.931H55.6332C55.6349 107.053 55.6265 108.176 55.6399 109.298C54.5278 109.297 53.4173 109.3 52.3068 109.298V105.931H45.5616V102.564C44.436 102.564 43.3104 102.562 42.1848 102.564V105.94H45.5616C45.565 107.06 45.5549 108.18 45.5683 109.3C44.4393 109.297 43.3121 109.298 42.1848 109.298C42.1848 110.408 42.1831 111.518 42.1865 112.628C41.0659 112.637 39.947 112.627 38.8265 112.633C38.8214 111.522 38.8265 110.41 38.8248 109.298H35.49V105.94H38.8231C38.8265 103.693 38.8231 101.446 38.8248 99.1971C41.0726 99.1887 43.3205 99.2106 45.5666 99.187C45.5549 98.0669 45.565 96.9485 45.5616 95.8301Z" fill="white"/>
<path id="Vector_31" d="M62.3784 95.8301H65.7384C65.7367 98.0753 65.7451 100.321 65.7334 102.566C64.6145 102.561 63.4956 102.566 62.3784 102.564V95.8301Z" fill="white"/>
<path id="Vector_32" d="M72.4836 99.1887C72.4853 98.0686 72.4819 96.9485 72.4853 95.8301H82.5552V99.1971C83.6774 99.1971 84.7997 99.1954 85.9236 99.1971V102.564C83.6791 102.562 81.4346 102.566 79.1902 102.562C79.1818 103.686 79.1885 104.808 79.1851 105.931H75.8268V99.1887C74.7113 99.187 73.5975 99.1887 72.4836 99.1887Z" fill="white"/>
<path id="Vector_33" d="M96.0036 99.1963C98.2498 99.198 100.494 99.1963 102.739 99.198C102.742 103.675 102.739 108.154 102.74 112.633C101.616 112.633 100.493 112.636 99.3703 112.631C99.372 109.276 99.372 105.92 99.3703 102.565H96.0036C96.0053 101.442 96.0019 100.318 96.0036 99.1963Z" fill="white"/>
<path id="Vector_34" d="M85.932 102.573C87.0526 102.571 88.1715 102.576 89.292 102.569C89.292 103.693 89.292 104.816 89.2937 105.94H92.6268C92.6268 108.172 92.6268 110.402 92.6251 112.632C90.3924 112.632 88.158 112.634 85.9253 112.632C85.9219 113.755 85.9253 114.88 85.9236 116.006C88.158 116.011 90.3941 116.002 92.6302 116.011C92.6403 114.885 92.6318 113.762 92.6369 112.639C94.878 112.642 97.1208 112.639 99.3636 112.64V116.006C100.488 116.007 101.613 116.007 102.739 116.007C102.742 117.126 102.739 118.246 102.74 119.364C101.616 119.366 100.491 119.366 99.367 119.364C99.3586 121.61 99.367 123.855 99.3636 126.1C98.2397 126.103 97.1158 126.093 95.9935 126.107C95.9952 128.34 95.9969 130.575 95.9935 132.811C92.6386 132.807 89.2853 132.811 85.932 132.809C85.9303 131.685 85.9337 130.564 85.9303 129.442C84.8047 129.437 83.6808 129.452 82.5569 129.433C82.572 127.2 82.5603 124.966 82.5636 122.733C81.4397 122.731 80.3175 122.735 79.1935 122.731C79.1952 121.61 79.1952 120.488 79.1952 119.366C78.0713 119.364 76.9491 119.368 75.8251 119.364C75.8302 117.122 75.8201 114.88 75.8302 112.639C76.9491 112.642 78.0679 112.639 79.1868 112.64V116.007C80.3107 116.009 81.4347 116.002 82.5586 116.011C82.5737 112.654 82.5535 109.295 82.5687 105.938C83.6909 105.941 84.8115 105.94 85.932 105.938C85.9303 104.816 85.932 103.694 85.932 102.573ZM85.9219 126.105C87.0459 126.117 88.1715 126.095 89.2954 126.119C89.2887 127.227 89.2937 128.334 89.2937 129.442H92.6352V122.733C91.5247 122.733 90.4143 122.73 89.3038 122.736C89.2937 121.611 89.3071 120.488 89.2954 119.364C88.1731 119.368 87.0492 119.366 85.927 119.366C85.9186 121.611 85.927 123.858 85.9219 126.105Z" fill="white"/>
<path id="Vector_35" d="M92.6352 102.569C93.7541 102.578 94.8747 102.569 95.9952 102.573C95.9935 103.693 95.9969 104.813 95.9935 105.933C94.873 105.928 93.7541 105.933 92.6335 105.931C92.6352 104.81 92.6352 103.689 92.6352 102.569Z" fill="white"/>
<path id="Vector_36" d="M32.1216 109.307C33.2422 109.306 34.3611 109.307 35.4816 109.307C35.485 110.409 35.4732 111.512 35.4883 112.614C34.3661 112.654 33.2439 112.622 32.1216 112.632V109.307Z" fill="white"/>
<path id="Vector_37" d="M35.49 112.638C36.5988 112.644 37.7076 112.638 38.8164 112.641C38.8181 113.758 38.813 114.876 38.8198 115.993C37.711 116.008 36.6005 115.995 35.4917 116.001C35.4883 114.88 35.4917 113.758 35.49 112.638Z" fill="white"/>
<path id="Vector_38" d="M52.3068 119.366C52.3119 118.244 52.2967 117.124 52.3152 116.004C53.4207 116.012 54.5261 116.004 55.6332 116.007C55.6383 117.127 55.6231 118.247 55.6416 119.368C54.5295 119.364 53.4173 119.366 52.3068 119.366Z" fill="white"/>
<path id="Vector_39" d="M72.4836 122.732C72.4903 121.612 72.4702 120.49 72.4937 119.37C73.6025 119.382 74.7096 119.372 75.8184 119.375V122.734C74.7062 122.734 73.5941 122.735 72.4836 122.732Z" fill="white"/>
<path id="Vector_40" d="M119.557 119.375C122.912 119.372 126.265 119.382 129.619 119.37C129.642 122.727 129.622 126.084 129.629 129.443C126.272 129.444 122.916 129.441 119.559 129.443C119.557 126.087 119.557 122.732 119.557 119.375ZM122.917 122.734C122.916 123.859 122.917 124.984 122.917 126.109H126.294C126.292 124.984 126.294 123.859 126.294 122.735C125.168 122.732 124.043 122.734 122.917 122.734Z" fill="white"/>
<path id="Vector_41" d="M136.374 119.374C137.491 119.373 138.607 119.378 139.724 119.371C139.746 121.613 139.727 123.857 139.734 126.1C138.612 126.102 137.491 126.1 136.371 126.1C136.377 123.858 136.371 121.616 136.374 119.374Z" fill="white"/>
<path id="Vector_42" d="M75.8335 122.738C76.9507 122.743 78.0679 122.74 79.1868 122.742V126.1C78.0645 126.095 76.9423 126.112 75.8201 126.092C75.8369 124.973 75.815 123.855 75.8335 122.738Z" fill="white"/>
<path id="Vector_43" d="M25.3848 126.108H42.1848V142.91H25.3848V126.108ZM28.7448 129.442C28.7448 132.812 28.7465 136.181 28.7448 139.551H38.8248V129.442H28.7448Z" fill="white"/>
<path id="Vector_44" d="M72.4819 126.115C73.5941 126.1 74.7063 126.112 75.8184 126.109C75.8167 127.22 75.8235 128.332 75.8134 129.444C74.7029 129.439 73.5924 129.444 72.4836 129.442C72.4836 128.332 72.4853 127.224 72.4819 126.115Z" fill="white"/>
<path id="Vector_45" d="M99.372 126.108C100.496 126.115 101.622 126.09 102.747 126.123C102.734 127.228 102.742 128.335 102.742 129.44C101.62 129.445 100.499 129.435 99.3787 129.447C99.3636 128.333 99.3737 127.22 99.372 126.108Z" fill="white"/>
<path id="Vector_46" d="M133.006 126.109C134.128 126.117 135.252 126.087 136.374 126.127C136.356 127.232 136.371 128.337 136.366 129.442C135.247 129.444 134.128 129.439 133.009 129.444C133.001 128.332 133.006 127.22 133.006 126.109Z" fill="white"/>
<path id="Vector_47" d="M139.742 129.442C140.863 129.442 141.982 129.44 143.102 129.444C143.102 130.564 143.101 131.685 143.104 132.807C141.982 132.811 140.863 132.809 139.742 132.809C139.742 131.685 139.741 130.564 139.742 129.442Z" fill="white"/>
<path id="Vector_48" d="M136.374 132.818C137.493 132.816 138.612 132.82 139.731 132.816C139.742 136.178 139.724 139.542 139.739 142.904C138.617 142.918 137.495 142.907 136.374 142.911C136.374 139.545 136.372 136.182 136.374 132.818Z" fill="white"/>
<path id="Vector_49" d="M85.932 136.184C88.163 136.184 90.3941 136.183 92.6268 136.184V139.543H85.932C85.9303 138.423 85.9303 137.303 85.932 136.184Z" fill="white"/>
<path id="Vector_50" d="M33.5496 171.659C34.393 171.663 35.2346 171.659 36.078 171.661C37.1599 174.47 38.341 177.245 39.354 180.079C40.3754 177.238 41.5918 174.47 42.6972 171.661C43.5103 171.661 44.3234 171.659 45.1366 171.661C45.1416 175.251 45.1231 178.84 45.145 182.429C44.5469 182.447 43.9488 182.442 43.3507 182.442C43.3978 179.438 43.2432 176.427 43.4515 173.429C42.4166 176.475 41.0743 179.411 39.9521 182.425C39.527 182.442 39.102 182.445 38.677 182.44C37.8168 180.296 36.9499 178.156 36.0864 176.014C35.7521 175.159 35.3455 174.324 35.1758 173.417C35.2514 176.423 35.196 179.433 35.2128 182.442C34.6567 182.44 34.1023 182.44 33.5462 182.44C33.5479 178.847 33.5429 175.253 33.5496 171.659Z" fill="white"/>
<path id="Vector_51" d="M47.7926 171.662C48.389 171.659 48.9871 171.659 49.5869 171.66C49.5886 173.105 49.5869 174.547 49.5869 175.993C50.9662 176.038 52.4698 175.79 53.7197 176.524C55.4417 177.511 55.4635 180.221 54.0859 181.51C53.3736 182.18 52.369 182.445 51.4097 182.442C50.2051 182.442 48.9989 182.44 47.7943 182.442C47.7909 178.848 47.7943 175.256 47.7926 171.662ZM49.5869 177.459C49.5886 178.631 49.5852 179.803 49.5886 180.977C50.4874 180.927 51.4466 181.132 52.2917 180.739C53.4912 180.168 53.4811 178.053 52.1791 177.617C51.3425 177.346 50.4487 177.491 49.5869 177.459Z" fill="white"/>
<path id="Vector_52" d="M56.2061 171.657C56.8008 171.661 57.3955 171.661 57.9919 171.661C57.9953 175.254 57.9936 178.848 57.9936 182.442C57.3955 182.442 56.7991 182.44 56.201 182.442C56.2044 178.846 56.1943 175.251 56.2061 171.657Z" fill="white"/>
<path id="Vector_53" d="M64.8951 171.66C65.4948 171.659 66.0946 171.659 66.6943 171.66C66.6977 173.17 66.6943 174.682 66.696 176.195H71.7579C71.7595 174.683 71.7562 173.172 71.7579 171.66C72.3627 171.659 72.9658 171.659 73.5706 171.66V182.442C72.9658 182.442 72.361 182.442 71.7562 182.44C71.7578 180.885 71.7579 179.328 71.7579 177.773C70.0695 177.771 68.3827 177.773 66.696 177.773V182.442C66.0946 182.442 65.4948 182.442 64.8951 182.44V171.66Z" fill="white"/>
<path id="Vector_54" d="M79.049 171.664C79.7261 171.657 80.4048 171.659 81.0818 171.662C82.4158 175.256 83.7547 178.848 85.0886 182.442C84.4301 182.442 83.7715 182.44 83.113 182.442C82.7854 181.532 82.4678 180.618 82.1436 179.708H77.9134C77.6042 180.618 77.2951 181.53 76.9843 182.442C76.3274 182.44 75.6706 182.442 75.0154 182.442C76.3577 178.848 77.7101 175.258 79.049 171.664ZM80.0268 173.257C79.6034 174.95 78.918 176.567 78.3871 178.232H81.6631C81.1373 176.567 80.4166 174.959 80.0268 173.257Z" fill="white"/>
<path id="Vector_55" d="M90.7671 171.661C91.3668 171.659 91.9666 171.659 92.5663 171.661C92.568 173.35 92.5697 175.041 92.5663 176.732C93.8498 175.031 95.1619 173.35 96.4622 171.659C97.1813 171.661 97.9003 171.659 98.6211 171.661C97.2115 173.387 95.7953 175.109 94.3875 176.837C95.9028 178.706 97.4249 180.57 98.9386 182.442H96.5899C95.2543 180.674 93.8918 178.926 92.5764 177.144C92.5579 178.909 92.573 180.675 92.568 182.442C91.9699 182.44 91.3719 182.439 90.7755 182.447C90.757 178.852 90.7721 175.256 90.7671 171.661Z" fill="white"/>
<path id="Vector_56" d="M103.011 171.661C103.686 171.661 104.362 171.659 105.037 171.661C106.362 175.258 107.733 178.84 109.029 182.447C108.372 182.439 107.717 182.444 107.061 182.437C106.751 181.527 106.418 180.623 106.107 179.713C104.694 179.703 103.281 179.708 101.868 179.71C101.564 180.62 101.249 181.529 100.944 182.44C100.286 182.442 99.629 182.44 98.9722 182.442C100.318 178.847 101.664 175.253 103.011 171.661ZM103.979 173.293C103.542 174.971 102.875 176.581 102.344 178.232H105.62C105.087 176.581 104.402 174.976 103.979 173.293Z" fill="white"/>
<path id="Vector_57" d="M110.526 171.661C111.764 171.669 113.002 171.644 114.242 171.672C115.381 171.718 116.609 172.148 117.241 173.155C118.159 174.697 117.729 176.962 116.159 177.918C115.026 178.673 113.612 178.534 112.32 178.539C112.316 179.839 112.321 181.14 112.316 182.442C111.718 182.44 111.122 182.442 110.524 182.442C110.524 178.848 110.524 175.254 110.526 171.661ZM112.318 173.138C112.318 174.448 112.318 175.756 112.32 177.066C113.118 177.044 113.961 177.167 114.719 176.848C115.954 176.368 116.194 174.5 115.272 173.624C114.442 172.955 113.303 173.18 112.318 173.138Z" fill="white"/>
<path id="Vector_58" d="M118.474 171.66H126.457C126.459 172.171 126.459 172.683 126.447 173.197C125.42 173.185 124.392 173.193 123.366 173.192V182.441H121.565C121.563 179.358 121.565 176.275 121.565 173.192C120.533 173.19 119.503 173.193 118.474 173.19C118.474 172.68 118.472 172.169 118.474 171.66Z" fill="white"/>
<path id="Vector_59" d="M128.029 171.66H133.856C133.854 172.169 133.854 172.678 133.857 173.188C132.512 173.203 131.166 173.17 129.822 173.207C129.839 174.213 129.825 175.22 129.83 176.228C131.065 176.228 132.3 176.228 133.536 176.226C133.538 176.733 133.538 177.241 133.538 177.749C132.3 177.758 131.062 177.738 129.825 177.761C129.835 178.817 129.827 179.872 129.83 180.93C131.253 180.938 132.675 180.913 134.098 180.942C134.089 181.441 134.089 181.939 134.091 182.441C132.07 182.441 130.049 182.443 128.028 182.44C128.031 178.846 128.028 175.254 128.029 171.66Z" fill="white"/>
</g>
<g id="#000000ff">
<path id="Vector_60" d="M22.0097 21.8633C29.8603 21.8666 37.7093 21.865 45.5599 21.865C45.5633 29.7124 45.5616 37.5599 45.5616 45.4091H22.008C22.008 37.5599 22.0063 29.7124 22.0097 21.8633ZM25.3848 25.2404C25.3831 30.8376 25.3865 36.4348 25.3831 42.032C30.9843 42.0353 36.5837 42.0337 42.1848 42.0337C42.1848 36.4365 42.1865 30.8376 42.1848 25.2404H25.3848Z" fill="black"/>
<path id="Vector_61" d="M52.2984 21.8643C53.4123 21.8643 54.5261 21.8659 55.6399 21.8643C55.6433 22.9877 55.6416 24.1129 55.6416 25.2397C54.5295 25.2397 53.4173 25.238 52.3068 25.2397C52.3085 31.9637 52.3035 38.6861 52.3085 45.4101C53.4173 45.4067 54.5244 45.4101 55.6332 45.4084C55.6332 42.0497 55.6315 38.6911 55.6332 35.3324C56.7588 35.3341 57.8844 35.3291 59.01 35.3341V48.7822C57.8878 48.7855 56.7639 48.7805 55.6399 48.7855C55.6433 49.9056 55.6399 51.0274 55.6416 52.1492C54.5311 52.1526 53.419 52.1509 52.3085 52.1492C52.3068 53.2592 52.3018 54.3676 52.3119 55.4776C54.5412 55.4726 56.7706 55.4776 59.0016 55.4759C58.9999 54.3659 59.005 53.2559 58.9983 52.1475C60.055 52.124 61.1151 52.1744 62.1718 52.1173C62.2995 52.2903 62.4523 52.4817 62.3834 52.7185C62.375 53.6388 62.3751 54.5574 62.3818 55.4776C63.504 55.4743 64.6246 55.4743 65.7468 55.4776C65.7468 56.5994 65.7451 57.7212 65.7485 58.843C67.993 58.843 70.2391 58.8413 72.4836 58.8447V68.9509C69.1135 68.9542 65.7418 68.9509 62.37 68.9525V65.5855C61.2495 65.5855 60.1289 65.5838 59.01 65.5872C59.0117 67.8291 59.0083 70.071 59.0117 72.3129C61.2562 72.3095 63.5007 72.3112 65.7468 72.3112C65.7468 73.4246 65.7451 74.5396 65.7468 75.653C69.1051 75.6514 72.4618 75.6547 75.8184 75.6514C75.8201 74.538 75.8151 73.4229 75.8218 72.3095C79.1919 72.3129 82.5619 72.3095 85.932 72.3112C85.932 73.4246 85.9303 74.5396 85.932 75.653H89.2987C89.3021 77.8966 89.3004 80.1419 89.3004 82.3855C90.4109 82.3888 91.5231 82.3855 92.6352 82.3871V85.7542H96.0036C96.0036 86.8793 96.0053 88.0045 96.0019 89.1296C94.8797 89.1279 93.7575 89.1296 92.6369 89.1296C92.6335 90.2396 92.6352 91.3514 92.6352 92.4614C90.4008 92.4648 88.1664 92.4614 85.932 92.4631C85.9303 93.5815 85.932 94.7016 85.9303 95.8201C87.0543 95.8234 88.1765 95.8217 89.2987 95.8217C89.3055 98.0703 89.2903 100.319 89.3071 102.568C90.4092 102.563 91.513 102.561 92.6167 102.569C92.6386 101.441 92.6184 100.314 92.6285 99.1888C93.7524 99.1854 94.8746 99.1972 95.9986 99.1804C95.9919 98.0603 95.9952 96.9418 95.9969 95.8217H102.747C102.749 96.9435 102.749 98.0636 102.747 99.1871C104.992 99.1905 107.236 99.1905 109.481 99.1854C109.492 101.437 109.481 103.688 109.486 105.94C108.363 105.94 107.239 105.938 106.117 105.94C106.116 108.17 106.121 110.398 106.116 112.628C107.236 112.637 108.357 112.63 109.477 112.632V109.298C111.713 109.295 113.948 109.303 116.182 109.295C116.196 110.41 116.184 111.525 116.189 112.64C113.954 112.64 111.72 112.638 109.486 112.64C109.484 113.762 109.484 114.884 109.486 116.007C108.363 116.007 107.239 116.006 106.117 116.007V126.1C107.239 126.1 108.362 126.098 109.486 126.102V132.809H112.812C112.815 131.685 112.805 130.562 112.817 129.44C113.938 129.443 115.06 129.442 116.18 129.44C116.182 127.212 116.175 124.982 116.185 122.753C113.949 122.726 111.713 122.748 109.477 122.741V119.366C110.588 119.366 111.698 119.363 112.809 119.368C112.817 118.244 112.809 117.121 112.814 115.999H119.549V112.632H122.917C122.917 111.52 122.916 110.41 122.917 109.298C126.282 109.303 129.646 109.288 133.009 109.307C133.001 110.417 133.007 111.528 133.006 112.64C131.88 112.64 130.754 112.638 129.629 112.64C129.63 113.76 129.624 114.88 129.634 116.002C130.756 115.994 131.878 116.002 133.001 115.997C133.012 117.121 132.997 118.244 133.009 119.368C134.128 119.363 135.247 119.368 136.366 119.366V115.999C137.491 116 138.618 115.994 139.744 116.004C139.739 117.124 139.744 118.244 139.742 119.366H143.102C143.104 117.126 143.099 114.885 143.106 112.645C141.977 112.625 140.85 112.662 139.724 112.623C139.747 110.393 139.726 108.161 139.734 105.931H143.102C143.102 104.811 143.101 103.693 143.102 102.574C141.98 102.571 140.858 102.573 139.736 102.574C139.731 101.446 139.734 100.317 139.734 99.1888H143.102V92.4631C141.978 92.4614 140.856 92.4664 139.732 92.4597C139.734 91.3497 139.732 90.2396 139.734 89.1296C138.613 89.1279 137.495 89.1296 136.374 89.1296C136.372 91.3631 136.374 93.5966 136.374 95.8301C135.247 95.8284 134.121 95.8318 132.997 95.8284C132.997 94.7067 132.999 93.5849 132.996 92.4631H129.629C129.627 93.5849 129.629 94.7067 129.629 95.8301C126.269 95.8301 122.909 95.8318 119.549 95.8284C119.549 94.7033 119.547 93.5798 119.549 92.4547H126.286C126.281 91.3446 126.297 90.2329 126.276 89.1246C125.157 89.1363 124.039 89.1229 122.921 89.133C122.912 88.0078 122.921 86.8844 122.916 85.7609C121.795 85.7626 120.676 85.7609 119.557 85.7626V89.1296C118.435 89.1296 117.311 89.1279 116.189 89.1296C116.187 92.4816 116.19 95.8352 116.189 99.1871C117.309 99.1905 118.433 99.1888 119.556 99.1888C119.559 100.316 119.556 101.444 119.557 102.573C118.435 102.573 117.311 102.571 116.189 102.573C116.189 103.694 116.187 104.816 116.189 105.938C115.063 105.941 113.938 105.938 112.814 105.94C112.81 101.447 112.814 96.9553 112.812 92.4631H109.486C109.484 93.5849 109.486 94.7083 109.486 95.8301C108.358 95.8284 107.233 95.8318 106.109 95.8284C106.109 94.7033 106.107 93.5798 106.109 92.4547H109.477C109.472 91.3446 109.487 90.2346 109.469 89.1246C107.229 89.1347 104.988 89.1263 102.749 89.1296C102.747 90.2396 102.749 91.3514 102.749 92.4631H99.3636C99.3636 90.2262 99.3619 87.9894 99.3653 85.7542H102.74C102.74 84.6307 102.739 83.5089 102.74 82.3871H109.477V79.0201C110.589 79.0184 111.7 79.0201 112.812 79.0201V75.653H116.179C116.18 74.5413 116.18 73.4313 116.179 72.3196H109.486C109.484 73.433 109.486 74.548 109.486 75.6614C107.239 75.6614 104.993 75.6597 102.749 75.6614V79.0285H99.372C99.3703 80.1503 99.3703 81.2721 99.372 82.3938C98.2464 82.3972 97.1208 82.3955 95.9952 82.3955C95.9935 81.2721 95.9952 80.1503 95.9952 79.0285H92.6268C92.6268 77.9033 92.6251 76.7782 92.6285 75.653H99.3636C99.367 74.6639 99.3603 73.6731 99.3619 72.6857C99.3888 72.6118 99.4409 72.4674 99.4678 72.3951C99.5417 72.3733 99.6912 72.3313 99.7668 72.3095C103.002 72.3129 106.24 72.3095 109.477 72.3112V65.5771C111.713 65.5771 113.951 65.5788 116.187 65.5771C116.19 66.6989 116.189 67.8207 116.189 68.9425C117.311 68.9441 118.433 68.9441 119.556 68.9425C119.559 70.0659 119.557 71.1877 119.557 72.3095C120.676 72.3129 121.797 72.3112 122.917 72.3112C122.917 71.1894 122.916 70.0659 122.917 68.9441C124.039 68.9424 125.162 68.9441 126.286 68.9441C126.286 68.0121 126.289 67.0818 126.281 66.1514C126.207 65.913 126.365 65.7232 126.494 65.5519C127.537 65.6073 128.582 65.5636 129.629 65.5771V62.2117C131.877 62.2084 134.124 62.2117 136.374 62.21V65.5855C135.25 65.5855 134.128 65.5838 133.006 65.5855C133.004 66.7039 133.006 67.824 133.006 68.9425C134.126 68.9441 135.248 68.9458 136.371 68.9425C136.377 70.0676 136.372 71.1928 136.374 72.3196C135.247 72.3179 134.121 72.3229 132.996 72.3179C132.997 71.1944 132.999 70.0726 132.996 68.9525C131.873 68.9542 130.751 68.9509 129.629 68.9525C129.627 70.0743 129.629 71.1961 129.629 72.3196C128.517 72.3213 127.406 72.3179 126.294 72.3196C126.292 73.433 126.294 74.548 126.292 75.6614C125.17 75.6614 124.048 75.6597 122.926 75.6614C122.924 76.7832 122.926 77.9067 122.926 79.0285H116.189C116.187 81.2704 116.189 83.5106 116.189 85.7525C117.308 85.7559 118.428 85.7525 119.549 85.7542C119.549 84.6324 119.547 83.5089 119.549 82.3871H126.286V79.0201C127.396 79.015 128.507 79.0285 129.617 79.0134C129.644 82.3821 129.622 85.7508 129.627 89.1195C130.751 89.1246 131.873 89.1212 132.997 89.1212C132.996 85.7559 132.999 82.3922 132.996 79.0268C131.872 79.0302 130.749 79.0268 129.627 79.0285C129.63 77.9033 129.627 76.7782 129.629 75.653C130.753 75.6514 131.878 75.6547 133.002 75.6514C133.007 76.7731 133.004 77.8966 133.006 79.0184C134.128 79.0218 135.252 79.0167 136.376 79.0218C136.367 81.262 136.384 83.5022 136.367 85.7424C137.491 85.7693 138.617 85.7458 139.742 85.7559C139.741 86.876 139.744 87.9977 139.741 89.1195C140.86 89.1246 141.98 89.1195 143.101 89.1229C143.104 86.8776 143.101 84.6324 143.102 82.3871H146.479V89.1296H143.111C143.109 90.238 143.111 91.3446 143.111 92.453C144.233 92.4564 145.357 92.4513 146.481 92.4564C146.476 96.9519 146.479 101.446 146.479 105.94H143.111C143.112 107.06 143.106 108.18 143.116 109.3C144.236 109.297 145.357 109.298 146.479 109.298V119.374H143.111V126.1H146.479V132.817C145.355 132.817 144.233 132.816 143.111 132.817V136.176H146.479V146.285C145.354 146.284 144.228 146.285 143.102 146.285V142.918H139.742C139.741 144.04 139.742 145.162 139.742 146.284C135.257 146.285 130.771 146.285 126.286 146.285V142.91C127.401 142.908 128.515 142.913 129.63 142.907C129.627 141.785 129.629 140.665 129.629 139.543C130.751 139.541 131.875 139.545 132.999 139.541C132.996 138.423 132.997 137.304 132.997 136.186C130.763 136.183 128.528 136.184 126.294 136.184C126.294 137.306 126.292 138.428 126.296 139.55C124.05 139.553 121.803 139.55 119.557 139.551V142.91C120.679 142.91 121.803 142.907 122.927 142.912C122.926 144.033 122.922 145.155 122.929 146.277C121.802 146.294 120.676 146.28 119.549 146.285C119.547 145.162 119.55 144.04 119.547 142.918H116.18V136.176C119.549 136.174 122.917 136.178 126.287 136.174C126.286 135.057 126.284 133.939 126.287 132.822C121.798 132.811 117.309 132.821 112.82 132.817C112.82 133.937 112.817 135.059 112.822 136.181C111.707 136.188 110.593 136.183 109.477 136.184C109.474 135.061 109.484 133.937 109.472 132.816C108.352 132.819 107.231 132.814 106.11 132.819C106.102 131.69 106.117 130.564 106.102 129.438C104.983 129.447 103.866 129.438 102.749 129.442C102.749 130.567 102.747 131.69 102.75 132.816C101.632 132.854 100.467 132.742 99.3804 132.871C99.3687 133.936 99.3485 135.004 99.4006 136.068C99.2191 136.169 99.0091 136.23 98.8025 136.196C97.8701 136.173 96.9377 136.189 96.007 136.183C95.9986 138.425 96.0087 140.665 96.0003 142.907C99.3737 142.917 102.747 142.903 106.119 142.912C106.117 144.033 106.114 145.155 106.121 146.277C101.622 146.292 97.1242 146.285 92.6251 146.28C92.6285 145.159 92.6251 144.039 92.6268 142.918H85.932C85.9236 144.042 85.9455 145.167 85.9203 146.292C84.798 146.274 83.6758 146.296 82.5535 146.279C82.5535 145.159 82.5603 144.039 82.5485 142.918C83.6741 142.898 84.798 142.915 85.9236 142.91V139.551C84.7997 139.55 83.6758 139.555 82.5535 139.548C82.5552 138.428 82.5586 137.306 82.5519 136.186C83.6741 136.164 84.7997 136.181 85.9236 136.176V132.817C84.7997 132.816 83.6775 132.817 82.5535 132.816C82.5552 131.69 82.5552 130.565 82.5552 129.442C81.4363 129.44 80.3175 129.443 79.1986 129.44C79.1902 130.565 79.1969 131.69 79.1952 132.817C78.0713 132.817 76.9491 132.816 75.8268 132.819C75.8268 133.937 75.8268 135.056 75.8251 136.174C76.9491 136.178 78.0713 136.174 79.1952 136.176V139.551C78.0713 139.553 76.9474 139.548 75.8251 139.553C75.8235 140.668 75.8369 141.781 75.8167 142.895C76.9423 142.927 78.0679 142.902 79.1952 142.91V146.285H75.8184V142.918C74.7079 142.917 73.5975 142.922 72.487 142.917C72.4786 144.038 72.487 145.162 72.4836 146.285H65.7384C65.7384 145.16 65.7401 144.035 65.7384 142.912C67.9829 142.908 70.2291 142.91 72.4752 142.91V132.817C70.2307 132.821 67.9879 132.807 65.7435 132.824C65.7502 135.066 65.7451 137.309 65.7468 139.551C64.6229 139.551 63.5007 139.55 62.3767 139.553C62.3784 140.675 62.3784 141.797 62.3784 142.918C61.2545 142.918 60.1323 142.917 59.01 142.92V146.285C56.7723 146.285 54.5362 146.285 52.2984 146.284C52.2984 145.16 52.3001 144.035 52.2984 142.912C53.4089 142.908 54.5211 142.91 55.6332 142.91V132.817C54.5211 132.816 53.4089 132.817 52.2984 132.817C52.3001 131.69 52.2984 130.567 52.2984 129.442C51.1762 129.44 50.0523 129.442 48.93 129.442V112.633C50.0556 112.625 51.1812 112.647 52.3051 112.62C52.29 111.515 52.3018 110.412 52.2984 109.307C50.0489 109.322 47.7994 109.273 45.5515 109.332C45.5717 110.434 45.5583 111.537 45.5599 112.64C44.4377 112.64 43.3155 112.638 42.1932 112.64V115.999C43.3155 115.997 44.4377 115.999 45.5616 115.999V119.374H42.1848V116.007C41.0643 116.007 39.9454 116.006 38.8248 116.007C38.8231 117.129 38.8248 118.252 38.8231 119.374H32.1132C32.1115 118.251 32.1132 117.129 32.1132 116.007C30.9927 116.004 29.8721 116.014 28.7515 116C28.7532 117.126 28.7549 118.249 28.7515 119.374H22.008V115.999C24.2491 116 26.4919 115.994 28.7331 116.002C28.7599 114.88 28.7398 113.76 28.7448 112.64C26.4987 112.64 24.2542 112.638 22.0097 112.64C22.0063 111.527 22.008 110.412 22.008 109.298H28.7448C28.7465 105.93 28.7448 102.559 28.7448 99.1904C29.8704 99.1871 30.996 99.1888 32.1216 99.1888V102.564C33.2455 102.554 34.3695 102.586 35.4917 102.546C35.4699 101.427 35.4867 100.309 35.4816 99.1904C36.5938 99.1871 37.7043 99.1905 38.8164 99.1871V95.8217C41.0643 95.82 43.3138 95.8234 45.5616 95.8217V92.4631H32.1216C32.1233 93.5832 32.1166 94.7033 32.125 95.8234C29.8755 95.8402 27.6276 95.8234 25.3781 95.8318C25.3731 94.7083 25.3781 93.5865 25.3764 92.4631C24.2542 92.4631 23.1336 92.4597 22.0131 92.4664C22.003 91.3514 22.0097 90.2363 22.008 89.1212H25.3764C25.3781 87.9994 25.3764 86.876 25.3764 85.7542C26.497 85.7559 27.6175 85.7508 28.7364 85.7575C28.7549 84.6341 28.7415 83.5106 28.7448 82.3871C32.0981 82.3905 35.4497 82.3804 38.803 82.3922C38.8349 80.1469 38.808 77.9 38.8164 75.653C41.0643 75.6514 43.3138 75.6547 45.5616 75.6514C45.5599 74.5413 45.5616 73.4313 45.5616 72.3196C43.3138 72.3196 41.0659 72.3179 38.8181 72.3213C38.8147 71.1978 38.8164 70.076 38.8181 68.9525C37.7093 68.9509 36.6022 68.9559 35.4951 68.9509C35.4833 72.3095 35.4934 75.6682 35.49 79.0268C32.1216 79.0318 28.7532 79.0268 25.3831 79.0302C25.3747 80.1536 25.405 81.2788 25.3663 82.4022C24.2475 82.3888 23.1286 82.3972 22.0097 82.3972C22.0047 80.1486 22.0097 77.9016 22.008 75.653C23.1286 75.653 24.2491 75.6514 25.3697 75.6547C25.3747 71.1743 25.3949 66.6905 25.3596 62.21C24.2424 62.2268 23.1252 62.2151 22.008 62.2184C22.0114 58.8581 22.003 55.4995 22.0131 52.1408C23.1387 52.1526 24.2643 52.1274 25.3915 52.1542C25.3764 53.2609 25.3882 54.3676 25.3848 55.4759H28.7448C28.7482 53.2408 28.7381 51.0056 28.7499 48.7721C29.8755 48.7822 30.9994 48.7687 32.1233 48.7805C32.1199 49.9006 32.1233 51.0207 32.1216 52.1425C33.2439 52.1442 34.3678 52.1408 35.49 52.1442C35.4934 53.2559 35.4816 54.3676 35.4967 55.4793C36.6039 55.4709 37.711 55.4793 38.8198 55.4743C38.8299 57.7178 38.8231 59.9631 38.8231 62.2067C42.1949 62.2151 45.5667 62.2067 48.9384 62.2117C48.9384 63.3335 48.9351 64.4553 48.9401 65.5788C50.0623 65.5771 51.1846 65.5771 52.3068 65.5788V68.9441C53.4173 68.9391 54.5261 68.9525 55.6366 68.9374C55.6299 66.6989 55.6315 64.462 55.6366 62.2235C54.5227 62.2084 53.4089 62.2252 52.2967 62.2151C52.3018 59.9715 52.2967 57.7279 52.3001 55.4843C51.1795 55.4827 50.059 55.4843 48.9384 55.4843C48.9367 56.6061 48.9384 57.7279 48.9384 58.8514C46.6855 58.8497 44.4343 58.8547 42.1831 58.8497C42.1882 57.7246 42.1831 56.5994 42.1865 55.4743C44.4343 55.4759 46.6822 55.4759 48.93 55.4759V52.1509C45.5599 52.1509 42.1899 52.1492 38.8198 52.1526C38.8147 51.0257 38.8147 49.8989 38.8198 48.7738C43.3121 48.7788 47.8061 48.7754 52.2984 48.7754V45.4101C51.1795 45.4101 50.0607 45.4017 48.9401 45.4151C48.9166 38.6877 48.9367 31.9587 48.93 25.2313H52.2984V21.8643ZM32.1216 58.8514C32.1199 59.9698 32.1233 61.0883 32.1199 62.2084C33.2405 62.2117 34.3611 62.21 35.4816 62.21C35.4816 61.0916 35.4799 59.9732 35.4833 58.8547C34.3627 58.848 33.2422 58.8531 32.1216 58.8514ZM28.7532 62.2184C28.7549 65.5838 28.7515 68.9475 28.7549 72.3112C29.8755 72.3061 30.996 72.3196 32.1166 72.3045C32.1082 68.9425 32.1149 65.5804 32.1132 62.2184C30.9927 62.2184 29.8738 62.2168 28.7532 62.2184ZM38.8231 65.5872C38.8231 66.7039 38.8265 67.8223 38.8215 68.9391C41.0693 68.9492 43.3155 68.9425 45.5616 68.9425V65.5855C43.3155 65.5855 41.0693 65.5838 38.8231 65.5872ZM48.9334 68.9592C48.9451 71.1911 48.9334 73.4229 48.9401 75.6547C50.059 75.6514 51.1795 75.6547 52.2984 75.653V68.9525C51.1762 68.9559 50.0556 68.9458 48.9334 68.9592ZM55.6416 72.3213C55.6416 74.5531 55.6399 76.7866 55.6433 79.0201H59.01V82.3871H65.7468V85.7542H72.4836C72.4836 86.876 72.4853 87.9978 72.4819 89.1212C73.5975 89.1229 74.7113 89.1212 75.8268 89.1212C75.8268 90.2329 75.8251 91.343 75.8268 92.4547C76.9474 92.453 78.0663 92.4564 79.1868 92.453C79.1851 90.2229 79.1868 87.9927 79.1868 85.7626C78.0629 85.7609 76.9407 85.7626 75.8184 85.7609C75.8201 83.5173 75.8184 81.2737 75.8184 79.0285H65.7384V75.6614H59.0016C58.9999 74.548 59.0016 73.433 59.0016 72.3196C57.8811 72.3196 56.7605 72.3196 55.6416 72.3213ZM42.1915 79.0302C42.1949 80.1486 42.1915 81.2687 42.1949 82.3871C43.3171 82.3838 44.4411 82.3938 45.565 82.3821C45.5583 81.2637 45.5633 80.1469 45.5616 79.0285C44.4377 79.0285 43.3155 79.0268 42.1915 79.0302ZM79.1952 82.3871H82.5636V85.7542C83.6842 85.7542 84.8047 85.7559 85.9253 85.7525C85.9219 83.5106 85.9253 81.2704 85.9236 79.0285H79.1969C79.1935 80.1469 79.1952 81.267 79.1952 82.3871ZM109.486 82.3955C109.484 83.514 109.486 84.6324 109.484 85.7525C110.593 85.7559 111.703 85.7542 112.814 85.7525C112.81 84.6341 112.812 83.514 112.812 82.3955H109.486ZM32.1216 85.7626V89.1212C33.2439 89.1145 34.3661 89.1363 35.4883 89.1095C35.4732 87.9944 35.485 86.8776 35.4816 85.7626C34.3611 85.7609 33.2405 85.7609 32.1216 85.7626ZM42.1915 85.7643C42.1932 86.8827 42.1915 88.0028 42.1932 89.1212H45.5616C45.5616 90.2329 45.5599 91.3446 45.5616 92.4564C46.6855 92.4513 47.8078 92.4564 48.93 92.453C48.9283 91.343 48.9317 90.2329 48.9283 89.1246C50.0523 89.1179 51.1745 89.1212 52.2984 89.1212C52.3001 88.0028 52.2984 86.8827 52.2984 85.7626C48.93 85.7626 45.5616 85.7609 42.1915 85.7643ZM55.6416 85.7626V89.1212C56.7622 89.1179 57.8827 89.1279 59.0033 89.1162C58.9983 87.9977 59.0033 86.8793 59.0016 85.7626C57.8811 85.7626 56.7605 85.7609 55.6416 85.7626ZM85.932 85.7626C85.9303 86.881 85.9337 87.9994 85.9303 89.1195C88.1631 89.1246 90.3941 89.1195 92.6268 89.1212V85.7626C90.3941 85.7609 88.1631 85.7626 85.932 85.7626ZM59.01 89.1279V92.4614C57.8861 92.4664 56.7622 92.4564 55.6383 92.4681C55.6467 94.7083 55.6383 96.9485 55.6433 99.1904C56.7639 99.1821 57.8844 99.2005 59.0067 99.1804C58.9932 98.0619 59.01 96.9452 58.9966 95.8284C60.1222 95.8133 61.2461 95.8268 62.3717 95.8201C62.37 94.6966 62.3666 93.5748 62.3734 92.453C63.4956 92.4564 64.6179 92.4547 65.7384 92.453C65.7384 91.3446 65.7401 90.238 65.7384 89.1296C63.4956 89.1279 61.2528 89.1313 59.01 89.1279ZM69.1152 92.4547C70.2358 92.453 71.3547 92.4564 72.4752 92.453C72.4735 91.3446 72.4752 90.238 72.4752 89.1296C71.3547 89.1279 70.2358 89.1296 69.1169 89.1296C69.1119 90.2363 69.1152 91.3463 69.1152 92.4547ZM82.5636 92.4547C83.6842 92.4547 84.8047 92.4547 85.9236 92.453C85.9219 91.3446 85.9236 90.238 85.9236 89.1296C84.8031 89.1279 83.6842 89.1296 82.5653 89.1296C82.5619 90.238 82.5636 91.3463 82.5636 92.4547ZM45.5616 95.8301C45.565 96.9486 45.5549 98.067 45.5667 99.1871C43.3205 99.2106 41.0727 99.1888 38.8248 99.1972C38.8231 101.446 38.8265 103.693 38.8231 105.94H35.49V109.298H38.8248C38.8265 110.41 38.8215 111.522 38.8265 112.633C39.9471 112.627 41.0659 112.637 42.1865 112.628C42.1831 111.518 42.1848 110.408 42.1848 109.298C43.3121 109.298 44.4394 109.297 45.5683 109.3C45.5549 108.18 45.565 107.06 45.5616 105.94H42.1848V102.564C43.3104 102.563 44.436 102.564 45.5616 102.564V105.931H52.3068V109.298C53.4173 109.3 54.5278 109.297 55.6399 109.298C55.6265 108.177 55.6349 107.053 55.6332 105.931H59.01V109.298C60.1323 109.298 61.2545 109.297 62.3784 109.298C62.3767 110.413 62.3818 111.528 62.3734 112.644C61.2495 112.637 60.1255 112.64 59.0016 112.64V109.307C57.8811 109.312 56.7588 109.293 55.6383 109.318C55.645 111.545 55.6399 113.772 55.6416 115.999C56.7639 115.997 57.8861 115.997 59.01 115.999V119.374C57.8844 119.384 56.7605 119.351 55.6366 119.393C55.6467 120.508 55.6383 121.625 55.6416 122.741C54.5278 122.745 53.4156 122.731 52.3035 122.75C52.3102 124.98 52.3051 127.21 52.3068 129.442H55.6332C55.6332 128.328 55.6349 127.217 55.6315 126.105C56.7555 126.095 57.8811 126.102 59.005 126.1C58.9966 124.978 59.0033 123.856 59.0016 122.735C60.1272 122.731 61.2511 122.733 62.3767 122.733C62.3784 123.858 62.3767 124.983 62.3784 126.108C61.2528 126.118 60.1255 126.085 58.9999 126.129C59.0235 129.477 59.005 132.826 59.01 136.176H62.37C62.3717 133.931 62.37 131.687 62.37 129.442C64.6145 129.442 66.8607 129.44 69.1051 129.443C69.1085 128.332 69.1068 127.22 69.1068 126.108C67.9829 126.107 66.8607 126.11 65.7367 126.107C65.7451 122.736 65.7267 119.364 65.7468 115.994C67.9846 116.009 70.224 115.985 72.4635 116.007C72.4903 110.403 72.4685 104.801 72.4752 99.1972C71.3547 99.1955 70.2358 99.1972 69.1169 99.1972C69.1119 103.678 69.1203 108.16 69.1119 112.642C67.9879 112.637 66.8623 112.64 65.7384 112.64V105.94C64.6145 105.938 63.4923 105.94 62.37 105.94V102.573H55.6332C55.6315 101.447 55.6332 100.322 55.6332 99.1972C53.3988 99.1955 51.1644 99.1972 48.93 99.1972V95.8301H45.5616ZM62.3784 95.8301V102.564C63.4956 102.566 64.6145 102.561 65.7334 102.566C65.7451 100.321 65.7367 98.0754 65.7384 95.8301H62.3784ZM72.4836 99.1888C73.5975 99.1888 74.7113 99.1871 75.8268 99.1888V105.931H79.1851C79.1885 104.808 79.1818 103.686 79.1902 102.563C81.4347 102.566 83.6791 102.563 85.9236 102.564V99.1972C84.7997 99.1955 83.6775 99.1972 82.5552 99.1972V95.8301H72.4853C72.4819 96.9486 72.4853 98.0687 72.4836 99.1888ZM96.0036 99.1955C96.0019 100.317 96.0053 101.441 96.0036 102.564H99.3703C99.372 105.92 99.372 109.275 99.3703 112.63C100.493 112.635 101.616 112.632 102.74 112.632C102.739 108.153 102.742 103.674 102.739 99.1972C100.494 99.1955 98.2498 99.1972 96.0036 99.1955ZM85.932 102.573C85.932 103.694 85.9303 104.816 85.932 105.938C84.8115 105.94 83.6909 105.941 82.5687 105.938C82.5535 109.295 82.5737 112.654 82.5586 116.011C81.4347 116.002 80.3107 116.009 79.1868 116.007V112.64C78.0679 112.638 76.9491 112.642 75.8302 112.638C75.8201 114.88 75.8302 117.122 75.8251 119.364C76.9491 119.368 78.0713 119.364 79.1952 119.366C79.1952 120.488 79.1952 121.609 79.1935 122.731C80.3175 122.735 81.4397 122.731 82.5636 122.733C82.5603 124.966 82.572 127.2 82.5569 129.433C83.6808 129.452 84.8047 129.437 85.9303 129.442C85.9337 130.564 85.9303 131.685 85.932 132.809C89.2853 132.811 92.6386 132.807 95.9935 132.811C95.9969 130.575 95.9952 128.34 95.9935 126.107C97.1158 126.093 98.2397 126.103 99.3636 126.1C99.367 123.855 99.3586 121.609 99.367 119.364C100.491 119.366 101.616 119.366 102.74 119.364C102.739 118.246 102.742 117.126 102.739 116.007C101.613 116.007 100.488 116.007 99.3636 116.006V112.64C97.1208 112.638 94.878 112.642 92.6369 112.638C92.6319 113.762 92.6403 114.885 92.6302 116.011C90.3941 116.002 88.158 116.011 85.9236 116.006C85.9253 114.88 85.9219 113.755 85.9253 112.632C88.158 112.633 90.3924 112.632 92.6251 112.632C92.6268 110.402 92.6268 108.171 92.6268 105.94H89.2937C89.292 104.816 89.292 103.693 89.292 102.569C88.1715 102.576 87.0526 102.571 85.932 102.573ZM92.6352 102.569C92.6352 103.689 92.6352 104.809 92.6335 105.931C93.7541 105.933 94.873 105.928 95.9935 105.933C95.9969 104.813 95.9935 103.693 95.9952 102.573C94.8747 102.569 93.7541 102.578 92.6352 102.569ZM32.1216 109.307V112.632C33.2439 112.622 34.3661 112.654 35.4883 112.613C35.4732 111.512 35.485 110.408 35.4816 109.307C34.3611 109.307 33.2422 109.305 32.1216 109.307ZM35.49 112.637C35.4917 113.757 35.4883 114.879 35.4917 116C36.6005 115.994 37.711 116.007 38.8198 115.992C38.8131 114.875 38.8181 113.757 38.8164 112.64C37.7076 112.637 36.5988 112.644 35.49 112.637ZM52.3068 119.366C53.4173 119.366 54.5295 119.364 55.6416 119.368C55.6231 118.247 55.6383 117.127 55.6332 116.007C54.5261 116.004 53.4207 116.012 52.3152 116.004C52.2967 117.124 52.3119 118.244 52.3068 119.366ZM72.4836 122.731C73.5941 122.735 74.7063 122.733 75.8184 122.733V119.374C74.7096 119.371 73.6025 119.381 72.4937 119.369C72.4702 120.489 72.4903 121.611 72.4836 122.731ZM119.557 119.374C119.557 122.731 119.557 126.087 119.559 129.442C122.916 129.44 126.272 129.443 129.629 129.442C129.622 126.083 129.642 122.726 129.619 119.369C126.265 119.381 122.912 119.371 119.557 119.374ZM136.374 119.374C136.371 121.616 136.377 123.858 136.371 126.1C137.491 126.1 138.612 126.102 139.734 126.1C139.727 123.856 139.746 121.613 139.724 119.371C138.607 119.378 137.491 119.373 136.374 119.374ZM75.8335 122.738C75.8151 123.855 75.8369 124.973 75.8201 126.092C76.9423 126.112 78.0646 126.095 79.1868 126.1V122.741C78.0679 122.74 76.9507 122.743 75.8335 122.738ZM72.4819 126.115C72.4853 127.223 72.4836 128.332 72.4836 129.442C73.5924 129.443 74.7029 129.438 75.8134 129.443C75.8235 128.332 75.8167 127.22 75.8184 126.108C74.7063 126.112 73.5941 126.1 72.4819 126.115ZM99.372 126.108C99.3737 127.22 99.3636 128.333 99.3787 129.447C100.499 129.435 101.62 129.445 102.742 129.44C102.742 128.335 102.734 127.228 102.747 126.123C101.622 126.09 100.496 126.115 99.372 126.108ZM133.006 126.108C133.006 127.22 133.001 128.332 133.009 129.443C134.128 129.438 135.247 129.443 136.366 129.442C136.371 128.337 136.356 127.232 136.374 126.127C135.252 126.087 134.128 126.117 133.006 126.108ZM139.742 129.442C139.741 130.564 139.742 131.685 139.742 132.809C140.863 132.809 141.982 132.811 143.104 132.807C143.101 131.685 143.102 130.564 143.102 129.443C141.982 129.44 140.863 129.442 139.742 129.442ZM136.374 132.817C136.372 136.181 136.374 139.545 136.374 142.91C137.495 142.907 138.617 142.917 139.739 142.903C139.724 139.541 139.742 136.178 139.731 132.816C138.612 132.819 137.493 132.816 136.374 132.817ZM85.932 136.184C85.9303 137.303 85.9303 138.423 85.932 139.543H92.6268V136.184C90.3941 136.183 88.1631 136.184 85.932 136.184Z" fill="black"/>
<path id="Vector_62" d="M65.7384 21.8647C66.8623 21.863 67.9862 21.868 69.1102 21.8613C69.1202 22.9848 69.1118 24.1083 69.1169 25.2317H72.4752V21.8664C73.5924 21.863 74.7079 21.8647 75.8251 21.8647C75.8268 22.9898 75.8268 24.115 75.8268 25.2401C74.7113 25.2401 73.5974 25.2385 72.4836 25.2401C72.4853 27.482 72.4819 29.7239 72.4853 31.9658C73.5991 31.9658 74.713 31.9641 75.8268 31.9675C75.8251 33.0927 75.8268 34.2161 75.8268 35.3413H72.4836V38.6747C71.358 38.6747 70.2341 38.673 69.1085 38.6747C69.1034 34.196 69.1085 29.7172 69.1051 25.2401C67.9846 25.2418 66.864 25.2368 65.7434 25.2418C65.7334 24.1167 65.7418 22.9898 65.7384 21.8647Z" fill="black"/>
<path id="Vector_63" d="M82.5552 21.8648C87.0375 21.8632 91.5197 21.8665 96.0019 21.8632C96.007 22.9866 96.0003 24.1101 96.0053 25.2319C96.9394 25.2269 97.8751 25.242 98.8109 25.2235C99.0091 25.2 99.2141 25.2252 99.3989 25.3024C99.3401 26.4007 99.3838 27.5007 99.3737 28.5989H109.476C109.479 27.4805 109.476 26.3604 109.477 25.2403H106.109C106.114 24.1118 106.097 22.985 106.119 21.8564C107.241 21.8749 108.363 21.8598 109.486 21.8648C109.484 22.9866 109.484 24.1101 109.486 25.2319C110.601 25.2873 111.747 25.1261 112.846 25.3007C112.79 26.4024 112.834 27.5057 112.82 28.6073C111.708 28.6073 110.596 28.6057 109.484 28.609C109.486 29.7274 109.484 30.8459 109.486 31.966C110.596 31.966 111.708 31.9643 112.82 31.966C112.819 33.0911 112.82 34.2163 112.819 35.3414H109.484C109.482 36.4548 109.494 37.5665 109.477 38.6782C106.109 38.6698 102.74 38.6766 99.372 38.6749C99.372 40.9201 99.3703 43.1637 99.372 45.409H102.739C102.74 44.2838 102.74 43.1604 102.739 42.0352C103.864 42.0319 104.992 42.0335 106.117 42.0335V48.776C107.236 48.7777 108.357 48.7743 109.476 48.7777C109.482 46.5274 109.469 44.2788 109.482 42.0302C110.593 42.0386 111.703 42.0302 112.812 42.0352C112.812 40.9117 112.814 39.79 112.812 38.6665C113.934 38.6665 115.055 38.6665 116.179 38.6682C116.182 37.5565 116.179 36.4447 116.18 35.3347C117.304 35.3314 118.43 35.333 119.557 35.333C119.557 38.6917 119.561 42.0503 119.556 45.4107C118.432 45.409 117.309 45.4073 116.189 45.4107C116.189 46.5324 116.187 47.6542 116.189 48.776H122.926V52.1515H119.557V58.8436C120.676 58.8436 121.797 58.8419 122.916 58.8436C122.919 57.7218 122.917 56.6 122.917 55.4782C126.276 55.4748 129.636 55.4765 132.996 55.4765C132.999 54.3682 132.997 53.2598 132.996 52.1498C130.759 52.1515 128.522 52.1515 126.286 52.1498V48.7777C131.893 48.7743 137.501 48.7777 143.109 48.776C143.111 49.9012 143.111 51.0263 143.109 52.1515H136.374C136.379 54.3816 136.362 56.6118 136.382 58.8402C133.019 58.8688 129.656 58.8419 126.294 58.8537C126.301 60.9847 126.281 63.1141 126.304 65.2452C126.297 65.3711 126.272 65.492 126.225 65.6113C125.123 65.5558 124.019 65.5995 122.917 65.5861C122.916 64.4626 122.919 63.3408 122.916 62.2173C119.547 62.219 116.18 62.219 112.812 62.2173V58.852H109.484C109.486 59.9738 109.486 61.0972 109.484 62.219C107.238 62.2173 104.993 62.2173 102.749 62.219V68.9531H99.372C99.3468 70.043 99.4241 71.1396 99.3267 72.2261C99.2863 72.2547 99.2057 72.3134 99.1654 72.3437C98.1087 72.2967 97.0519 72.3302 95.9952 72.3202V68.9531H92.6369C92.6335 70.0749 92.6352 71.1967 92.6352 72.3185C91.5214 72.3218 90.4059 72.3202 89.292 72.3185C89.2937 70.0715 89.292 67.8246 89.292 65.5777C90.4042 65.5777 91.5147 65.5793 92.6268 65.5777C92.6268 64.4542 92.6251 63.3324 92.6268 62.2106C95.9986 62.2123 99.3687 62.2089 102.739 62.2123C102.74 61.0922 102.74 59.9721 102.74 58.852H95.9969C95.9935 57.7302 95.9952 56.6067 95.9952 55.4849C94.873 55.4849 93.7507 55.4832 92.6285 55.4849C92.6235 54.3749 92.6268 53.2632 92.6268 52.1515C91.5147 52.1498 90.4025 52.1531 89.292 52.1498V48.7777C91.5281 48.7743 93.7659 48.776 96.0036 48.7777C96.0036 51.0095 96.0019 53.243 96.0053 55.4765H106.117V58.8436C107.238 58.8402 108.36 58.8503 109.481 58.8369C109.472 56.6084 109.481 54.3799 109.476 52.1515H99.3636C99.3636 49.9045 99.3636 47.6576 99.3653 45.4107C98.2414 45.4073 97.1191 45.409 95.9969 45.409C95.9935 44.2872 95.9952 43.1654 95.9952 42.0436C94.8747 42.0403 93.7558 42.0419 92.6352 42.0419V45.409H89.2937C89.292 44.2872 89.292 43.1654 89.2937 42.0436C88.3697 42.0403 87.4457 42.0386 86.5234 42.047C86.2731 42.1259 86.0815 41.9546 85.9001 41.827C85.9488 40.7774 85.9186 39.7261 85.9169 38.6766C88.153 38.6531 90.3891 38.6732 92.6268 38.6665C92.6268 37.5548 92.6251 36.4447 92.6268 35.333H95.9952V25.2386C94.8747 25.2403 93.7541 25.2386 92.6352 25.2403V28.6073C91.5231 28.609 90.4109 28.604 89.2987 28.6107C89.3021 30.8543 89.3004 33.0978 89.2987 35.3414H85.9253C85.9219 34.2196 85.9236 33.0978 85.9236 31.9761C84.8031 31.9727 83.6842 31.9744 82.5636 31.9744V35.3414H79.1885C79.1851 31.9727 79.1868 28.6023 79.1868 25.2319H82.5552V21.8648ZM85.9354 25.2369C85.927 26.357 85.9337 27.4788 85.932 28.5989C87.0526 28.6006 88.1715 28.5989 89.292 28.5989C89.2937 27.4805 89.2903 26.3604 89.2937 25.242C88.1731 25.2352 87.0543 25.2436 85.9354 25.2369ZM102.749 31.9761V35.333C104.992 35.3313 107.236 35.3381 109.479 35.3297C109.476 34.2112 109.479 33.0928 109.477 31.9744C107.234 31.9761 104.992 31.9727 102.749 31.9761ZM96.0036 35.3414C96.0036 36.4498 96.0019 37.5581 96.0053 38.6665H99.3636C99.3636 37.5581 99.3619 36.4498 99.3636 35.3431C98.2431 35.3397 97.1242 35.3414 96.0036 35.3414ZM112.81 42.057C112.831 43.1738 112.814 44.2922 112.82 45.409H116.179C116.18 44.2872 116.179 43.1654 116.18 42.0419C115.057 42.0487 113.933 42.0235 112.81 42.057ZM112.82 52.1515V58.8436H116.179C116.18 56.6134 116.18 54.3816 116.179 52.1515C115.06 52.1515 113.939 52.1498 112.82 52.1515ZM96.0036 68.9447C97.1242 68.943 98.2431 68.9447 99.3636 68.943C99.3619 67.8246 99.3636 66.7045 99.3636 65.5861H96.0053C96.0019 66.7045 96.0036 67.8246 96.0036 68.9447Z" fill="black"/>
<path id="Vector_64" d="M99.3519 21.8821C100.484 21.8468 101.616 21.8737 102.749 21.8653C102.747 22.9904 102.75 24.1156 102.747 25.2407C101.808 25.2407 100.871 25.239 99.9315 25.2457C99.7013 25.3028 99.5198 25.1551 99.3384 25.0509C99.3871 23.9963 99.3619 22.9383 99.3519 21.8821Z" fill="black"/>
<path id="Vector_65" d="M112.814 21.8633C113.938 21.8666 115.063 21.8633 116.189 21.865V25.232H119.557C119.556 26.3572 119.559 27.4823 119.556 28.6075C118.43 28.6058 117.306 28.6075 116.18 28.6075C116.18 27.484 116.179 26.3622 116.18 25.2404C115.253 25.2404 114.326 25.2354 113.398 25.2454C113.153 25.3193 112.958 25.1648 112.787 25.0288C112.842 23.9742 112.797 22.9179 112.814 21.8633Z" fill="black"/>
<path id="Vector_66" d="M122.919 21.8633C130.773 21.8666 138.625 21.865 146.479 21.865C146.479 29.7124 146.478 37.5599 146.479 45.4074C138.625 45.4108 130.771 45.4091 122.917 45.4091C122.919 37.5599 122.916 29.7124 122.919 21.8633ZM126.289 25.2505C126.302 30.8443 126.289 36.4398 126.294 42.0337C131.897 42.0337 137.5 42.0353 143.102 42.0337V25.2404C137.498 25.2471 131.892 25.227 126.289 25.2505Z" fill="black"/>
<path id="Vector_67" d="M59.0016 25.2319C60.1255 25.2302 61.2495 25.2352 62.3734 25.2285C62.3835 26.3553 62.3767 27.4805 62.3784 28.6073C61.2528 28.6073 60.1272 28.6073 59.0016 28.6056V25.2319Z" fill="black"/>
<path id="Vector_68" d="M28.7448 28.5986C32.1048 28.6003 35.4631 28.5986 38.8215 28.5986C38.8282 31.9573 38.8231 35.3159 38.8248 38.6746H28.7448V28.5986Z" fill="black"/>
<path id="Vector_69" d="M129.627 28.6022C132.999 28.5955 136.371 28.6006 139.742 28.5989V38.6748H129.629C129.627 35.3162 129.63 31.9592 129.627 28.6022Z" fill="black"/>
<path id="Vector_70" d="M62.37 35.333C63.4956 35.3347 64.6212 35.3313 65.7468 35.3347C65.7451 36.4481 65.7468 37.5615 65.7468 38.6749C64.6195 38.6732 63.4939 38.6782 62.3683 38.6715C62.3717 37.5581 62.3683 36.4447 62.37 35.333Z" fill="black"/>
<path id="Vector_71" d="M79.1868 38.6665C80.3107 38.6648 81.4363 38.6682 82.5619 38.6665C82.5653 39.7883 82.5619 40.9118 82.5636 42.0352C83.6926 42.0839 84.8467 41.9378 85.9589 42.094C85.9001 43.1973 85.9454 44.304 85.932 45.409C84.761 45.3804 83.5834 45.4762 82.4191 45.3401L82.5434 45.1353C82.572 44.1025 82.5518 43.0697 82.5485 42.0386C81.4313 42.0453 80.3124 42.0403 79.1952 42.0419C79.1986 43.1654 79.1868 44.2889 79.2019 45.4124C80.2502 45.3905 81.3002 45.4409 82.3486 45.3838C82.4561 45.5752 82.6375 45.7533 82.567 45.9984C82.5619 46.9271 82.5636 47.8558 82.5636 48.7844C81.438 48.7458 80.2906 48.86 79.1801 48.7273C79.1902 47.6207 79.1834 46.514 79.1885 45.409H75.8268C75.8268 46.341 75.8218 47.2747 75.8318 48.2067C75.9108 48.4486 75.7411 48.6417 75.6017 48.8096C74.4929 48.7643 73.3807 48.7895 72.2736 48.7609L72.4735 48.5393C72.4819 47.4964 72.4702 46.4535 72.4769 45.4107C71.3849 45.3855 70.2895 45.4543 69.2009 45.372C69.1723 45.3317 69.1118 45.2495 69.0833 45.2091C69.1303 44.1512 69.095 43.0915 69.1068 42.0335C70.2307 42.0319 71.3563 42.0352 72.4802 42.0319C72.487 43.157 72.4819 44.2838 72.4836 45.409H75.8184V42.0335H79.1868V38.6665Z" fill="black"/>
<path id="Vector_72" d="M62.37 42.0335C63.4956 42.0351 64.6229 42.0301 65.7485 42.0368C65.7451 43.1603 65.7451 44.2854 65.7485 45.4089C66.775 45.4139 67.8014 45.4005 68.8279 45.4123C68.88 45.4391 68.9875 45.4929 69.0396 45.5214C69.2126 46.5878 69.0665 47.6928 69.1152 48.7759C70.0476 48.7759 70.98 48.7776 71.9124 48.7726C72.2534 48.6634 72.6029 49.0346 72.4886 49.3704C72.4802 50.1026 72.4819 50.8348 72.4886 51.5687C72.576 51.8206 72.3761 52.0019 72.24 52.1749C68.9741 52.1363 65.7048 52.1329 62.4389 52.1766C62.291 51.8155 62.3868 51.4209 62.37 51.0447C62.3717 48.0404 62.3683 45.0378 62.37 42.0335Z" fill="black"/>
<path id="Vector_73" d="M75.8319 52.1603C75.8537 51.0267 75.7311 49.8697 75.8772 48.7529C76.9642 48.8403 78.0713 48.6925 79.1482 48.8302C79.2574 49.9268 79.1633 51.0452 79.1952 52.1519C78.073 52.1569 76.9524 52.1418 75.8319 52.1603Z" fill="black"/>
<path id="Vector_74" d="M72.4534 52.3869C72.6348 52.2626 72.8028 52.0493 73.0599 52.14C73.9822 52.145 74.9045 52.1434 75.8285 52.1434C75.8268 53.0737 75.8218 54.004 75.8335 54.9344C75.894 55.1577 75.7798 55.4214 75.5547 55.4902C74.5282 55.4852 73.5017 55.4835 72.4752 55.4852C72.4634 54.4524 72.5004 53.418 72.4534 52.3869Z" fill="black"/>
<path id="Vector_75" d="M82.5569 55.4854C82.5535 54.372 82.5535 53.2569 82.5569 52.1436H85.932V55.4854H82.5569Z" fill="black"/>
<path id="Vector_76" d="M139.732 55.4815C141.98 55.4697 144.23 55.4798 146.478 55.4764C146.481 58.8452 146.478 62.2156 146.479 65.5843C145.409 65.5994 144.337 65.5557 143.269 65.6112C143.166 65.4248 143.04 65.2266 143.097 65.0032C143.106 64.0746 143.101 63.1476 143.104 62.2206C141.98 62.2156 140.856 62.2206 139.734 62.2172C139.732 59.972 139.736 57.7267 139.732 55.4815Z" fill="black"/>
<path id="Vector_77" d="M75.7999 55.7404C75.9914 55.6144 76.151 55.3692 76.4266 55.4734C77.3489 55.4767 78.2712 55.4767 79.1952 55.4767V58.8522H75.8201C75.8083 57.8143 75.8402 56.7765 75.7999 55.7404Z" fill="black"/>
<path id="Vector_78" d="M79.1868 62.2104C80.3124 62.2104 81.438 62.2087 82.5636 62.2121V65.5841C81.4414 65.5858 80.3191 65.5858 79.1969 65.5841C79.1935 66.7059 79.1952 67.8294 79.1952 68.9512C78.0696 68.9545 76.944 68.9512 75.8184 68.9529C75.8184 67.8277 75.8167 66.7026 75.8201 65.5774C76.9423 65.5791 78.0646 65.5774 79.1868 65.5774C79.1868 64.454 79.1851 63.3322 79.1868 62.2104Z" fill="black"/>
<path id="Vector_79" d="M139.734 65.5774C140.826 65.5623 141.921 65.611 143.013 65.5488C143.188 65.8377 143.102 66.1819 143.114 66.501C143.102 67.3138 143.116 68.1266 143.109 68.9394C144.231 68.9511 145.355 68.9394 146.481 68.9461C146.476 72.3081 146.481 75.6684 146.478 79.0304C145.352 79.0254 144.226 79.0338 143.101 79.0254C143.104 76.7902 143.101 74.555 143.102 72.3199C141.978 72.3148 140.853 72.3299 139.731 72.3131C139.739 70.0679 139.731 67.8226 139.734 65.5774Z" fill="black"/>
<path id="Vector_80" d="M22.008 99.1895H25.3848C25.3848 100.318 25.3848 101.445 25.3831 102.573C24.2592 102.573 23.1336 102.572 22.008 102.573C22.0063 101.445 22.008 100.318 22.008 99.1895Z" fill="black"/>
<path id="Vector_81" d="M122.917 99.189C125.155 99.1873 127.391 99.1906 129.627 99.189C129.632 100.314 129.62 101.441 129.636 102.566C130.759 102.564 131.883 102.558 133.009 102.569C133.001 103.693 133.006 104.816 133.006 105.94C131.882 105.942 130.756 105.936 129.632 105.943C129.624 104.818 129.63 103.693 129.629 102.569C127.393 102.578 125.157 102.568 122.921 102.574C122.914 101.446 122.919 100.317 122.917 99.189Z" fill="black"/>
<path id="Vector_82" d="M85.9219 126.106C85.927 123.859 85.9186 121.612 85.927 119.367C87.0492 119.367 88.1731 119.369 89.2954 119.365C89.3071 120.489 89.2937 121.612 89.3038 122.737C90.4143 122.731 91.5247 122.734 92.6352 122.734V129.443H89.2937C89.2937 128.335 89.2887 127.228 89.2954 126.119C88.1715 126.096 87.0459 126.118 85.9219 126.106Z" fill="black"/>
<path id="Vector_83" d="M22.008 122.733H45.5616V146.286H22.008V122.733ZM25.3848 126.109V142.91H42.1848V126.109H25.3848Z" fill="black"/>
<path id="Vector_84" d="M122.917 122.734C124.043 122.734 125.168 122.732 126.294 122.735C126.294 123.859 126.292 124.984 126.294 126.109H122.917C122.917 124.984 122.916 123.859 122.917 122.734Z" fill="black"/>
<path id="Vector_85" d="M28.7448 129.442H38.8248V139.552H28.7448C28.7465 136.182 28.7448 132.813 28.7448 129.442Z" fill="black"/>
<path id="Vector_86" d="M48.93 136.177H52.3068V139.552C51.1812 139.552 50.0556 139.552 48.93 139.551V136.177Z" fill="black"/>
<path id="Vector_87" d="M99.3367 136.321C99.5199 136.222 99.7198 136.127 99.9382 136.171C100.876 136.185 101.815 136.163 102.752 136.188C102.745 137.306 102.747 138.426 102.752 139.547C101.622 139.557 100.493 139.548 99.3636 139.552C99.3502 138.473 99.3939 137.395 99.3367 136.321Z" fill="black"/>
<path id="Vector_88" d="M109.477 142.91C110.593 142.912 111.707 142.905 112.822 142.914C112.812 144.039 112.834 145.165 112.81 146.291C111.698 146.279 110.588 146.287 109.477 146.286V142.91Z" fill="black"/>
</g>
</g>
<defs>
<clipPath id="clip0_532_120">
<rect width="168" height="199" fill="white"/>
</clipPath>
</defs>
</svg>
